<svg xmlns="http://www.w3.org/2000/svg" viewBox="0 0 2863.96 1584.59"><defs><style>.cls-1{fill:#fff;}.cls-2{fill:#1c3664;}.cls-3{fill:#97d9e9;}.cls-4{fill:#c4de92;}</style></defs><g id="Layer_2" data-name="Layer 2"><g id="Layer_1-2" data-name="Layer 1"><circle class="cls-1" cx="2261.26" cy="563.64" r="45.27"/><path class="cls-2" d="M2859.87,1199.87c5.6,5.21,4.5,20.83,2.29,30.7-5.92,26.52-14.76,52.25-21,78.7-3.87,16.65-11.44,23.91-28.81,30.86-35.44,14.21-67.72,36.46-101.82,54.38-56,29.44-110.42,63.22-169.15,85.4-54.62,20.61-113.27,29.52-172.86,34-96.37,7.27-192.2,22.34-288.41,33.31-31.18,3.55-62.67,4.42-94.09,6.55-.16-1.57-.24-3.23-.39-4.81-80.2,7-160.31,15.08-240.59,20.6-35.12,2.37-70.72-2-106.08-.71-57.54,2-115.32,3.39-172.54,9.79-80,8.84-159.21,7.18-239.08-1-49.26-5-99.38-2.6-149-1.82-67.56,1-134.73,1.9-202.06-8.28-45.78-6.95-93.06-3.71-139.16-9C669,1550.87,601.41,1538.8,533.45,1530c-42.23-5.37-84.85-7.82-127.24-11.76-51.54-4.82-102.92-11.77-154.54-14.29-63.31-3.08-124.32-17.84-185.89-30.47a417.15,417.15,0,0,1-43.57-11.68c-17.52-5.68-26.2-22-20.44-41,14.13-47,12.16-95.35,12.24-143.42.07-24.55,13.41-42.55,37.57-48.07a421.45,421.45,0,0,0,57.7-17.92c52.41-20.21,104-42.31,156.67-61.88,49.65-18.47,100.25-34.26,150.21-51.86,66.85-23.68,132.92-50,200.48-71.51,54.55-17.29,110.9-28.89,166.39-43.25,15.79-4.11,32.84-6.64,46.49-14.61,9.24-5.44,15.55-18.39,19.74-29.28,5.44-14.29,7.57-29.92,11-45,12.15-52.57,29.44-103.64,34.17-158.42,2.37-27.39,21.39-53.75,34.57-79.8,12.71-25.1,28.1-48.78,41.13-73.72,15.78-30.15,42.62-50,65.83-73.25,34.8-34.8,78.14-56.9,121.71-76.4,27.62-12.47,60.62-18.23,91.16-18.08,70.17.4,138.76,14.61,205.7,36.15,34.81,11.21,68.19,25,98.58,45.94a294.64,294.64,0,0,0,49.65,27.39c34.26,14.84,56.91,43.26,83.35,67.49,55.89,51,86.91,118.87,125.66,181.54,9.55,15.39,24.23,28.26,31.26,44.6,11.36,26.6,19.89,54.77,26.6,83,3,12.55,6.94,14.45,18.86,15.55,56.52,5.37,112.79,12.55,169.15,18.86,13.58,1.58,27.47,1,40.57,4.11,48.62,11.52,96.61,26,145.63,35.68a759.38,759.38,0,0,1,134.66,40.41c30,12,63.38,15.23,94.87,23.6,41.6,11.13,82.17,26.91,124.24,34.41,73.17,13,134,54.39,200.88,81.7C2821.43,1164.19,2841.32,1182.58,2859.87,1199.87Zm-56.12,87.22c27-24.24,24.7-76.41-4.82-96.85-12.15-8.37-25.81-14.92-39.46-20.84-48.54-21.08-96.46-43.89-146.26-61.49-44.2-15.55-90.69-24.78-136.08-37.25-77.59-21.24-154.78-43.73-232.61-64.1-50-13-100.72-23.28-151.23-34.25-12.08-2.61-24.55-3.63-36.94-4.74-59.28-5.13-118.48-12.23-177.83-13.65-18.47-.4-37.1,7.65-50-1.19-12.86,12.32-22,23.84-33.7,31.73-25.57,17.21-54.07,30.39-78.3,49.26-38.36,29.83-82.8,46.72-126.29,66.14-72.14,32.28-148.47,46.89-226.53,50.75-48.94,2.45-98.27-2-147.37-3.63-10.42-.39-21.15,0-31-2.52-33.46-8.45-66.85-17.6-99.92-27.55-20.53-6.16-41.13-13-60.62-21.86-22.89-10.42-44.83-23-66.86-35.29-30-16.73-60-33.7-89.43-51.38-10.57-6.31-19.41-10.34-32.67-6.63-42.71,12-86.51,20.44-129,33.23-64.33,19.34-128.1,40.81-191.88,62-39,12.94-77.51,27.47-116.42,40.57C344.25,1155.9,289,1171.53,235.64,1192c-44.36,17-86.35,40.1-130,59.12-29.59,12.87-51.14,30-51.06,65.75,0,17.53-2.92,35.13-4.42,52.65-.71,7.81-.87,15.71-2,23.52-2.52,18.08,6.87,39.7,23.76,44.36,39.62,10.89,79.48,21.86,120,28.1,39.23,6.08,79.56,5.13,119.18,9.55,24,2.61,47.91,5.29,71.91,8,74.27,8.53,148.47,17.52,222.74,26.21,20.68,2.44,41.44,4.1,62,6.63,14.29,1.81,28.58,3.71,42.78,5.68,27.55,3.79,55,7.58,82.64,10.18,37.5,3.48,75.94.63,112.88,6.79,50.83,8.53,101.58,7.1,152.41,6.16,14.29-.32,28.57-.56,42.94-.56,42.62.08,85.8-3.55,127.71,2.14,71.91,9.86,143.34,9.55,215.17,4.49l17.91-1.42c61.89-5.13,123.77-8.92,185.73-11.84,19.65-.94,39.31-1.26,59-1.42,26.68-.31,53.36-.39,80-1.65,80.27-4,160.54-9.4,240.74-14.13,27.47-1.66,55.64.23,82.17-5.45a1571.3,1571.3,0,0,1,189-29c72.61-6.63,146.33-9.39,216.74-33.38,53.52-18.32,104.58-40.5,150-74.75a188.42,188.42,0,0,1,29.84-18.71C2734.76,1339.81,2771.23,1316.37,2803.75,1287.09Zm-983.56-361.9c3.79-8.53,11.84-17.68,10.65-25.42-3.86-24.07-7.65-49.33-18.15-70.8-13.89-28.34-37.1-52.1-51.15-80.35-30.94-62.59-74.19-115.64-123-164.1-43-42.62-99.77-65.75-153.44-89.35-51.94-22.81-110.11-32.68-166.47-43.73-99-19.49-183.12,14.68-257.08,78.93A352.22,352.22,0,0,0,981,631c-17.13,32.12-37.1,63.86-47.44,98.27-14.13,47-20.68,96.45-29.67,145.07-1.5,8.53,1.89,17.84,1.81,26.84-.08,8.21-2.45,16.34-2.53,24.55-.15,10.1-2,27.23,2.06,29,24,10.18,17.91,22.73,3.63,38.59,86,51.23,173.57,93.62,273.89,113.35,0-56,18-105.14,40.25-153.37,5.77-12.31,10.19-27.38,8.69-40.41-2.29-20.05-46.42-30.31-65.52-18.23-8.44,5.37-24.31,12.31-28.1,8.92-8.2-7.42-15.94-21.63-14.68-32,3.08-25.57,7.42-52.49,18.55-75.3,14.45-29.52,35.92-55.65,51.15-78.38-4.5-18.07-9.63-30.62-10.18-43.25-.87-18.79,3.86-37.89,2-56.52-2-19.73,1-32.44,11.21-38.59,5.84-3.56,14.13-5,25.26-4.35,13.89.79,21.15-5,26.68-14.44,24-40.49,65.43-43.41,105-48,20.6-2.45,41.84.87,62.75,2.13,4.9.32,10.5,1.42,14.21,4.26,25.26,19.18,50.67,38.13,74.67,58.81,8.92,7.57,17.52,18.7,20,29.68,4.65,20,6.08,41,6.23,61.48.08,11.68-5.76,23.29-7.26,35.13-2.45,19.41.63,40.49-6.08,58.09-12.78,33.86-.79,66.3.79,99.06.63,13.42,13.58,27.47,23.52,39.07,11.77,13.81,26.29,25.34,39.39,38,23.29,22.41,46,45.3,69.78,67.17,12.55,11.44,26.36,11.44,40.09.23,14-11.28,27.23-24.7,43.26-31.89,31-14,39.94-25.57,39.86-60,0-6.32,6-12.63,9.31-18.95,7.42,3.87,15.79,6.71,21.87,12.16,4.18,3.71,5.21,11,7.65,16.65C1815.53,924.32,1817.82,924.79,1820.19,925.19Zm-201.36,122.89c.4-2.6.87-5.13,1.27-7.65-13.58-13-27.55-25.5-40.57-39-21.08-21.86-40.26-45.78-62.83-65.75-11.13-9.86-30.47-16.41-43-2.68-15.87,17.37-32.44,36.86-39.7,58.49-8,24-7.5,51.38-7.9,77.43-.39,23,21.71,38.91,43.26,32.6q40.85-12,81.06-26.29C1573.53,1067,1596,1057.16,1618.83,1048.08Zm-160.7-153.83c26.21-18.08,29.68-25.82,22.5-58.26-3.48-15.55-4.27-32-4.5-48-.71-34.33-.24-68.74-.24-102.29-17.52,0-38,.95-58.33-.4-14.84-.94-20,7.42-19,18.47,1.5,15.87-3.16,23.21-17.29,32.92-33.78,23.2-56.28,26.44-90.45,5.21-11.13-6.87-24.08-10.82-36.15-16.1,4.73,15.86,13.26,27.31,19.81,39.78,19.1,36.46,18.78,77.35,24.47,116.82.63,4.89-5.77,11-9.4,16.18-2.13,3-6.47,4.65-7.89,7.81-14.29,31.89-28.65,63.7-42.07,95.9-14.68,35.28-21.94,71.51-8.84,112.72h159.6c0-38.21-2.53-73.88.55-109.09C1395.14,958.81,1419.3,921.16,1458.13,894.25Zm-8.6-305.15c-8.76-8.45-16.89-20-28-26.21-24.54-13.89-51.7-17.84-79.24-9.63-15.63,4.66-30.23,13.18-45.86,17.84-15.08,4.5-17.44,12.95-13.66,26,12.63,0,24.63-2,35.68.31C1362.31,606.46,1406,621.54,1449.53,589.1ZM1244.46,790.61c-9.39-10.58-16.41-20-25-27.55-3.31-2.92-13.65-4.18-14.92-2.21-9.07,13.58-16.65,28.18-25.49,44C1205.55,811.92,1224.34,803.71,1244.46,790.61Z"/><path class="cls-3" d="M2798.93,1190.24c29.52,20.44,31.81,72.61,4.82,96.85-32.52,29.28-69,52.72-108.37,72a188.42,188.42,0,0,0-29.84,18.71c-45.39,34.25-96.45,56.43-150,74.75-70.41,24-144.13,26.75-216.74,33.38a1571.3,1571.3,0,0,0-189,29c-26.53,5.68-54.7,3.79-82.17,5.45-80.2,4.73-160.47,10.18-240.74,14.13-26.6,1.26-53.28,1.34-80,1.65l-.16-13.18c15.24,0,30.63-1.81,45.86-4,32.21-4.66,49.49-24.55,53.91-60.23,3.08-24.23-11.21-39.23-46.49-52.41,7.74-.55,15.47-1.42,23.29-1.73,25.57-1.11,51.38,0,76.64-3.32,85.64-11.37,170.81-25.89,256.52-36.15,81.38-9.87,161.73-23.21,240-47.67,46-14.45,92.12-28.66,138.77-40.65,37-9.55,74.66-19.34,112.55-22.26,36.39-2.77,71.51-21.08,109.87-8.53,10.82,3.55,21.71-8,22.1-22.18.32-13.42-7.42-20.36-20.28-21.86-4.58-.47-9.32-1.18-13.74-.55-16.57,2.21-33.07,5-49.56,7.42-29.68,4.34-59.75,7-89,13.49-26.52,5.84-56.83,1.27-78,25-1.9,2.13-7.27.86-10.9,1.65-26.28,5.69-53.12,9.32-78.45,17.6-33.39,10.9-64.57,29.76-98.51,37.42-65.43,14.84-132,25.41-198.43,35.44-63.15,9.55-126.69,17.21-190.31,23.68-60.22,6.15-120.76,10.89-181.22,13.89-48.7,2.45-97.56,1.26-146.26,2q-53.64.94-107.27,2.76c-38.36,1.19-78.22-3.39-114.76,5.45-62.6,15.23-125.58,15.94-188.81,17-42.23.71-84.53-3.87-126.92-5.13-49.33-1.42-98.74-1-148.07-2.84-30.23-1.11-60.39-6.39-90.62-7-61.17-1.26-122.34,10.5-183.67-3.47-35-8-72.06-7.58-106.24-17.6-49.81-14.68-99.77-26-151.31-32.13-46.1-5.44-91.88-13.89-137.66-21.47-23.76-3.86-48.62-5.44-70.56-14.2-17.21-6.79-33.31-8-50.52-7.34-14.84.47-19.73,12.07-18.31,22.89,1.26,9.78,2.21,22.65,20.76,22.18,22.49-.64,45.15,4.49,67.8,7.1.24,2,.55,4.1.87,6.16-16.18,7.73-33.63,13.65-48.15,23.83-9.08,6.32-16,18.24-19.34,29-1.18,4,9.87,15.63,17,17.52,21.39,5.61,43.18,10,65.44-.16,38.44-17.36,44.59-31.49,25.73-71.74L427,1376.12c-12.78,3.55-25.1,3.24-36.7,5.84-30.47,6.87-48.31,31.57-41.44,55.49,5.29,18.07,18.39,29.52,35.68,32l-1.5,13.57c-24-2.76-47.91-5.44-71.91-8-39.62-4.42-80-3.47-119.18-9.55-40.5-6.24-80.36-17.21-120-28.1-16.89-4.66-26.28-26.28-23.76-44.36,1.11-7.81,1.27-15.71,2-23.52,1.5-17.52,4.42-35.12,4.42-52.65-.08-35.75,21.47-52.88,51.06-65.75,43.65-19,85.64-42.07,130-59.12,53.36-20.44,108.61-36.07,162.92-54.38C437.47,1124.49,476,1110,515,1097c63.78-21.23,127.55-42.7,191.88-62,42.47-12.79,86.27-21.23,129-33.23,13.26-3.71,22.1.32,32.67,6.63C898,1026.06,928,1043,957.94,1059.76c22,12.24,44,24.87,66.86,35.29,19.49,8.84,40.09,15.7,60.62,21.86,33.07,9.95,66.46,19.1,99.92,27.55,9.87,2.52,20.6,2.13,31,2.52,49.1,1.58,98.43,6.08,147.37,3.63,78.06-3.86,154.39-18.47,226.53-50.75,43.49-19.42,87.93-36.31,126.29-66.14,24.23-18.87,52.73-32.05,78.3-49.26,11.68-7.89,20.84-19.41,33.7-31.73,12.87,8.84,31.5.79,50,1.19,59.35,1.42,118.55,8.52,177.83,13.65,12.39,1.11,24.86,2.13,36.94,4.74,50.51,11,101.19,21.23,151.23,34.25,77.83,20.37,155,42.86,232.61,64.1,45.39,12.47,91.88,21.7,136.08,37.25,49.8,17.6,97.72,40.41,146.26,61.49C2773.12,1175.32,2786.78,1181.87,2798.93,1190.24Zm-145.31,177.12c32.68-22,37.49-36.7,19.42-72.3a14.46,14.46,0,0,1-1.74-7.58c.71-9.63-1.34-18.39-12.71-17.29-8.52.79-16.89,5.06-24.86,8.84-6.63,3.16-12.15,8.85-18.94,11.53-23.92,9.79-49.57,16.34-72.07,28.65-23.52,12.79-30.07,39.31-14.91,55.57,9.39,10.18,24.62,15,37.25,22.18C2598.76,1394.27,2627.1,1385.2,2653.62,1367.36Zm-205.06,26.13c6-20.84-6.79-33-20.21-45.07-12.07-10.82-22.26-6.48-32.36,3-3.24,3.08-7.66,7-11.29,6.87-24-1.1-41.83,12.16-61,23.37-22.42,13.1-31.42,29.44-25.57,50.67,4.18,15,27.54,29.44,48.93,28.89,9.55-2,21.55-2.92,32.36-7.11C2409.65,1442.34,2438.45,1428.45,2448.56,1393.49Zm-300.81,62.43c10.89-17.37,2.69-37.73-16.73-44.52-14.53-5.13-30.23-7.73-45.62-9.47-5.29-.63-11.37,4.26-16.82,7.26-4.73,2.69-8.76,6.47-13.41,9.24-11.77,7-24.55,12.63-35.44,20.68-20.45,15.07-22.42,44.59-3.16,56.43,13.5,8.29,29.68,12.32,44.67,18.24C2103.08,1511.72,2128.18,1487,2147.75,1455.92Z"/><path class="cls-2" d="M2719.53,1201.92c12.86,1.5,20.6,8.44,20.28,21.86-.39,14.21-11.28,25.73-22.1,22.18-38.36-12.55-73.48,5.76-109.87,8.53-37.89,2.92-75.54,12.71-112.55,22.26-46.65,12-92.75,26.2-138.77,40.65-78.3,24.46-158.65,37.8-240,47.67-85.71,10.26-170.88,24.78-256.52,36.15-25.26,3.32-51.07,2.21-76.64,3.32-7.82.31-15.55,1.18-23.29,1.73,35.28,13.18,49.57,28.18,46.49,52.41-4.42,35.68-21.7,55.57-53.91,60.23-15.23,2.21-30.62,4-45.86,4-21,0-41.75-3.47-61.41-14.21-24.07-13.18-23.75-38.51-.07-52.56,11.76-7,25-11.29,36.46-18.63,7.9-5,13.81-13.26,20.6-20-1.34-1.34-2.76-2.68-4.1-4-38.36,0-76.8-.15-115.16.08-26,.08-52.41,3-78.22.56-7.9-.71-15.87-1.27-23.76-1.58-51.86-1.9-102.93,5.36-153.68,14-50.2,8.6-100.16,7.81-150.52,7.26-19.34-.16-38.68,1.58-57.94,1.58-19.89,0-39.7,0-59.59-.16-23.6-.16-47.2-.4-70.8-1.11-40.49-1.1-81-4.65-121.48-5.76-37.09-1-74.19-.23-110.74-.23,0,0,1.19,2,2.53,3.94,8.92,12.24,23.52,23.21,11.84,41.13-14.29,21.94-37.18,35-57.78,31.09a39.92,39.92,0,0,1-7.1-2.13,194.87,194.87,0,0,1-51.15-30.07c-12.39-10.34-9.71-23.21,6.24-31.18,7.49-3.71,14.28-8.84,18.54-11.52l-234.58-43.1c.32.16,2.92,3.55,5.53,3.48,22.65-.48,27.62,17.75,29.6,32.83,1.89,14.52-10.27,23.6-25.18,27.94-14.29,4.11-27.63,11.37-41.84,16-10.26,3.31-19.89,4.26-28.49,3-17.29-2.53-30.39-14-35.68-32-6.87-23.92,11-48.62,41.44-55.49,11.6-2.6,23.92-2.29,36.7-5.84l-206.4-26.28c18.86,40.25,12.71,54.38-25.73,71.74-22.26,10.11-44.05,5.77-65.44.16-7.1-1.89-18.15-13.49-17-17.52,3.32-10.81,10.26-22.73,19.34-29,14.52-10.18,32-16.1,48.15-23.83-.32-2.06-.63-4.11-.87-6.16-22.65-2.61-45.31-7.74-67.8-7.1-18.55.47-19.5-12.4-20.76-22.18-1.42-10.82,3.47-22.42,18.31-22.89,17.21-.64,33.31.55,50.52,7.34,21.94,8.76,46.8,10.34,70.56,14.2,45.78,7.58,91.56,16,137.66,21.47,51.54,6.16,101.5,17.45,151.31,32.13,34.18,10,71.27,9.63,106.24,17.6,61.33,14,122.5,2.21,183.67,3.47,30.23.56,60.39,5.84,90.62,7,49.33,1.81,98.74,1.42,148.07,2.84,42.39,1.26,84.69,5.84,126.92,5.13,63.23-1,126.21-1.74,188.81-17,36.54-8.84,76.4-4.26,114.76-5.45q53.64-1.77,107.27-2.76c48.7-.79,97.56.4,146.26-2,60.46-3,121-7.74,181.22-13.89,63.62-6.47,127.16-14.13,190.31-23.68,66.46-10,133-20.6,198.43-35.44,33.94-7.66,65.12-26.52,98.51-37.42,25.33-8.28,52.17-11.91,78.45-17.6,3.63-.79,9,.48,10.9-1.65,21.15-23.68,51.46-19.11,78-25,29.21-6.47,59.28-9.15,89-13.49,16.49-2.45,33-5.21,49.56-7.42C2710.21,1200.74,2715,1201.45,2719.53,1201.92Zm-955.15,280.2c12.4-8.6,15.16-26,5-35-9.94-8.84-44.35-10.26-48.93,1-8.13,20-25.1,20-40.34,25.49-5.13,1.9-9.78,5-14.68,7.66.16,2.13.32,4.18.55,6.23,8.53,2.13,17,4.34,25.66,6.48C1717.58,1500.28,1742,1497.75,1764.38,1482.12ZM688.71,1462.87c21.86,19.65,40.65,19.89,50.75-3.79-17.68-1.19-33.86-2.29-50-3.32C689.26,1458.13,689,1460.5,688.71,1462.87Zm-264.1-28.26c-.08-2.37-.08-4.74-.16-7.11-7.42-3.63-14.6-9.07-22.34-10.1-5.29-.79-11.45,4.66-17.13,7.26,3.63,5.21,6.95,14.37,11,14.68C405.35,1440,415.05,1436.42,424.61,1434.61Zm-236.4-44.12c1-.64-.56-5.53-1-8.45-9.63,1.66-19.34,3.32-33.7,5.76C169.5,1402.64,179.05,1395.93,188.21,1390.49Z"/><path class="cls-2" d="M2673,1295.06c18.07,35.6,13.26,50.28-19.42,72.3-26.52,17.84-54.86,26.91-88.56,29.6-12.63-7.18-27.86-12-37.25-22.18-15.16-16.26-8.61-42.78,14.91-55.57,22.5-12.31,48.15-18.86,72.07-28.65,6.79-2.68,12.31-8.37,18.94-11.53,8-3.78,16.34-8,24.86-8.84,11.37-1.1,13.42,7.66,12.71,17.29A14.46,14.46,0,0,0,2673,1295.06Zm-27.94,37.17c-26.76-16.18-51.78-6.78-76.17,6-4.66,2.45-9.39,7.9-10.5,12.79-.63,3,4.74,9.08,8.84,11.13C2588,1372.49,2635.55,1353.55,2645.1,1332.23Z"/><path class="cls-1" d="M2568.93,1338.23c24.39-12.78,49.41-22.18,76.17-6-9.55,21.32-57.15,40.26-77.83,29.92-4.1-2.05-9.47-8.13-8.84-11.13C2559.54,1346.13,2564.27,1340.68,2568.93,1338.23Z"/><path class="cls-2" d="M2462.45,201.78c20.92,3.16,29.68,31.73,12.39,47.68-18.55,17-40.73,30.15-62,43.72-18.55,11.92-38.59,21.47-57,33.55-4.34,2.76-6.39,11.21-6.78,17.29-2.61,46.25-3.16,92.74-7.27,138.92-3,34.17-7.81,68.27-25.49,99.37-17.13,30.15-56.36,52.49-90.06,48.23-14.29-1.82-33.15-22.66-32.68-37.18,1.42-39.7,23-68.51,53.44-90.53,18.07-13.11,36.54-9,44,7a25.69,25.69,0,0,1,1.74,12.95,22.11,22.11,0,0,1-2.61,8.44c-2.6,4.42-12,7.26-18.07,6.71-20.68-1.82-49.89,33.15-41.28,51.78,1.81,3.95,10.57,7.18,15.63,6.55,21.07-2.6,46.57-27.07,50.2-50,1.18-7.42,2.29-14.92,3.31-22.34,6.79-45.15,12.63-90.53,18.87-135.76.71-5.21.55-10.5.86-15.71.79-.08,1.66-.24,2.53-.31-2.53-18.63-6.55-37.18-7.1-55.89-.4-13.26,4.5-26.68,6.07-40.09,3-25.5,1.11-49-22-66.78-7.18-5.45-14.68-14.92-5.29-27.15,9.48-12.39,21.63-15.55,32.6-8.13,28.1,19.1,61.25,14.92,91.72,22.65C2432.38,200.36,2447.69,199.57,2462.45,201.78Zm-23,36.07c-.71-2.36-1.34-4.81-2.05-7.18-28.26-4-56.59-8-87.77-12.55,2.21,25.18,3.94,45.54,6.15,71C2386.28,270.45,2412.88,254.19,2439.48,237.85Z"/><path class="cls-2" d="M2428.35,1348.42c13.42,12.07,26.21,24.23,20.21,45.07-10.11,35-38.91,48.85-69.15,60.61-10.81,4.19-22.81,5.13-32.36,7.11-21.39.55-44.75-13.89-48.93-28.89-5.85-21.23,3.15-37.57,25.57-50.67,19.18-11.21,37-24.47,61-23.37,3.63.16,8.05-3.79,11.29-6.87C2406.09,1341.94,2416.28,1337.6,2428.35,1348.42Zm-13.18,48c2.21-4.58-.32-11.45-.63-17.21-4.82,2.52-11.13,3.87-14,7.81-8.61,11.76-17.13,17-33.07,12.71-9-2.45-21.08,2.92-30.47,7.42-3.79,1.89-6.87,11.68-5.37,16.26s9.16,7.34,11.45,8.92C2363.94,1432.63,2408.78,1409.9,2415.17,1396.41Z"/><path class="cls-1" d="M2437.43,230.67c.71,2.37,1.34,4.82,2.05,7.18-26.6,16.34-53.2,32.6-83.67,51.31-2.21-25.5-3.94-45.86-6.15-71C2380.84,222.62,2409.17,226.65,2437.43,230.67Z"/><path class="cls-1" d="M2414.54,1379.2c.31,5.76,2.84,12.63.63,17.21-6.39,13.49-51.23,36.22-72.06,35.91-2.29-1.58-10-4.26-11.45-8.92s1.58-14.37,5.37-16.26c9.39-4.5,21.47-9.87,30.47-7.42,15.94,4.34,24.46-1,33.07-12.71C2403.41,1383.07,2409.72,1381.72,2414.54,1379.2Z"/><path class="cls-2" d="M2131,1411.4c19.42,6.79,27.62,27.15,16.73,44.52-19.57,31.1-44.67,55.8-86.51,57.86-15-5.92-31.17-10-44.67-18.24-19.26-11.84-17.29-41.36,3.16-56.43,10.89-8,23.67-13.66,35.44-20.68,4.65-2.77,8.68-6.55,13.41-9.24,5.45-3,11.53-7.89,16.82-7.26C2100.79,1403.67,2116.49,1406.27,2131,1411.4Zm-7.74,34.1c-7.5-.55-14.13.16-20.05-1.58-20.91-6.23-38.67,1.11-55.17,12.63-5.21,3.71-8.37,10.42-12.39,15.71,6.71,3.08,13.42,8.6,20.28,8.92C2084.13,1482.2,2107.89,1473,2123.28,1445.5Z"/><path class="cls-1" d="M2103.23,1443.92c5.92,1.74,12.55,1,20.05,1.58-15.39,27.47-39.15,36.7-67.33,35.68-6.86-.32-13.57-5.84-20.28-8.92,4-5.29,7.18-12,12.39-15.71C2064.56,1445,2082.32,1437.69,2103.23,1443.92Z"/><path class="cls-2" d="M2024.93,315.44c4.5.71,11.45,7.34,11.37,11.13-.16,7.82-1.89,18.79-7.18,22.58-14.21,10.1-30.15,18.15-46.18,25-25.73,11-52.49,19.49-78.14,30.62-24.47,10.66-27.23,20.92-20.6,47.6,4.26,17.28,9.31,35.75,7.34,52.88-4,34.65-25.18,59.67-56,75.22-24.15,12.16-49.33,3.63-58.33-21.47-10.5-29.28-7.66-58.88,8.76-86.19,8.68-14.52,20.92-20.68,38-17.44,6.78,1.26,14,.23,20.44.23,0-28.09-1.34-52.8.39-77.35,1.9-25,6.32-50,11-74.59.79-4.1,9.71-9.94,14.13-9.39Q1947.66,303.76,2024.93,315.44Zm-139.55,52.73c28.66-9.87,59.36-6.24,85.88-25.65C1915,321.84,1884,333,1885.38,368.17ZM1838.5,535.42c5.13-4.57,9.23-14.2,8.13-20.6-1.58-8.92-8.37-16.89-13-25.33-23.76,2.13-26.45,5.44-26.37,39.07.08,6.23,4.26,12.47,6.55,18.7C1822.16,543.48,1832,541.27,1838.5,535.42Z"/><path class="cls-1" d="M1971.26,342.52c-26.52,19.41-57.22,15.78-85.88,25.65C1884,333,1915,321.84,1971.26,342.52Z"/><path class="cls-2" d="M1918.54,35.79c.15,11.76,3.55,26.44-14.76,29.36-16.11,2.53-32.6,3.48-48.39,7.42-25.65,6.55-50.83,15-77.83,23.13,0,24.86,1.11,47.67-.23,70.41-2.61,43.72-66,78.22-109.87,70.64-14.69-2.53-28.26-23-23.45-38.05,10.74-33.78,23.68-66.85,58.81-83.9,3.47-1.74,7.42-4.26,10.89-4,24.94,2.37,28.1-12.39,25.49-31.65-1.89-13.89-2.6-28.26-7-41.44-3.87-11.52-11.45-24,1.26-31.33,9.87-5.69,24.39-7.74,35.76-5.61,43.25,8,84.53,27.16,129.84,22.42C1909.77,22.14,1918.38,23.48,1918.54,35.79Zm-183,139.63c7.34-8,14.45-19,3.87-26.84-5.84-4.26-21.15-3.55-26.68,1.27-10.73,9.31-17.76,23-25.89,35.12-2.29,3.32-5.13,8.45-3.94,11.29,1.1,2.68,6.31,3.79,6.31,3.63C1714.26,202.41,1724.29,187.73,1735.57,175.42Z"/><path class="cls-1" d="M1846.63,514.82c1.1,6.4-3,16-8.13,20.6-6.47,5.85-16.34,8.06-24.71,11.84-2.29-6.23-6.47-12.47-6.55-18.7-.08-33.63,2.61-36.94,26.37-39.07C1838.26,497.93,1845.05,505.9,1846.63,514.82Z"/><path class="cls-1" d="M1830.84,899.77c1.19,7.74-6.86,16.89-10.65,25.42-2.37-.4-4.66-.87-7-1.27-2.44-5.68-3.47-12.94-7.65-16.65-6.08-5.45-14.45-8.29-21.87-12.16-3.31,6.32-9.31,12.63-9.31,18.95.08,34.41-8.84,45.94-39.86,60-16,7.19-29.29,20.61-43.26,31.89-13.73,11.21-27.54,11.21-40.09-.23-23.76-21.87-46.49-44.76-69.78-67.17-13.1-12.63-27.62-24.16-39.39-38-9.94-11.6-22.89-25.65-23.52-39.07-1.58-32.76-13.57-65.2-.79-99.06,6.71-17.6,3.63-38.68,6.08-58.09,1.5-11.84,7.34-23.45,7.26-35.13-.15-20.52-1.58-41.52-6.23-61.48-2.53-11-11.13-22.11-20-29.68-24-20.68-49.41-39.63-74.67-58.81-3.71-2.84-9.31-3.94-14.21-4.26-20.91-1.26-42.15-4.58-62.75-2.13-39.62,4.58-81.06,7.5-105,48-5.53,9.39-12.79,15.23-26.68,14.44-11.13-.63-19.42.79-25.26,4.35l-19.5-13c9.32-6.79,16.58-23.76,15.08-34.89-1-6.94-19.42-13.1-30.94-16.49-10.34-3.08-22-1.9-33.15-2.61L1125,508c-12.94,8.76-26.52,16.73-38.83,26.36a94.87,94.87,0,0,0-11.68,10.73l-13-14.68c74-64.25,158.1-98.42,257.08-78.93,56.36,11.05,114.53,20.92,166.47,43.73,53.67,23.6,110.42,46.73,153.44,89.35,48.86,48.46,92.11,101.51,123,164.1,14,28.25,37.26,52,51.15,80.35C1823.19,850.44,1827,875.7,1830.84,899.77Z"/><path class="cls-1" d="M1769.43,1447.08c10.11,9.08,7.35,26.44-5,35-22.41,15.63-46.8,18.16-72.69,11.77-8.61-2.14-17.13-4.35-25.66-6.48-.23-2.05-.39-4.1-.55-6.23,4.9-2.61,9.55-5.76,14.68-7.66,15.24-5.52,32.21-5.52,40.34-25.49C1725.08,1436.82,1759.49,1438.24,1769.43,1447.08Z"/><path class="cls-1" d="M1689.24,199.89c0,.16-5.21-.95-6.31-3.63-1.19-2.84,1.65-8,3.94-11.29,8.13-12.16,15.16-25.81,25.89-35.12,5.53-4.82,20.84-5.53,26.68-1.27,10.58,7.82,3.47,18.79-3.87,26.84C1724.29,187.73,1714.26,202.41,1689.24,199.89Z"/><path class="cls-3" d="M1706.76,1522.93l.16,13.18c-19.65.16-39.31.48-59,1.42-62,2.92-123.84,6.71-185.73,11.84l-17.91,1.42-1.19-17.12c35.13-3,58.65-25.18,80.83-46.57,20.6-19.81,12.94-39.94-12.31-51.86a72.2,72.2,0,0,0-31.18-6.79l.63-15.94c7.89.31,15.86.87,23.76,1.58,25.81,2.44,52.17-.48,78.22-.56,38.36-.23,76.8-.08,115.16-.08,1.34,1.35,2.76,2.69,4.1,4-6.79,6.79-12.7,15-20.6,20-11.44,7.34-24.7,11.68-36.46,18.63-23.68,14-24,39.38.07,52.56C1665,1519.46,1685.77,1522.93,1706.76,1522.93Z"/><path class="cls-4" d="M1620.1,1040.43c-.4,2.52-.87,5-1.27,7.65-22.81,9.08-45.3,18.87-68.43,27.15q-40.14,14.34-81.06,26.29c-21.55,6.31-43.65-9.63-43.26-32.6.4-26.05-.15-53.44,7.9-77.43,7.26-21.63,23.83-41.12,39.7-58.49,12.55-13.73,31.89-7.18,43,2.68,22.57,20,41.75,43.89,62.83,65.75C1592.55,1014.93,1606.52,1027.48,1620.1,1040.43Z"/><path class="cls-2" d="M1511.65,1435.24c25.25,11.92,32.91,32,12.31,51.86-22.18,21.39-45.7,43.57-80.83,46.57-2.36.15-4.73.31-7.18.31-20.13-6.71-41.28-11.44-59.91-21.07-8.6-4.5-19.34-21.39-16.81-27.71,5.84-14.68,18.78-26.75,29.84-39,3.07-3.31,9.62-4.73,14.68-4.89,25.81-1.11,50.75-12.87,76.72-12.87A72.2,72.2,0,0,1,1511.65,1435.24Zm-18.87,50.36c5.21-4.58,6.63-13.34,9.87-20.21-5.69-2.45-11.13-5.92-17.05-7.34-8.84-2-18-2.53-29.36-4-4.27,17.45-13,23.76-30.24,17-5.52-2.21-14,1.11-20.44,3.71-4.26,1.66-7.26,6.56-10.89,10,3.39,3.39,6.16,7.81,10.18,9.94C1436.27,1511.25,1467.44,1508.41,1492.78,1485.6Z"/><path class="cls-1" d="M1502.65,1465.39c-3.24,6.87-4.66,15.63-9.87,20.21-25.34,22.81-56.51,25.65-87.93,9.15-4-2.13-6.79-6.55-10.18-9.94,3.63-3.47,6.63-8.37,10.89-10,6.4-2.6,14.92-5.92,20.44-3.71,17.29,6.79,26,.48,30.24-17,11.36,1.42,20.52,2,29.36,4C1491.52,1459.47,1497,1462.94,1502.65,1465.39Z"/><path class="cls-4" d="M1480.63,836c7.18,32.44,3.71,40.18-22.5,58.26-38.83,26.91-63,64.56-67.25,111.68-3.08,35.21-.55,70.88-.55,109.09h-159.6c-13.1-41.21-5.84-77.44,8.84-112.72,13.42-32.2,27.78-64,42.07-95.9,1.42-3.16,5.76-4.81,7.89-7.81,3.63-5.21,10-11.29,9.4-16.18-5.69-39.47-5.37-80.36-24.47-116.82-6.55-12.47-15.08-23.92-19.81-39.78,12.07,5.28,25,9.23,36.15,16.1,34.17,21.23,56.67,18,90.45-5.21,14.13-9.71,18.79-17.05,17.29-32.92-1-11,4.18-19.41,19-18.47,20.36,1.35,40.81.4,58.33.4,0,33.55-.47,68,.24,102.29C1476.36,804,1477.15,820.44,1480.63,836Z"/><path class="cls-3" d="M1481.1,1412.51l-.63,15.94c-26,0-50.91,11.76-76.72,12.87-5.06.16-11.61,1.58-14.68,4.89-11.06,12.24-24,24.31-29.84,39-2.53,6.32,8.21,23.21,16.81,27.71,18.63,9.63,39.78,14.36,59.91,21.07,2.45,0,4.82-.16,7.18-.31l1.19,17.12c-71.83,5.06-143.26,5.37-215.17-4.49-41.91-5.69-85.09-2.06-127.71-2.14-14.37,0-28.65.24-42.94.56l-.31-19.34c21.07,0,36.23-15.87,36.94-42,.47-18.79-17.37-35.76-35.76-35.76v-12.39c19.89.16,39.7.16,59.59.16,19.26,0,38.6-1.74,57.94-1.58,50.36.55,100.32,1.34,150.52-7.26C1378.17,1417.87,1429.24,1410.61,1481.1,1412.51Z"/><path class="cls-4" d="M1421.58,562.89c11.06,6.24,19.19,17.76,28,26.21-43.49,32.44-87.22,17.36-131,8.36-11-2.28-23-.31-35.68-.31-3.78-13.1-1.42-21.55,13.66-26,15.63-4.66,30.23-13.18,45.86-17.84C1369.88,545.05,1397,549,1421.58,562.89Z"/><path class="cls-1" d="M1231.68,913c1.5,13-2.92,28.1-8.69,40.41-22.25,48.23-40.25,97.41-40.25,153.37-100.32-19.73-187.86-62.12-273.89-113.35,14.28-15.86,20.36-28.41-3.63-38.59-4.11-1.82-2.21-18.95-2.06-29,.08-8.21,2.45-16.34,2.53-24.55.08-9-3.31-18.31-1.81-26.84,9-48.62,15.54-98,29.67-145.07C943.89,694.87,963.86,663.13,981,631a352.22,352.22,0,0,1,80.51-100.64l13,14.68c-15.4,16.5-24.63,37.18-31.73,58.57-2.77,8.13.47,19.81,4.57,27.94,1.82,3.48,13.11,3.32,20,2.69,10.11-.79,21.55-7.5,30-4.66,27.31,9.47,42.7,5.6,49.64-22.58,4.74-19.33,14.69-29.36,29.68-40.33l19.5,13c-10.26,6.15-13.18,18.86-11.21,38.59,1.89,18.63-2.84,37.73-2,56.52.55,12.63,5.68,25.18,10.18,43.25-15.23,22.73-36.7,48.86-51.15,78.38-11.13,22.81-15.47,49.73-18.55,75.3-1.26,10.34,6.48,24.55,14.68,32,3.79,3.39,19.66-3.55,28.1-8.92C1185.26,882.64,1229.39,892.9,1231.68,913ZM1103.89,680.26c6.79-19.34-3-35.91-23.45-36.38-10.34-.24-20.68,0-31,0-38.2-.16-49.88,12.62-46,49.64,1.1,10.58,1,22.5-2.69,32.29-14.84,39.23-6.55,75.77,12.32,110.5,4.5,8.13,16.65,17.68,24.47,17.05,12.15-1,21.07-11.76,19.49-26.92a33.33,33.33,0,0,1,1.9-13.26C1073.66,768.82,1088.26,724.39,1103.89,680.26Z"/><path class="cls-1" d="M1219.44,763.06c8.61,7.58,15.63,17,25,27.55-20.12,13.1-38.91,21.31-65.43,14.29,8.84-15.87,16.42-30.47,25.49-44C1205.79,758.88,1216.13,760.14,1219.44,763.06Z"/><path class="cls-2" d="M1191.66,531.79c1.5,11.13-5.76,28.1-15.08,34.89-15,11-24.94,21-29.68,40.33-6.94,28.18-22.33,32-49.64,22.58-8.45-2.84-19.89,3.87-30,4.66-6.86.63-18.15.79-20-2.69-4.1-8.13-7.34-19.81-4.57-27.94,7.1-21.39,16.33-42.07,31.73-58.57a94.87,94.87,0,0,1,11.68-10.73c12.31-9.63,25.89-17.6,38.83-26.36l2.61,4.73c11.13.71,22.81-.47,33.15,2.61C1172.24,518.69,1190.71,524.85,1191.66,531.79Z"/><path class="cls-2" d="M1080.44,643.88c20.45.47,30.24,17,23.45,36.38-15.63,44.13-30.23,88.56-45,132.92a33.33,33.33,0,0,0-1.9,13.26c1.58,15.16-7.34,25.89-19.49,26.92-7.82.63-20-8.92-24.47-17.05-18.87-34.73-27.16-71.27-12.32-110.5,3.71-9.79,3.79-21.71,2.69-32.29-3.87-37,7.81-49.8,46-49.64C1059.76,643.88,1070.1,643.64,1080.44,643.88Zm-20.75,55.56c1.1-3.15-2.14-7.73-3.32-11.68-3.47,1.19-9.31,1.74-9.87,3.71-7,25.73-13.26,51.62-19.65,77.51l6.24,1.66C1042.08,747,1051.32,723.36,1059.69,699.44Z"/><path class="cls-2" d="M1059.37,1447.63c18.39,0,36.23,17,35.76,35.76-.71,26.12-15.87,42-36.94,42a51.23,51.23,0,0,1-18.24-3.63c-6.86-2.69-15.15-2-22.81-2.29-11.68-.32-23.68,1.26-35.2-.32-26.6-3.63-35.44-25.25-16.5-44.12,10.66-10.58,26.92-17,41.76-21.23,15.39-4.42,32.2-3.79,48.3-5.92A31.53,31.53,0,0,1,1059.37,1447.63Z"/><path class="cls-1" d="M1056.37,687.76c1.18,4,4.42,8.53,3.32,11.68-8.37,23.92-17.61,47.52-26.6,71.2l-6.24-1.66c6.39-25.89,12.63-51.78,19.65-77.51C1047.06,689.5,1052.9,689,1056.37,687.76Z"/><path class="cls-3" d="M1059.37,1435.24v12.39a31.53,31.53,0,0,0-3.87.24c-16.1,2.13-32.91,1.5-48.3,5.92-14.84,4.26-31.1,10.65-41.76,21.23-18.94,18.87-10.1,40.49,16.5,44.12,11.52,1.58,23.52,0,35.2.32,7.66.24,15.95-.4,22.81,2.29a51.23,51.23,0,0,0,18.24,3.63l.31,19.34c-50.83.94-101.58,2.37-152.41-6.16-36.94-6.16-75.38-3.31-112.88-6.79-27.62-2.6-55.09-6.39-82.64-10.18l2.37-17.29c20.6,3.87,43.49-9.15,57.78-31.09,11.68-17.92-2.92-28.89-11.84-41.13-1.34-1.89-2.53-3.94-2.53-3.94,36.55,0,73.65-.79,110.74.23,40.5,1.11,81,4.66,121.48,5.76C1012.17,1434.84,1035.77,1435.08,1059.37,1435.24Z"/><path class="cls-1" d="M739.46,1459.08c-10.1,23.68-28.89,23.44-50.75,3.79.24-2.37.55-4.74.79-7.11C705.6,1456.79,721.78,1457.89,739.46,1459.08Z"/><path class="cls-3" d="M712.94,1504.3l-2.37,17.29c-14.2-2-28.49-3.87-42.78-5.68-20.6-2.53-41.36-4.19-62-6.63-74.27-8.69-148.47-17.68-222.74-26.21l1.5-13.57c8.6,1.26,18.23.31,28.49-3,14.21-4.58,27.55-11.84,41.84-16,14.91-4.34,27.07-13.42,25.18-27.94-2-15.08-6.95-33.31-29.6-32.83-2.61.07-5.21-3.32-5.53-3.48l234.58,43.1c-4.26,2.68-11.05,7.81-18.54,11.52-15.95,8-18.63,20.84-6.24,31.18a194.87,194.87,0,0,0,51.15,30.07A39.92,39.92,0,0,0,712.94,1504.3Z"/><path class="cls-1" d="M424.45,1427.5c.08,2.37.08,4.74.16,7.11-9.56,1.81-19.26,5.37-28.66,4.73-4-.31-7.34-9.47-11-14.68,5.68-2.6,11.84-8.05,17.13-7.26C409.85,1418.43,417,1423.87,424.45,1427.5Z"/><path class="cls-1" d="M187.26,1382c.39,2.92,2,7.81,1,8.45-9.16,5.44-18.71,12.15-34.65-2.69C167.92,1385.36,177.63,1383.7,187.26,1382Z"/></g></g></svg>