<svg xmlns="http://www.w3.org/2000/svg" viewBox="0 0 307.38 417.41"><defs><style>.cls-1{isolation:isolate;}.cls-2{fill:#f8ed43;mix-blend-mode:multiply;}.cls-3{fill:#fff;}.cls-4{fill:#97d9e9;}.cls-5{fill:#c4de92;}</style></defs><g class="cls-1"><g id="Layer_2" data-name="Layer 2"><g id="Layer_1-2" data-name="Layer 1"><path class="cls-2" d="M165.08,141.44,264,347.66A32.16,32.16,0,0,1,250,390c-40,21.07-118.27,49.64-185.72-.76a32.14,32.14,0,0,1-11.41-35.42L117.09,149.8"/><circle class="cls-3" cx="242.07" cy="60.49" r="4.86"/><path d="M306.94,128.77c.6.57.49,2.24.25,3.31-.63,2.83-1.59,5.6-2.25,8.44-.42,1.79-1.23,2.56-3.09,3.31-3.81,1.53-7.27,3.92-10.93,5.84-6,3.15-11.85,6.79-18.16,9.17a66.45,66.45,0,0,1-18.54,3.64c-10.36.79-20.64,2.41-31,3.58-3.35.38-6.73.48-10.11.7a4.38,4.38,0,0,0,0-.51c-8.6.75-17.2,1.62-25.81,2.2-3.78.27-7.6-.2-11.39-.07-6.18.21-12.38.36-18.52,1.05a120.28,120.28,0,0,1-25.66-.1,137.62,137.62,0,0,0-16-.2c-7.24.12-14.46.2-21.69-.88-4.91-.75-10-.4-14.93-1-7.3-.84-14.56-2.13-21.86-3.06-4.53-.58-9.1-.84-13.65-1.27-5.54-.51-11.05-1.26-16.59-1.53-6.8-.33-13.34-1.92-19.94-3.28a41.34,41.34,0,0,1-4.68-1.25,3.35,3.35,0,0,1-2.2-4.41c1.52-5,1.3-10.22,1.31-15.38a5,5,0,0,1,4-5.16,45.86,45.86,0,0,0,6.2-1.92c5.62-2.18,11.17-4.55,16.81-6.65,5.33-2,10.76-3.67,16.12-5.57,7.19-2.54,14.27-5.37,21.53-7.67C72,108.28,78.09,107,84,105.48a19.62,19.62,0,0,0,5-1.56,6.23,6.23,0,0,0,2.12-3.14,35.6,35.6,0,0,0,1.18-4.84C93.64,90.3,95.5,84.83,96,79c.25-2.94,2.3-5.77,3.71-8.56s3-5.25,4.42-7.92c1.7-3.24,4.58-5.36,7.07-7.86,3.73-3.73,8.38-6.11,13-8.21A24.27,24.27,0,0,1,134,44.47a73.32,73.32,0,0,1,22.07,3.88,40,40,0,0,1,10.59,4.92A30.34,30.34,0,0,0,172,56.21c3.69,1.6,6.11,4.65,9,7.25,6,5.48,9.33,12.75,13.49,19.48,1,1.66,2.6,3,3.34,4.79a54.4,54.4,0,0,1,2.86,8.91c.32,1.35.75,1.56,2,1.68,6.06.57,12.11,1.33,18.15,2a37,37,0,0,1,4.36.44c5.22,1.23,10.37,2.78,15.62,3.83A80.93,80.93,0,0,1,255.28,109c3.22,1.29,6.81,1.62,10.19,2.53,4.46,1.19,8.81,2.89,13.33,3.69,7.85,1.4,14.39,5.83,21.56,8.77C302.82,124.94,305,126.93,306.94,128.77Zm-6,9.36c2.89-2.6,2.65-8.2-.52-10.38a24.93,24.93,0,0,0-4.24-2.25c-5.2-2.26-10.36-4.71-15.7-6.59-4.74-1.68-9.73-2.66-14.6-4-8.32-2.29-16.62-4.7-25-6.88-5.36-1.39-10.81-2.5-16.23-3.67a29.32,29.32,0,0,0-4-.51c-6.35-.55-12.71-1.31-19.08-1.47-2,0-4,.82-5.37-.12a31.31,31.31,0,0,1-3.61,3.39c-2.74,1.86-5.8,3.27-8.4,5.3-4.13,3.2-8.89,5-13.56,7.1a67.06,67.06,0,0,1-24.31,5.44c-5.26.26-10.54-.22-15.82-.39a16,16,0,0,1-3.33-.27q-5.39-1.36-10.73-3a51.27,51.27,0,0,1-6.49-2.35c-2.46-1.12-4.82-2.47-7.18-3.8-3.23-1.79-6.44-3.6-9.61-5.51a4,4,0,0,0-3.5-.7c-4.59,1.28-9.28,2.19-13.85,3.56-6.9,2.08-13.74,4.38-20.58,6.66-4.2,1.39-8.32,3-12.51,4.36-5.82,2-11.75,3.64-17.48,5.83-4.76,1.82-9.27,4.31-13.95,6.35-3.18,1.38-5.49,3.21-5.49,7.05,0,1.89-.3,3.77-.47,5.66-.07.83-.09,1.68-.2,2.51-.27,1.94.73,4.27,2.55,4.77a116.45,116.45,0,0,0,12.86,3c4.22.65,8.54.55,12.8,1l7.72.87c8,.92,15.94,1.89,23.91,2.82,2.21.26,4.44.43,6.66.71l4.59.61c3,.4,5.9.81,8.86,1.08,4,.39,8.15.07,12.12.74,5.46.92,10.91.76,16.35.65,1.54,0,3.08-.05,4.61-.05,4.58,0,9.22-.38,13.71.23a111.46,111.46,0,0,0,23.09.48l1.93-.16c6.64-.55,13.29-.95,19.94-1.27,2.1-.09,4.21-.12,6.32-.15,2.86,0,5.73,0,8.59-.18,8.61-.41,17.22-1,25.84-1.51,2.94-.17,6,0,8.82-.58a170.44,170.44,0,0,1,20.29-3.12c7.78-.71,15.7-1,23.26-3.58a57,57,0,0,0,16.09-8,19.37,19.37,0,0,1,3.2-2A49.86,49.86,0,0,0,300.93,138.13ZM195.36,99.3c.41-.92,1.27-1.9,1.14-2.73A27.14,27.14,0,0,0,194.55,89c-1.49-3-4-5.58-5.48-8.62a66.59,66.59,0,0,0-13.22-17.6c-4.6-4.58-10.7-7.06-16.47-9.59-5.57-2.45-11.81-3.51-17.86-4.7-10.62-2.09-19.65,1.57-27.59,8.47a37.91,37.91,0,0,0-8.64,10.8c-1.83,3.45-4,6.86-5.1,10.55C98.68,83.32,98,88.62,97,93.83a17.74,17.74,0,0,0,.18,2.89c0,.88-.26,1.76-.27,2.64,0,1.07-.22,2.92.23,3.11,2.57,1.09,1.92,2.44.38,4.15,9.24,5.5,18.63,10,29.4,12.16,0-6,1.93-11.28,4.33-16.46a8.66,8.66,0,0,0,.92-4.34c-.24-2.15-5-3.25-7-2-.91.57-2.61,1.32-3,1a4.7,4.7,0,0,1-1.57-3.43,25.36,25.36,0,0,1,2-8.09c1.54-3.17,3.85-6,5.48-8.41A27.47,27.47,0,0,1,127,72.41c-.09-2,.41-4.07.22-6.06s.1-3.48,1.2-4.14a4.75,4.75,0,0,1,2.7-.47A2.8,2.8,0,0,0,134,60.19c2.58-4.34,7-4.66,11.28-5.15a39,39,0,0,1,6.73.23,2.83,2.83,0,0,1,1.52.46c2.71,2.05,5.45,4.09,8,6.3a6.71,6.71,0,0,1,2.15,3.19,30.39,30.39,0,0,1,.67,6.61c0,1.25-.62,2.49-.78,3.77-.27,2.07.06,4.34-.65,6.22-1.37,3.64-.09,7.13.08,10.63.07,1.45,1.46,3,2.52,4.21,1.27,1.48,2.82,2.71,4.24,4.07,2.5,2.4,4.94,4.86,7.49,7.2a3,3,0,0,0,4.3,0,22.77,22.77,0,0,1,4.64-3.44c3.32-1.5,4.28-2.74,4.27-6.43,0-.67.66-1.36,1-2a11.76,11.76,0,0,1,2.36,1.32c.45.39.56,1.17.81,1.78Zm-21.62,13.18.15-.81c-1.46-1.4-3-2.75-4.36-4.2-2.27-2.33-4.32-4.9-6.75-7-1.19-1-3.26-1.76-4.61-.28a19,19,0,0,0-4.26,6.27c-.87,2.58-.81,5.52-.85,8.31a3.6,3.6,0,0,0,4.64,3.5c2.93-.86,5.84-1.8,8.71-2.82C168.88,114.51,171.3,113.46,173.74,112.48ZM156.5,96c2.81-1.94,3.19-2.78,2.42-6.25a26.16,26.16,0,0,1-.49-5.16c-.07-3.69,0-7.37,0-11-1.87,0-4.07.11-6.26,0-1.58-.1-2.14.79-2,2,.15,1.69-.34,2.49-1.86,3.53-3.62,2.49-6.05,2.83-9.71.56a29.42,29.42,0,0,0-3.88-1.74,23.38,23.38,0,0,0,2.12,4.28c2.05,3.91,2,8.3,2.63,12.54.08.51-.61,1.18-1,1.73-.23.32-.7.5-.85.84-1.53,3.42-3.08,6.83-4.51,10.3-1.58,3.78-2.37,7.67-1,12.08h17.12c0-4.09-.27-7.92.07-11.69A16,16,0,0,1,156.5,96Zm-.93-32.75a16.33,16.33,0,0,0-3-2.82,10.72,10.72,0,0,0-8.5-1c-1.69.51-3.25,1.42-4.93,1.92s-1.87,1.39-1.46,2.79a19.44,19.44,0,0,1,3.83,0C146.22,65.09,150.9,66.7,155.57,63.23Zm-22,21.62a32.48,32.48,0,0,0-2.67-2.95c-.36-.31-1.47-.45-1.61-.25-1,1.47-1.78,3-2.74,4.73C129.39,87.13,131.4,86.25,133.56,84.85Z"/><path class="cls-4" d="M300.41,127.75c3.17,2.18,3.41,7.78.52,10.38a49.86,49.86,0,0,1-11.64,7.73,19.37,19.37,0,0,0-3.2,2,57,57,0,0,1-16.09,8c-7.56,2.57-15.48,2.87-23.26,3.58a170.44,170.44,0,0,0-20.29,3.12c-2.86.61-5.88.41-8.82.58-8.62.51-17.23,1.1-25.84,1.51-2.86.15-5.73.16-8.59.18l0-1.41a34.19,34.19,0,0,0,4.93-.43c3.46-.51,5.31-2.64,5.79-6.46.32-2.6-1.21-4.21-5-5.63.83-.06,1.67-.15,2.5-.18,2.74-.12,5.52,0,8.23-.36,9.19-1.23,18.34-2.78,27.54-3.89a143.08,143.08,0,0,0,25.76-5.11c4.93-1.55,9.88-3.07,14.88-4.36a71.12,71.12,0,0,1,12.08-2.39c3.92-.29,7.69-2.27,11.8-.91,1.16.38,2.33-.86,2.37-2.38a2.15,2.15,0,0,0-2.18-2.35,6.07,6.07,0,0,0-1.47-.07c-1.78.24-3.54.54-5.32.8-3.19.47-6.42.75-9.55,1.45-2.85.63-6.09.14-8.36,2.67-.21.23-.78.11-1.18.19a85.4,85.4,0,0,0-8.42,1.88c-3.58,1.17-6.93,3.2-10.57,4-7,1.58-14.17,2.72-21.29,3.79-6.79,1-13.61,1.86-20.43,2.55-6.47.65-13,1.16-19.46,1.49-5.22.26-10.46.14-15.69.22-3.84.06-7.68.17-11.51.29-4.12.13-8.39-.36-12.33.59-6.71,1.63-13.47,1.71-20.25,1.82-4.54.08-9.08-.42-13.62-.55-5.31-.15-10.61-.11-15.9-.3-3.25-.12-6.48-.69-9.72-.75-6.58-.13-13.14,1.13-19.71-.37-3.76-.86-7.75-.81-11.42-1.9a98.77,98.77,0,0,0-16.24-3.44c-4.94-.59-9.85-1.49-14.77-2.3-2.54-.42-5.22-.59-7.57-1.53a13,13,0,0,0-5.43-.79,2,2,0,0,0-2,2.46c.13,1.05.24,2.43,2.23,2.38a50,50,0,0,1,7.27.77l.11.66a35.09,35.09,0,0,0-5.18,2.55,6.05,6.05,0,0,0-2.07,3.11c-.13.44,1,1.69,1.82,1.89,2.3.61,4.64,1.06,7,0,4.12-1.87,4.78-3.38,2.77-7.7l22.15,2.82c-1.38.37-2.69.34-3.95.62-3.27.74-5.18,3.39-4.44,6a4.58,4.58,0,0,0,3.83,3.43l-.16,1.46-7.72-.87c-4.26-.46-8.58-.36-12.8-1a116.45,116.45,0,0,1-12.86-3c-1.82-.5-2.82-2.83-2.55-4.77.11-.83.13-1.68.2-2.51.17-1.89.47-3.77.47-5.66,0-3.84,2.31-5.67,5.49-7.05,4.68-2,9.19-4.53,14-6.35C31,125.74,37,124.06,42.77,122.1c4.19-1.41,8.31-3,12.51-4.36,6.84-2.28,13.68-4.58,20.58-6.66,4.57-1.37,9.26-2.28,13.85-3.56a4,4,0,0,1,3.5.7c3.17,1.91,6.38,3.72,9.61,5.51,2.36,1.33,4.72,2.68,7.18,3.8a51.27,51.27,0,0,0,6.49,2.35q5.34,1.59,10.73,3a16,16,0,0,0,3.33.27c5.28.17,10.56.65,15.82.39a67.06,67.06,0,0,0,24.31-5.44c4.67-2.09,9.43-3.9,13.56-7.1,2.6-2,5.66-3.44,8.4-5.3a31.31,31.31,0,0,0,3.61-3.39c1.38.94,3.39.08,5.37.12,6.37.16,12.73.92,19.08,1.47a29.32,29.32,0,0,1,4,.51c5.42,1.17,10.87,2.28,16.23,3.67,8.35,2.18,16.65,4.59,25,6.88,4.87,1.34,9.86,2.32,14.6,4,5.34,1.88,10.5,4.33,15.7,6.59A24.93,24.93,0,0,1,300.41,127.75Zm-15.6,19c3.51-2.37,4-3.94,2.08-7.77a1.75,1.75,0,0,1-.19-.81c.09-1-.13-2-1.36-1.86a8.25,8.25,0,0,0-2.67,1c-.71.33-1.3.94-2,1.23-2.58,1.05-5.32,1.76-7.75,3.07s-3.22,4.23-1.6,6c1,1.1,2.65,1.6,4,2.38A19.11,19.11,0,0,0,284.81,146.76Zm-22,2.8c.64-2.24-.73-3.54-2.18-4.84s-2.38-.7-3.47.33c-.34.32-.82.75-1.22.73-2.56-.12-4.49,1.3-6.54,2.5-2.41,1.42-3.38,3.17-2.74,5.45.45,1.6,3,3.15,5.24,3.1a21.56,21.56,0,0,0,3.48-.77C258.62,154.81,261.72,153.31,262.81,149.56Zm-32.3,6.69a3.16,3.16,0,0,0-1.79-4.77,22.5,22.5,0,0,0-4.89-1c-.57-.06-1.23.47-1.81.79s-1,.69-1.44,1a43.53,43.53,0,0,0-3.81,2.22c-2.18,1.62-2.4,4.78-.34,6a30.26,30.26,0,0,0,4.81,2C225.73,162.25,228.42,159.6,230.51,156.25Z"/><path d="M291.88,129a2.15,2.15,0,0,1,2.18,2.35c0,1.52-1.21,2.76-2.37,2.38-4.11-1.36-7.88.62-11.8.91A71.12,71.12,0,0,0,267.81,137c-5,1.29-9.95,2.81-14.88,4.36a143.08,143.08,0,0,1-25.76,5.11c-9.2,1.11-18.35,2.66-27.54,3.89-2.71.36-5.49.24-8.23.36-.83,0-1.67.12-2.5.18,3.79,1.42,5.32,3,5,5.63-.48,3.82-2.33,5.95-5.79,6.46a34.19,34.19,0,0,1-4.93.43,13.42,13.42,0,0,1-6.59-1.52c-2.58-1.42-2.55-4.14,0-5.65,1.25-.74,2.69-1.2,3.91-2a15.44,15.44,0,0,0,2.21-2.15l-.44-.44H169.91c-2.8,0-5.62.33-8.39.07-.71-.07-1.42-.12-2.12-.14a78.07,78.07,0,0,0-16.93,1.47c-5.39.93-10.75.84-16.15.79-2.08,0-4.15.17-6.23.16s-4.26,0-6.38,0q-3.81,0-7.6-.11c-4.36-.12-8.69-.5-13-.61-4-.11-8,0-11.88,0a4,4,0,0,0,.27.42c1,1.32,2.52,2.49,1.28,4.41-1.55,2.36-4,3.76-6.21,3.35a5.94,5.94,0,0,1-.76-.23A20.8,20.8,0,0,1,70.27,158c-1.33-1.1-1-2.48.66-3.34a22.36,22.36,0,0,0,2-1.23l-25.18-4.64s.32.38.59.38c2.43-.06,3,1.91,3.18,3.52s-1.11,2.53-2.71,3-3,1.22-4.48,1.72a6.76,6.76,0,0,1-3.06.31,4.58,4.58,0,0,1-3.83-3.43c-.74-2.57,1.17-5.22,4.44-6,1.26-.28,2.57-.25,3.95-.62l-22.15-2.82c2,4.32,1.35,5.83-2.77,7.7-2.38,1.07-4.72.62-7,0-.77-.2-2-1.45-1.82-1.89a6.05,6.05,0,0,1,2.07-3.11A35.09,35.09,0,0,1,19.32,145l-.11-.66a50,50,0,0,0-7.27-.77c-2,0-2.1-1.33-2.23-2.38a2,2,0,0,1,2-2.46,13,13,0,0,1,5.43.79c2.35.94,5,1.11,7.57,1.53,4.92.81,9.83,1.71,14.77,2.3a98.77,98.77,0,0,1,16.24,3.44c3.67,1.09,7.66,1,11.42,1.9,6.57,1.5,13.13.24,19.71.37,3.24.06,6.47.63,9.72.75,5.29.19,10.59.15,15.9.3,4.54.13,9.08.63,13.62.55,6.78-.11,13.54-.19,20.25-1.82,3.94-.95,8.21-.46,12.33-.59,3.83-.12,7.67-.23,11.51-.29,5.23-.08,10.47,0,15.69-.22,6.5-.33,13-.84,19.46-1.49,6.82-.69,13.64-1.52,20.43-2.55,7.12-1.07,14.26-2.21,21.29-3.79,3.64-.83,7-2.86,10.57-4A85.4,85.4,0,0,1,266,134c.4-.08,1,0,1.18-.19,2.27-2.53,5.51-2,8.36-2.67,3.13-.7,6.36-1,9.55-1.45,1.78-.26,3.54-.56,5.32-.8A6.07,6.07,0,0,1,291.88,129ZM189.37,159.07a2.45,2.45,0,0,0,.54-3.76c-1.07-.95-4.76-1.1-5.25.1-.88,2.14-2.69,2.15-4.33,2.74a13.18,13.18,0,0,0-1.58.82l.06.67,2.75.69A9.18,9.18,0,0,0,189.37,159.07ZM73.91,157c2.35,2.11,4.37,2.12,5.46-.42L74,156.24C74,156.49,74,156.75,73.91,157Zm-28.33-3,0-.76a8.74,8.74,0,0,0-2.4-1.09c-.56-.08-1.22.5-1.83.79.39.55.75,1.53,1.18,1.56A12.07,12.07,0,0,0,45.58,154Zm-25.37-4.74c.1-.06-.07-.59-.11-.91l-3.62.62C18.2,150.54,19.21,149.82,20.21,149.23Z"/><path d="M286.89,139c1.94,3.83,1.43,5.4-2.08,7.77a19.11,19.11,0,0,1-9.5,3.17c-1.36-.78-3-1.28-4-2.38-1.62-1.74-.92-4.59,1.6-6s5.17-2,7.75-3.07c.72-.29,1.31-.9,2-1.23a8.25,8.25,0,0,1,2.67-1c1.23-.11,1.45.82,1.36,1.86A1.75,1.75,0,0,0,286.89,139Zm-3,4c-2.86-1.74-5.56-.73-8.17.64a2.38,2.38,0,0,0-1.13,1.37c-.07.33.52,1,1,1.2C277.76,147.31,282.87,145.27,283.89,143Z"/><path class="cls-3" d="M275.72,143.63c2.61-1.37,5.31-2.38,8.17-.64-1,2.28-6.13,4.32-8.35,3.21-.43-.22-1-.87-1-1.2A2.38,2.38,0,0,1,275.72,143.63Z"/><path d="M264.29,21.66a3,3,0,0,1,1.33,5.11,46.93,46.93,0,0,1-6.66,4.7c-2,1.27-4.13,2.3-6.12,3.59a2.68,2.68,0,0,0-.72,1.85c-.28,5-.34,10-.78,14.92-.33,3.66-.83,7.33-2.73,10.67s-6.06,5.63-9.67,5.17c-1.54-.19-3.57-2.43-3.51-4,.16-4.26,2.47-7.35,5.74-9.72,1.93-1.41,3.91-1,4.71.76a2.87,2.87,0,0,1-.08,2.3,2.44,2.44,0,0,1-1.94.72c-2.23-.21-5.37,3.56-4.44,5.55a2,2,0,0,0,1.67.7,7.24,7.24,0,0,0,5.39-5.37c.88-5.64,1.61-11.31,2.38-17A15.67,15.67,0,0,0,249,40l.28,0a55.8,55.8,0,0,1-.77-6,32.3,32.3,0,0,1,.66-4.29c.32-2.74.11-5.26-2.37-7.17a1.92,1.92,0,0,1-.56-2.92c1-1.32,2.32-1.66,3.49-.87,3,2.05,6.59,1.6,9.86,2.43C261.07,21.5,262.71,21.42,264.29,21.66Zm-2.47,3.86c-.06-.25-.14-.51-.21-.77l-9.43-1.34c.24,2.69.43,4.88.67,7.63Z"/><path d="M260.63,144.72c1.45,1.3,2.82,2.6,2.18,4.84-1.09,3.75-4.19,5.25-7.43,6.5a21.56,21.56,0,0,1-3.48.77c-2.28,0-4.79-1.5-5.24-3.1-.64-2.28.33-4,2.74-5.45,2-1.2,4-2.62,6.54-2.5.4,0,.88-.41,1.22-.73C258.25,144,259.33,143.55,260.63,144.72Zm-1.42,5.15c.24-.5,0-1.22-.06-1.84-.51.27-1.2.41-1.5.84a2.89,2.89,0,0,1-3.55,1.36c-1-.26-2.26.31-3.26.8a1.86,1.86,0,0,0-.59,1.74c.17.5,1,.78,1.23.95C253.72,153.75,258.54,151.31,259.21,149.87Z"/><path class="cls-3" d="M261.61,24.75c.07.26.15.52.21.77l-9,5.52c-.24-2.75-.43-4.94-.67-7.63Z"/><path class="cls-3" d="M259.15,148c0,.62.3,1.34.06,1.84-.67,1.44-5.49,3.88-7.73,3.85-.24-.17-1.06-.45-1.23-.95a1.86,1.86,0,0,1,.59-1.74c1-.49,2.3-1.06,3.26-.8a2.89,2.89,0,0,0,3.55-1.36C258,148.44,258.64,148.3,259.15,148Z"/><path d="M228.72,151.48a3.16,3.16,0,0,1,1.79,4.77c-2.09,3.35-4.78,6-9.27,6.21a30.26,30.26,0,0,1-4.81-2c-2.06-1.27-1.84-4.43.34-6a43.53,43.53,0,0,1,3.81-2.22c.49-.3.94-.71,1.44-1s1.24-.85,1.81-.79A22.5,22.5,0,0,1,228.72,151.48Zm-.83,3.66a11.57,11.57,0,0,1-2.15-.17c-2.25-.66-4.16.12-5.92,1.36a7.09,7.09,0,0,0-1.34,1.69,6.55,6.55,0,0,0,2.18.94A7.3,7.3,0,0,0,227.89,155.14Z"/><path class="cls-3" d="M225.74,155a11.57,11.57,0,0,0,2.15.17,7.3,7.3,0,0,1-7.23,3.82,6.55,6.55,0,0,1-2.18-.94,7.09,7.09,0,0,1,1.34-1.69C221.58,155.09,223.49,154.31,225.74,155Z"/><path d="M217.34,33.86c.48.06,1.23.78,1.22,1.19,0,.83-.21,2-.78,2.42a26.1,26.1,0,0,1-5,2.69c-2.76,1.18-5.63,2.09-8.38,3.29s-2.92,2.24-2.21,5.1a16.39,16.39,0,0,1,.78,5.68c-.42,3.72-2.7,6.4-6,8.07-2.6,1.31-5.3.38-6.26-2.3a10.48,10.48,0,0,1,.94-9.26,3.58,3.58,0,0,1,4.08-1.86,12.33,12.33,0,0,0,2.19,0c0-3-.15-5.66,0-8.29a67.83,67.83,0,0,1,1.18-8,1.86,1.86,0,0,1,1.52-1C206.26,32.26,211.81,33,217.34,33.86Zm-15,5.66c3.08-1.06,6.36-.67,9.22-2.76C205.54,34.54,202.22,35.74,202.36,39.52Zm-5,17.95a2.88,2.88,0,0,0,.86-2.22,9.74,9.74,0,0,0-1.39-2.72c-2.55.23-2.84.59-2.83,4.19a6.43,6.43,0,0,0,.71,2A10.48,10.48,0,0,0,197.33,57.47Z"/><path class="cls-3" d="M211.58,36.76c-2.86,2.09-6.14,1.7-9.22,2.76C202.22,35.74,205.54,34.54,211.58,36.76Z"/><path d="M205.92,3.84c0,1.26.37,2.84-1.59,3.14-1.73.28-3.5.38-5.19.81-2.76.7-5.46,1.61-8.36,2.47,0,2.68.12,5.13,0,7.56-.28,4.69-7.08,8.4-11.79,7.59a3.55,3.55,0,0,1-2.52-4.09c1.15-3.63,2.54-7.18,6.32-9a2.43,2.43,0,0,1,1.16-.41c2.67.24,3-1.34,2.73-3.4a23.38,23.38,0,0,0-.75-4.45c-.42-1.23-1.23-2.57.13-3.36a6.08,6.08,0,0,1,3.85-.6C194.52,1,199,3,203.83,2.49,205,2.37,205.9,2.52,205.92,3.84Zm-19.65,15c.79-.86,1.55-2,.42-2.87a3,3,0,0,0-2.86.13,18,18,0,0,0-2.78,3.76c-.24.37-.55.92-.43,1.22a.92.92,0,0,0,.68.39C184,21.72,185.07,20.15,186.27,18.82Z"/><path class="cls-3" d="M198.19,55.25a2.88,2.88,0,0,1-.86,2.22,10.48,10.48,0,0,1-2.65,1.27,6.43,6.43,0,0,1-.71-2c0-3.6.28-4,2.83-4.19A9.74,9.74,0,0,1,198.19,55.25Z"/><path class="cls-3" d="M196.5,96.57c.13.83-.73,1.81-1.14,2.73l-.76-.14c-.25-.61-.36-1.39-.81-1.78a11.76,11.76,0,0,0-2.36-1.32c-.34.68-1,1.37-1,2,0,3.69-1,4.93-4.27,6.43a22.77,22.77,0,0,0-4.64,3.44,3,3,0,0,1-4.3,0c-2.55-2.34-5-4.8-7.49-7.2-1.42-1.36-3-2.59-4.24-4.07C164.43,95.4,163,93.9,163,92.45c-.17-3.5-1.45-7-.08-10.63.71-1.88.38-4.15.65-6.22.16-1.28.79-2.52.78-3.77a30.39,30.39,0,0,0-.67-6.61A6.71,6.71,0,0,0,161.5,62c-2.57-2.21-5.31-4.25-8-6.3a2.83,2.83,0,0,0-1.52-.46,39,39,0,0,0-6.73-.23c-4.26.49-8.7.81-11.28,5.15a2.8,2.8,0,0,1-2.87,1.55,4.75,4.75,0,0,0-2.7.47l-2.09-1.4a4.64,4.64,0,0,0,1.61-3.73c-.1-.75-2.08-1.41-3.32-1.77A16,16,0,0,0,121,55l-.28-.51c-1.4.93-2.86,1.79-4.18,2.82a10.59,10.59,0,0,0-1.25,1.15l-1.39-1.57c7.94-6.9,17-10.56,27.59-8.47,6,1.19,12.29,2.25,17.86,4.7,5.77,2.53,11.87,5,16.47,9.59a66.59,66.59,0,0,1,13.22,17.6c1.5,3,4,5.58,5.48,8.62A27.14,27.14,0,0,1,196.5,96.57Z"/><path class="cls-3" d="M189.91,155.31a2.45,2.45,0,0,1-.54,3.76,9.18,9.18,0,0,1-7.81,1.26l-2.75-.69-.06-.67a13.18,13.18,0,0,1,1.58-.82c1.64-.59,3.45-.6,4.33-2.74C185.15,154.21,188.84,154.36,189.91,155.31Z"/><path class="cls-3" d="M186.69,16c1.13.84.37,2-.42,2.87-1.2,1.33-2.28,2.9-5,2.63a.92.92,0,0,1-.68-.39c-.12-.3.19-.85.43-1.22a18,18,0,0,1,2.78-3.76A3,3,0,0,1,186.69,16Z"/><path class="cls-4" d="M183.18,163.45l0,1.41c-2.11,0-4.22.06-6.32.15-6.65.32-13.3.72-19.94,1.27l-1.93.16-.12-1.83c3.77-.33,6.29-2.71,8.67-5,2.21-2.13,1.4-4.29-1.32-5.57a7.83,7.83,0,0,0-2.93-.72l.09-1.68c.7,0,1.41.07,2.12.14,2.77.26,5.59-.05,8.39-.07h12.36l.44.44a15.44,15.44,0,0,1-2.21,2.15c-1.22.79-2.66,1.25-3.91,2-2.55,1.51-2.58,4.23,0,5.65A13.42,13.42,0,0,0,183.18,163.45Z"/><path class="cls-5" d="M173.89,111.67l-.15.81c-2.44,1-4.86,2-7.33,2.92-2.87,1-5.78,2-8.71,2.82a3.6,3.6,0,0,1-4.64-3.5c0-2.79,0-5.73.85-8.31a19,19,0,0,1,4.26-6.27c1.35-1.48,3.42-.77,4.61.28,2.43,2.15,4.48,4.72,6.75,7C170.92,108.92,172.43,110.27,173.89,111.67Z"/><path d="M162.24,154c2.72,1.28,3.53,3.44,1.32,5.57-2.38,2.3-4.9,4.68-8.67,5-.26,0-.51,0-.77,0a44.45,44.45,0,0,1-6.43-2.26c-.93-.48-2.08-2.3-1.81-3a15.33,15.33,0,0,1,3.2-4.18,2.45,2.45,0,0,1,1.58-.53c2.9-.12,5.71-1.51,8.65-1.38A7.83,7.83,0,0,1,162.24,154Zm-2,5.42a6.45,6.45,0,0,0,1.05-2.17,10.11,10.11,0,0,0-1.83-.79c-.94-.21-1.92-.27-3.15-.43-.45,1.88-1.38,2.56-3.23,1.83a3.54,3.54,0,0,0-2.21.39c-.45.18-.78.71-1.16,1.07a5.11,5.11,0,0,0,1.1,1.08C154.16,162.2,157.5,161.89,160.22,159.45Z"/><path class="cls-3" d="M161.27,157.28a6.45,6.45,0,0,1-1.05,2.17c-2.72,2.44-6.06,2.75-9.43,1a5.11,5.11,0,0,1-1.1-1.08c.38-.36.71-.89,1.16-1.07a3.54,3.54,0,0,1,2.21-.39c1.85.73,2.78.05,3.23-1.83,1.23.16,2.21.22,3.15.43A10.11,10.11,0,0,1,161.27,157.28Z"/><path class="cls-4" d="M159.4,151.63l-.09,1.68c-2.94-.13-5.75,1.26-8.65,1.38a2.45,2.45,0,0,0-1.58.53,15.33,15.33,0,0,0-3.2,4.18c-.27.68.88,2.5,1.81,3a44.45,44.45,0,0,0,6.43,2.26c.26,0,.51,0,.77,0l.12,1.83a111.46,111.46,0,0,1-23.09-.48c-4.49-.61-9.13-.22-13.71-.23-1.53,0-3.07,0-4.61.05l0-2.06c2.26,0,3.9-1.71,4-4.52a4,4,0,0,0-3.83-3.83V154c2.12,0,4.26,0,6.38,0s4.15-.19,6.23-.16c5.4.05,10.76.14,16.15-.79A78.07,78.07,0,0,1,159.4,151.63Z"/><path class="cls-5" d="M158.92,89.73c.77,3.47.39,4.31-2.42,6.25a16,16,0,0,0-7.21,12c-.34,3.77-.07,7.6-.07,11.69H132.1c-1.42-4.41-.63-8.3,1-12.08,1.43-3.47,3-6.88,4.51-10.3.15-.34.62-.52.85-.84.39-.55,1.08-1.22,1-1.73-.61-4.24-.58-8.63-2.63-12.54a23.38,23.38,0,0,1-2.12-4.28,29.42,29.42,0,0,1,3.88,1.74c3.66,2.27,6.09,1.93,9.71-.56,1.52-1,2-1.84,1.86-3.53-.11-1.2.45-2.09,2-2,2.19.15,4.39,0,6.26,0,0,3.61,0,7.29,0,11A26.16,26.16,0,0,0,158.92,89.73Z"/><path class="cls-5" d="M152.58,60.41a16.33,16.33,0,0,1,3,2.82c-4.67,3.47-9.35,1.86-14,.9a19.44,19.44,0,0,0-3.83,0c-.41-1.4-.16-2.31,1.46-2.79s3.24-1.41,4.93-1.92A10.72,10.72,0,0,1,152.58,60.41Z"/><path class="cls-3" d="M132.19,98a8.66,8.66,0,0,1-.92,4.34c-2.4,5.18-4.33,10.45-4.33,16.46-10.77-2.11-20.16-6.66-29.4-12.16,1.54-1.71,2.19-3.06-.38-4.15-.45-.19-.24-2-.23-3.11,0-.88.27-1.76.27-2.64A17.74,17.74,0,0,1,97,93.83c1-5.21,1.66-10.51,3.17-15.56,1.11-3.69,3.27-7.1,5.1-10.55a37.91,37.91,0,0,1,8.64-10.8l1.39,1.57a16.66,16.66,0,0,0-3.41,6.3,4.34,4.34,0,0,0,.5,3c.19.38,1.41.35,2.13.29,1.1-.09,2.32-.81,3.22-.5,2.94,1,4.59.6,5.33-2.43a7.06,7.06,0,0,1,3.2-4.33l2.09,1.4c-1.1.66-1.42,2-1.2,4.14s-.31,4.05-.22,6.06a27.47,27.47,0,0,0,1.09,4.65c-1.63,2.44-3.94,5.24-5.48,8.41a25.36,25.36,0,0,0-2,8.09A4.7,4.7,0,0,0,122.14,97c.42.36,2.12-.39,3-1C127.21,94.73,132,95.83,132.19,98ZM118.48,73c.73-2.06-.33-3.85-2.52-3.89-1.11,0-2.22,0-3.33,0-4.1,0-5.35,1.36-4.94,5.33a7.73,7.73,0,0,1-.29,3.46c-1.59,4.22-.69,8.13,1.33,11.86a3.64,3.64,0,0,0,2.62,1.84,2.42,2.42,0,0,0,2.1-2.9,3.45,3.45,0,0,1,.2-1.41C115.24,82.52,116.81,77.74,118.48,73Z"/><path class="cls-3" d="M130.89,81.9a32.48,32.48,0,0,1,2.67,2.95c-2.16,1.4-4.17,2.28-7,1.53,1-1.69,1.77-3.26,2.74-4.73C129.42,81.45,130.53,81.59,130.89,81.9Z"/><path d="M127.9,57.08a4.64,4.64,0,0,1-1.61,3.73,7.06,7.06,0,0,0-3.2,4.33c-.74,3-2.39,3.45-5.33,2.43-.9-.31-2.12.41-3.22.5-.72.06-1.94.09-2.13-.29a4.34,4.34,0,0,1-.5-3,16.66,16.66,0,0,1,3.41-6.3,10.59,10.59,0,0,1,1.25-1.15c1.32-1,2.78-1.89,4.18-2.82L121,55a16,16,0,0,1,3.55.28C125.82,55.67,127.8,56.33,127.9,57.08Z"/><path d="M116,69.11c2.19,0,3.25,1.83,2.52,3.89-1.67,4.74-3.24,9.52-4.83,14.28a3.45,3.45,0,0,0-.2,1.41,2.42,2.42,0,0,1-2.1,2.9,3.64,3.64,0,0,1-2.62-1.84c-2-3.73-2.92-7.64-1.33-11.86a7.73,7.73,0,0,0,.29-3.46c-.41-4,.84-5.34,4.94-5.33C113.74,69.1,114.85,69.08,116,69.11Zm-2.22,6c.11-.34-.23-.84-.36-1.25-.37.12-1,.18-1.06.39-.75,2.77-1.42,5.55-2.11,8.32l.67.18C111.84,80.16,112.83,77.63,113.74,75.07Z"/><path d="M113.71,155.37a4,4,0,0,1,3.83,3.83c-.07,2.81-1.71,4.52-4,4.52a5.59,5.59,0,0,1-2-.39,7.24,7.24,0,0,0-2.44-.25,36.62,36.62,0,0,1-3.78,0c-2.85-.39-3.81-2.71-1.77-4.75A10.76,10.76,0,0,1,108.1,156a35.39,35.39,0,0,1,5.19-.63A2.86,2.86,0,0,1,113.71,155.37Z"/><path class="cls-3" d="M113.38,73.82c.13.41.47.91.36,1.25-.91,2.56-1.9,5.09-2.86,7.64l-.67-.18c.69-2.77,1.36-5.55,2.11-8.32C112.38,74,113,73.94,113.38,73.82Z"/><path class="cls-4" d="M113.71,154v1.34a2.86,2.86,0,0,0-.42,0,35.39,35.39,0,0,0-5.19.63,10.76,10.76,0,0,0-4.48,2.27c-2,2-1.08,4.36,1.77,4.75a36.62,36.62,0,0,0,3.78,0,7.24,7.24,0,0,1,2.44.25,5.59,5.59,0,0,0,2,.39l0,2.06c-5.44.11-10.89.27-16.35-.65-4-.67-8.09-.35-12.12-.74-3-.27-5.91-.68-8.86-1.08l.25-1.85c2.21.41,4.66-1,6.21-3.35,1.24-1.92-.33-3.09-1.28-4.41a4,4,0,0,1-.27-.42c3.92,0,7.91-.08,11.88,0,4.36.11,8.69.49,13,.61Q109.91,154,113.71,154Z"/><path class="cls-3" d="M79.37,156.59c-1.09,2.54-3.11,2.53-5.46.42,0-.26.06-.52.09-.77Z"/><path class="cls-4" d="M76.52,161.46l-.25,1.85-4.59-.61c-2.22-.28-4.45-.45-6.66-.71-8-.93-15.94-1.9-23.91-2.82l.16-1.46a6.76,6.76,0,0,0,3.06-.31c1.52-.5,3-1.27,4.48-1.72s2.92-1.43,2.71-3-.75-3.58-3.18-3.52c-.27,0-.55-.35-.59-.38l25.18,4.64a22.36,22.36,0,0,1-2,1.23c-1.7.86-2,2.24-.66,3.34a20.8,20.8,0,0,0,5.49,3.24A5.94,5.94,0,0,0,76.52,161.46Z"/><path class="cls-3" d="M45.55,153.21l0,.76a12.07,12.07,0,0,1-3.08.5c-.43,0-.79-1-1.18-1.56.61-.29,1.27-.87,1.83-.79A8.74,8.74,0,0,1,45.55,153.21Z"/><path class="cls-3" d="M20.1,148.32c0,.32.21.85.11.91-1,.59-2,1.31-3.73-.29Z"/></g></g></g></svg>