<svg xmlns="http://www.w3.org/2000/svg" viewBox="0 0 778.85 395.46"><defs><style>.cls-1{isolation:isolate;}.cls-2{fill:#fff;}.cls-3{fill:#76cede;mix-blend-mode:darken;opacity:0.4;}</style></defs><g class="cls-1"><g id="Layer_2" data-name="Layer 2"><g id="Layer_7" data-name="Layer 7"><path class="cls-2" d="M374.87,255.13h0A46.11,46.11,0,0,0,328.76,209H313.17a16,16,0,0,1-16-16h0A46.11,46.11,0,0,0,251,146.88H148.34A46.11,46.11,0,0,0,102.24,193h0a16,16,0,0,1-16,16H31.07A31.07,31.07,0,0,0,0,240.1H0a31.07,31.07,0,0,0,31.07,31.07h11a16,16,0,0,1,16,16v30.07a16,16,0,0,0,16,16h0a16,16,0,0,1,16,16h0a46.1,46.1,0,0,0,46.11,46.11H239a46.1,46.1,0,0,0,46.1-46.11h0a16,16,0,0,1,16-16H401.93A31.07,31.07,0,0,0,433,302.24h0a31.07,31.07,0,0,0-31.07-31.07h-11A16,16,0,0,1,374.87,255.13Z"/><path class="cls-3" d="M136.32,395.46H239a46.1,46.1,0,0,0,46.1-46.11h0a16,16,0,0,1,16-16H401.93a31.07,31.07,0,0,0,30.6-25.7l.49-4.22c-4.51,15.58-22.44,17.37-35.24,17.37H286.71c-16.28,0-29.48.05-29.48,16.33v13.14a29.47,29.47,0,0,1-29.47,29.48h-99.9a51.38,51.38,0,0,1-34.33-13.15h0A46.13,46.13,0,0,0,136.32,395.46Z"/><path class="cls-2" d="M751.08,131.79H717.73A27.73,27.73,0,0,1,690,104.06h0a27.74,27.74,0,0,0-27.73-27.73H650.84a27.77,27.77,0,0,1-27.77-27.77h0a27.78,27.78,0,0,0-27.78-27.78H512.62a27.78,27.78,0,0,0-27.78,27.78h0a27.77,27.77,0,0,1-27.77,27.77H445.69a27.78,27.78,0,0,0-27.78,27.78h0a27.77,27.77,0,0,0,27.78,27.77H496.1a27.74,27.74,0,0,1,27.73,27.73h0a27.72,27.72,0,0,0,27.73,27.73h13.9A27.58,27.58,0,0,1,593,214.91h0a27.56,27.56,0,0,0,27.56,27.57h67.89A27.56,27.56,0,0,0,716,214.91h0a27.58,27.58,0,0,1,27.57-27.57h7.47a27.77,27.77,0,0,0,27.77-27.77h0A27.77,27.77,0,0,0,751.08,131.79Z"/><path class="cls-3" d="M592.17,208.56l-2.92-13.3a12.16,12.16,0,0,0-6.74-9.26h0a35.81,35.81,0,0,0-15.59-3.57h-4.17a41,41,0,0,0-4.14.23c-7.09.73-14.09.19-27.94-4.82h0a27.68,27.68,0,0,0,20.89,9.5h13.9a27.53,27.53,0,0,1,20.23,8.84C587.55,198.2,591,206.05,592.17,208.56Z"/><path class="cls-3" d="M696.62,208.66h0a17.78,17.78,0,0,1-17.78,17.78H634.56c-14.63,0-41.53,1.58-41.53-11.53h0a27.56,27.56,0,0,0,27.56,27.57l67.45,0a27.59,27.59,0,0,0,28-27.61h0a27.58,27.58,0,0,1,27.78-27.57l7.22,0a27.78,27.78,0,0,0,27.81-27.8h0a27.58,27.58,0,0,0-.69-6.14l-.06,0c0,24.43-32.1,22.72-48.94,22.72h0A32.54,32.54,0,0,0,696.62,208.66Z"/><rect class="cls-2" x="144.82" width="219.95" height="50.76" rx="25.38"/><path class="cls-3" d="M339.39,50.76H170.2a25.31,25.31,0,0,1-19.67-9.34c1.95,4,53.91,1.15,106.22,1.15,79.83,0,101.9,4.19,108-17.19h0A25.38,25.38,0,0,1,339.39,50.76Z"/><path class="cls-3" d="M511.77,130.43C500,117.67,452.28,127,442.57,127c-12.33,0-20.77-9.08-20.77-9.08a1.47,1.47,0,0,0-.13.16,27.75,27.75,0,0,0,24,13.83H496.1a27.72,27.72,0,0,1,24.6,14.94l.16.05S519.43,138.71,511.77,130.43Z"/><path class="cls-3" d="M58.13,312.28a16,16,0,0,0,16,16h0a16,16,0,0,1,16,16v5a16,16,0,0,0-16-16h0a16,16,0,0,1-16-16"/><path class="cls-3" d="M0,237.1a31.06,31.06,0,0,0,31.07,31.07h11a16,16,0,0,1,16,16v3a16,16,0,0,0-16-16h-11A31.06,31.06,0,0,1,0,240.1"/></g></g></g></svg>