<svg xmlns="http://www.w3.org/2000/svg" viewBox="0 0 265.23 62.56"><defs><style>.cls-1{fill:#1c3664;}</style></defs><g id="Layer_2" data-name="Layer 2"><g id="Layer_1-2" data-name="Layer 1"><path class="cls-1" d="M25.76,57.54a2.07,2.07,0,0,1-.21.45c-.74.9-1.45,1.06-2.33.29s-.36-1.37-.3-2.14a37.52,37.52,0,0,0-.56-11C21.91,43,21.27,40.92,21,38.77a22.78,22.78,0,0,0-2.9-8c-.85-1.58-2.38-2.8-3.6-4.19-1.64-1.87-3.78-1.79-5.87-1.3A46.72,46.72,0,0,0,4.24,27c-.78.27-1,.65-.92,1.43.27,6.32.46,12.64.72,19,.12,2.92.35,5.83.49,8.75,0,.76-1.94,1.63-1.94,1.63-1.21-.08-1.11-1.3-1.15-2-.13-2.09.06-4.19.05-6.28q0-4.69-.15-9.38c-.06-2.35-.23-4.7-.31-7.05C.87,28.52.76,24,.61,19.38.54,17.2,0,9.11,0,8.8.13,6.92.31,5,.43,3.16c0-1,.63-1.51,1.57-1.28.63.16,1.23.41,1.91.64-.17,1.39-.4,2.73-.5,4.08C3.3,8.28,3.26,10,3.25,11.67c0,2.83,0,5.66,0,8.5,0,1.1,0,2.2,0,3.31,0,.81.48,1,1.12.7a14.61,14.61,0,0,0,5.23-3.85A17.6,17.6,0,0,0,13,13.59,46.16,46.16,0,0,0,15.27,4.1,8.93,8.93,0,0,1,15.59,2,2,2,0,0,1,16.74.85c.27-.07.77.54,1.1.91a5,5,0,0,1,.54,1,2.87,2.87,0,0,0-.33.87,65.24,65.24,0,0,1-.37,7,19,19,0,0,1-1.79,4.68,44.58,44.58,0,0,1-2.45,4.51c-.54.87-1.31,1.58-2,2.52,1-.47,1.5.2,2.12.7.94.75,2,1.35,2.93,2.07a13.89,13.89,0,0,1,4.13,5.48c1.16,2.5,2.38,5,2.61,7.81a16.51,16.51,0,0,0,.58,2c.54,2.42,1.14,4.83,1.53,7.27a40.18,40.18,0,0,1,.21,4.53c.07,1.59.17,3.18.25,4.76Zm23.85,1.94a1.41,1.41,0,0,1-1.42,1.35c-.82,0-1-.71-1.19-1.44s-.1-7-.1-9.64c0-2.19.3-4.39.36-6.58A37.24,37.24,0,0,0,47,34.8a26,26,0,0,1-.17-3.43c0-.58-.18-1.16-.24-1.74-.16-1.42-.33-2.84-.43-4.26,0-.59-.31-.85-.84-.86s-1,0-1.55.06c-2,.14-3.94.2-5.89.46a30,30,0,0,0-4.14,1c-.22.06-.44.43-.5.69-.41,1.94-.87,3.88-1.13,5.84s-.26,3.89-.44,5.83c-.13,1.38-.39,2.75-.55,4.13-.06.55,0,1.1,0,1.65,0,.88-.09,1.77-.17,2.65-.29,3.13-.57,6.26-.89,9.39a22.16,22.16,0,0,1-.2,2.21,1.52,1.52,0,0,1-2.67.33,20.92,20.92,0,0,1,.58-3.15c.13-2.27.14-4.55.3-6.82.12-1.72.41-3.43.62-5.14.37-3.24.67-6.48,1.13-9.7.39-2.77,1.06-5.51,1.44-8.28a67.9,67.9,0,0,1,2.6-12.13c.42-1.26.49-2.64.94-3.89a48.23,48.23,0,0,1,2.13-5c.32-.66.37-1.4,1.16-1.94a6.72,6.72,0,0,1,4.23-1.22,4,4,0,0,1,2.29,1A8.77,8.77,0,0,1,46.93,7a44.77,44.77,0,0,1,1.32,11.35A16.87,16.87,0,0,0,49,23.68a18.71,18.71,0,0,1,.41,4.46c.11,2.07.22,4.14.26,6.21,0,2.89.51,5.76.21,8.68a52.53,52.53,0,0,0,0,5.47c0,2.5,0,5,0,7.49C49.87,56,49.68,58.9,49.61,59.48Zm3-7.81c.08-1.86.13-3.72.2-5.57.08-2.09.13-4.18.26-6.26.18-2.79.43-5.57.65-8.36,0-.35.11-.71.16-1.06.38-2.81.74-5.63,1.15-8.43s.86-5.6,1.34-8.39a31.69,31.69,0,0,1,2.29-8c.23-.52,2.17-3.57,4.08-4.47A1.53,1.53,0,0,1,64.46.82,6.78,6.78,0,0,1,67.3,2.73a4.81,4.81,0,0,1,.82,1.59c.46,1.65.82,3.33,1.23,5.08a16.23,16.23,0,0,0,.5-2,4.87,4.87,0,0,1,.94-2.82A13.28,13.28,0,0,1,73.4,2a21.92,21.92,0,0,1,2.87-.95C76.79.91,77.38.6,77.84.73a5.32,5.32,0,0,1,1.78,1.08c1,.79,3,2.09,2.82,2.19.6,1.2,1.26,2.36,1.75,3.58,1.24,3,1.23,6.25,1.49,9.43a32.11,32.11,0,0,1,0,3.8,43.19,43.19,0,0,0-.21,5.89c.34,3.14-.35,6.18-.72,9.21A74.89,74.89,0,0,0,84,47.09c.06,2.43.38,4.85.47,7.29a11.41,11.41,0,0,1-.44,2.45A1.32,1.32,0,0,1,84,58.2c-.24.2-.42.48-.67.67-.4.32-.83.81-1.27.84-.7,0-1.05-.54-1.07-1.26A21.47,21.47,0,0,0,80.46,56c-.09-.23.21-3.31.31-4.64.11-1.57.43-3.13.66-4.7.34-2.21,1-9.1.94-9.87,0-1.67-.09-3.34-.12-5,0-1.45,0-2.91,0-4.37,0-2,.1-4,0-6-.16-2.29-.54-4.57-.8-6.86-.14-1.18-.19-2.37-.34-3.55s-.41-2.48-.61-3.72c-.12-.82,0-1.7-.7-2.36-1.71-1.62-4.36-2.24-5.83.2C73,6.67,71.71,8,71.29,9.76a11.9,11.9,0,0,0-.45,2.18c-.15,3.71-.29,7.41-.36,11.12,0,2.67,0,5.34,0,8,0,3.45.11,6.91,0,10.36s-.32,6.69-.44,10c0,1,.16,2,.11,3A17.9,17.9,0,0,1,69.73,57c-.36,1.23-2.24.74-2.71-.33.18-1,.27-2.07.42-3.1.72-5,.55-10.09.59-15.14,0-1,.25-2,.24-3,0-1.36-.14-2.72-.25-4.09-.2-2.69-.31-5.4-.66-8.07-.25-2-.86-3.89-.72-5.91.17-2.33.22-4.67.44-7a8.3,8.3,0,0,0-1.77-6.32,1.35,1.35,0,0,0-2.19,0,21.57,21.57,0,0,0-2,3.9c-.58,1.62-.92,3.32-1.34,5-.74,3-1.48,5.91-2.17,8.88a79.19,79.19,0,0,0-2,12.73c-.13,2-.58,3.87-.67,5.82-.12,2.59,0,5.2,0,7.8,0,1.91.11,3.83.2,5.74,0,1,.46,3.54-.61,4.4a2,2,0,0,1-2.72-.47C51.49,57.24,52.54,53.27,52.61,51.67ZM33.81,23.3A36,36,0,0,1,37.58,23,7.1,7.1,0,0,0,41,22.15a1.71,1.71,0,0,1,.65-.08c1.12-.05,2.24,0,3.35-.16.29,0,.64-.57.75-.94a3.35,3.35,0,0,0-.08-1.25,38.92,38.92,0,0,1-.63-5.65,27.25,27.25,0,0,0-.87-6.93,9.63,9.63,0,0,0-1.49-2.9A1.09,1.09,0,0,0,41.66,4C40.32,5.18,38.72,6.1,38,7.87a18.85,18.85,0,0,1-.69,2A29.13,29.13,0,0,0,35,17.37C34.56,19.3,34.21,21.25,33.81,23.3Z"/><path class="cls-1" d="M168.49,59.71c.12.33.29.82.54.9a1.93,1.93,0,0,0,1.13-.25c.4-.16.74-.44,1.15-.6A2.49,2.49,0,0,0,172.54,58q-.14-2-.15-4c0-1.55.05-3.1.07-4.65,0-.65,0-1.31,0-2,.12-2.47.32-4.94.38-7.42.07-3.52.06-7,.06-10.55a33,33,0,0,0-.15-3.3c-.1-1-.37-2-.48-3-.23-2-.29-4.11-.61-6.14-.46-2.86-1-5.71-1.66-8.53-.5-2.2-.76-4.52-2.33-6.34C167,1.3,166.31.29,165,.4a7.12,7.12,0,0,0-5.68,4.06c-1.25,2.24-2.23,4.62-3.33,6.94-.06.12-.09.24-.14.36a55.1,55.1,0,0,1-2.17-5.31c-.45-1.21-.6-2.55-1.63-3.5-.85-.79-1.71-1.58-2.5-2.43a1.46,1.46,0,0,0-1.76-.39,6.16,6.16,0,0,0-3.75,4.21,24.28,24.28,0,0,0-1.42,6.53c-.06.94,0,1.9-.13,2.83-.34,2.15-.91,4.27-1.16,6.43-.33,2.79-.41,5.62-.67,8.42-.16,1.64-.45,3.27-.68,4.91-.19,1.31-.49,2.61-.55,3.93-.09,1.9,0,3.81,0,5.72,0,1.73-.09,3.45-.11,5.17,0,2,.1,4,0,6.07-.07,1.29-.28,4.46.16,4.72.79.48,2.58-.23,2.52-1.09-.12-1.65-.15-5.32-.13-5.52.17-2.3.4-4.6.5-6.9.06-1.46-.16-2.93-.11-4.39.1-3.07.31-6.13.46-9.19.08-1.59.05-3.19.21-4.77.26-2.56.64-5.1,1-7.65.15-1.16.29-2.33.46-3.48.31-2.12.73-4.23.92-6.36s.64-4.24,2.48-5.73c.75-.6,1.29-.73,1.88,0,.88,1,2,1.94,2.18,3.47a2,2,0,0,0,.28.73c1.63,3.21,1.85,6.78,2.28,10.24a30.1,30.1,0,0,1-.38,7.07,37.23,37.23,0,0,0,0,7.16c.13,1.86.26,3.71.32,5.57,0,1.15,0,2.31-.09,3.47-.11,2.88-.15,5.76-.36,8.64-.17,2.46-.54,4.91-.82,7.37h0c0,1,0,2.06,0,3.09,0,.83.64,1.06,1.19,1.22a1.29,1.29,0,0,0,1.08-.48,2.7,2.7,0,0,0,.5-1.41c.07-1.12,0-2.25,0-3.37q.27-6.85.59-13.71c.09-1.92.31-3.84.36-5.76s0-3.65,0-5.47c0-1.55,0-3.1,0-4.64,0-.85-.07-1.7,0-2.54s.54-1.92.36-2.79a15,15,0,0,1,.77-7.4c.53-1.78,1.32-3.48,1.81-5.26a9.47,9.47,0,0,1,4-5.7c.56-.36,1.3-.89,2-.3a3,3,0,0,1,.8,1.42c.53,2.12,1.05,4.24,1.44,6.38.3,1.66.39,3.35.58,5a23.86,23.86,0,0,1,.32,4.93,53.54,53.54,0,0,0,0,5.52c0,1.95.14,3.89.17,5.84,0,1.1,0,2.19,0,3.29,0,.71.05,1.42.05,2.14,0,.52-.05,1-.07,1.55,0,1.53,0,3.06-.14,4.57-.28,2.62-.78,5.22-1,7.85a52.7,52.7,0,0,0,.05,5.33A16.62,16.62,0,0,0,168.49,59.71Z"/><path class="cls-1" d="M222.87,8.36a12,12,0,0,0,.84-1.95c.2-.9.94-1.18,1.59-1.55a.9.9,0,0,1,.87.13c.28.34.64.88.55,1.23a13.81,13.81,0,0,1-1.31,3.65,4.18,4.18,0,0,0-.3,4,23.37,23.37,0,0,1,1.1,3.54c.31,1.62.47,3.28.65,4.93A53.09,53.09,0,0,1,227,32.77a69.86,69.86,0,0,1-1.64,11.89,25.71,25.71,0,0,1-3.11,7.44c-.6.93-1,2-1.63,2.88a4,4,0,0,1-1.81,1.13,9.86,9.86,0,0,1-2.13.29,14.46,14.46,0,0,1-4.23-.87,14.76,14.76,0,0,1-3.11-2.65,11.56,11.56,0,0,1-1.44-3.46c-.45-1.44-.75-2.93-1.09-4.33-.66,1.17-1.27,2.36-2,3.47-.26.39-.86.9-1.2.83-1.15-.23-1.92-1.21-1.63-2,.45-1.35,1.09-2.64,1.66-4a2.17,2.17,0,0,1,.46-.63c2.6-2.49,2.21-5.61,1.74-8.68a43.55,43.55,0,0,1-.17-9.48c.16-2.34.19-4.69.47-7,.42-3.42.93-6.85,1.55-10.24a9,9,0,0,1,4.11-5.81.88.88,0,0,1,.46-.12c1.71.05,3.43,0,4.9,1.15,1.13.91,2.42,1.65,3.46,2.66A24.58,24.58,0,0,1,222.87,8.36Zm.45,7.33-.56-.2a15.52,15.52,0,0,0-1.26,1.43c-.58.86-1.07,1.78-1.6,2.67-1.24,2.1-2.55,4.17-3.72,6.31-1.25,2.3-2.34,4.69-3.6,7-1.07,2-2.32,3.81-3.39,5.76a3.27,3.27,0,0,0-.45,2.2,65.49,65.49,0,0,0,2.33,6.51,49.53,49.53,0,0,0,2.28,4.4c.69,1.25,1.09,1.41,2.52,1.16l1.44-.29a3.32,3.32,0,0,0,2.74-1.9c.37-.92.68-1.86,1-2.81.1-.3.07-.65.16-1,.55-2,1.09-4.07,1.68-6.08a31.79,31.79,0,0,0,1.22-3.81,41,41,0,0,0,.44-5.64,59.47,59.47,0,0,0-.16-6.26C224.12,22,223.68,18.85,223.32,15.69ZM207.76,36l.43.1c.55-.95,1.07-1.91,1.65-2.84,1-1.66,2.15-3.26,3.11-5s1.58-3.26,2.45-4.85c1-1.76,2.09-3.44,3-5.22,1.08-2,2.05-4.12,3.06-6.19.34-.7.53-1.38-.2-2a12.7,12.7,0,0,1-1-1.29c-1-1.21-2.08-2.4-3.14-3.59a5.73,5.73,0,0,0-2.56-.9,2.2,2.2,0,0,0-1.45,1.2c-.79,1.28-1.24,2.82-2.18,4-1.26,1.5-.81,3.57-2,5-.34,2.88-.77,5.74-1,8.62-.21,2.73-.19,5.47-.24,8.21C207.74,32.76,207.76,34.35,207.76,36Z"/><path class="cls-1" d="M89,57.81a14.42,14.42,0,0,1,0-1.47c.14-1.31.28-2.63.5-3.94A63.83,63.83,0,0,0,90.12,41c0-2.24.11-4.49.21-6.73.08-1.67.23-3.33.33-5,.2-3.28.52-6.55.55-9.83,0-3.52-.28-7-.3-10.58,0-1.89.27-3.77.4-5.66.07-1,.87-1.22,1.61-1.16s1,.7.93,1.39c0,.35,0,.7-.08,1,1.35-.56,2.73-1.13,4.11-1.68.53-.22,1.08-.38,1.62-.55a21.61,21.61,0,0,1,3.19-1A7,7,0,0,1,109,3.34a11,11,0,0,1,2.27,3.25,6.72,6.72,0,0,1,0,5A62.55,62.55,0,0,1,108,19.09a18.66,18.66,0,0,1-2.92,3.34c-.21.24-.4.49-.54.66a33.66,33.66,0,0,1,4.23,3.53c1.89,2.15,3.59,4.47,4,7.49.17,1.27.81,2.46,1.09,3.72a20,20,0,0,1,.34,3.28,25.41,25.41,0,0,1,0,3.49,18.4,18.4,0,0,1-.64,2.81,10.36,10.36,0,0,1-.49,1.67,33.53,33.53,0,0,1-2,4,41.88,41.88,0,0,1-2.85,3.7c-.21.24-3.17,2.15-4.06,2.76A17.22,17.22,0,0,1,98,62.22a24.69,24.69,0,0,1-6,.29c-1,0-2.58-1.83-2.67-2.82C89.3,59.08,89,57.84,89,57.81ZM93.55,60c.28.18.81-.06,1.17.05,1.93.62,3.57-.09,5.15-1.05.77-.48,1.44-1.29,2.26-1.47,2.79-.62,4.5-2.6,6-4.69a18.39,18.39,0,0,0,3.3-9.28,15.49,15.49,0,0,0,.37-2.48,31.54,31.54,0,0,0-.78-5.2,13,13,0,0,0-2.78-5.82c-.38-.41-.78-.8-1.19-1.17A17.07,17.07,0,0,0,104,26.32c-1.54-.8-3.25-1.35-5.07-.5a4,4,0,0,1-2,.25,1.83,1.83,0,0,1-1.15-.72,1.07,1.07,0,0,1,.29-1,15.33,15.33,0,0,1,2.33-1.16c.63-.28,1.45-.3,1.93-.72,2.1-1.86,4.15-3.78,6.11-5.78a7.31,7.31,0,0,0,1.63-2.64,19.83,19.83,0,0,0,1-4.43,5.29,5.29,0,0,0-.9-4.06c-1.08-1.42-2.71-1.64-4.08-1.83A12.6,12.6,0,0,0,99,4.47,23.33,23.33,0,0,0,94.77,6.4c-.65.34-1.5.6-1.53,1.59s-.11,2-.13,3c-.12,4.54-.21,9.07-.33,13.6,0,1.38-.18,2.76-.25,4.14-.11,1.88-.23,3.76-.29,5.64-.07,2.11-.1,4.22-.12,6.34q0,2.87,0,5.73c0,1.37.11,2.74.14,4.12,0,1.08,0,2.16,0,3.24.05.79.28,1.58.34,2.38S92.38,59.63,93.55,60Z"/><path class="cls-1" d="M114.43,54c.18-2.61.3-5.24.53-7.85.18-2,.49-4,.73-6.08.28-2.39.49-4.78.83-7.16.27-1.94.7-3.86,1-5.8.41-2.37.78-4.75,1.21-7.12.6-3.35.94-6.75,2.42-9.9.35-.74.35-1.65.66-2.42.7-1.74,1.49-3.45,2.24-5.18.56-1.29,1.68-1.41,2.86-1.36,2,.08,4.66,2.25,4.95,4.22.43,3,.74,6,1,9,.2,2.53.1,5.08.32,7.6.28,3.29.79,6.56,1.14,9.84s.45,6.71,1,10,.21,6.69.37,10c.06,1.42,0,2.85-.05,4.28a3.17,3.17,0,0,0,.15.86c.29,1,0,1.58-1,2.3-.81.6-1.52.17-2.16-.21a1.34,1.34,0,0,1-.36-1c.1-2,.43-4,.37-5.94-.09-3.54-.42-7.07-.62-10.6-.11-2-.16-3.9-.2-5.85,0-2.28,0-4.55-.09-6.82,0-1.14-.18-2.27-.18-3.41,0-.57-.24-.83-.71-.81-1.68,0-3.38.05-5,.25s-3.38.63-5.08.9c-.78.13-1.3.34-1.36,1.27-.21,2.92-.41,5.84-.75,8.75-.35,3.07-.88,6.13-1.29,9.19a54.31,54.31,0,0,1-.65,5.59,18.89,18.89,0,0,0,0,6.14c.06.74.25,1.41-.29,2.07-.67.83-1.47.86-2,0C114.06,58.28,114.35,55.19,114.43,54Zm5.74-30.84a17.16,17.16,0,0,0,3.36-.31,23.38,23.38,0,0,1,7.08-1.3.84.84,0,0,0,.57-.6c-.07-1.69-.2-3.38-.31-5.07-.05-.72-.14-1.43-.13-2.15a11.59,11.59,0,0,0-2.61-8.21c-.93-1.07-1.95-.94-2.69.23a15.47,15.47,0,0,0-2.24,4.71c-.52,2.14-1.25,4.22-1.8,6.36-.48,1.85-.83,3.74-1.22,5.61A4.28,4.28,0,0,0,120.17,23.2Z"/><path class="cls-1" d="M243.44,60.12a12.87,12.87,0,0,1-6.84-1.92,11.88,11.88,0,0,0-3.88-1.2c-.36-.08-.86.38-1.27.64-.95.63-1.87,1.31-2.82,1.94a1.76,1.76,0,0,1-2.54-.34.87.87,0,0,1-.17-.61c.22-1.1.53-2.21,1.75-2.61,2.16-.7,3.43-2.43,4.66-4.12s2.2-3.53,3.32-5.29c1.24-2,2.61-3.83,3.73-5.84.93-1.69,1.5-3.57,2.37-5.3,1.44-2.87,1.58-6.07,2.34-9.1a35.09,35.09,0,0,0,.8-5.88c.2-2.73.28-5.48.32-8.23A34.41,34.41,0,0,0,245,8c-.15-1.52-1.09-2.32-2.46-3.07a10.7,10.7,0,0,0-6.14-1.1,6.57,6.57,0,0,0-4,2.06,15.92,15.92,0,0,1-1.31,1.29c-.21.17-.75.27-.84.16a1.3,1.3,0,0,1-.32-1,11.72,11.72,0,0,1,.85-2c.68-1.43,2.1-1.8,3.42-2.22,2.36-.75,4.71-.2,7.09.17a7.36,7.36,0,0,1,5,2.85,6.92,6.92,0,0,1,1.63,3.79c.08,1.46.93,2.8.83,4.32-.07,1.15,0,2.31-.08,3.47-.18,2.55-.39,5.1-.61,7.64-.07.93-.19,1.85-.31,2.77a26.47,26.47,0,0,1-.46,3.35A54.46,54.46,0,0,1,245.52,36,19.65,19.65,0,0,1,244,38.43c-.77,1.38-1.47,2.8-2.23,4.19q-1.43,2.66-2.9,5.3c-.9,1.62-1.82,3.23-2.71,4.85-.24.45-.25.89.37,1.09s1.29.47,1.95.64a34.83,34.83,0,0,0,5,1.15,14.94,14.94,0,0,0,3.38-.5,3.75,3.75,0,0,1,1.82,0c.29.12.38.91.44,1.42a3.18,3.18,0,0,1-.11,1.51c-.2.46-.6,1.06-1,1.16C246.29,59.65,244.53,59.91,243.44,60.12Z"/><path class="cls-1" d="M184.44,52.29c1.55.47,2.69.62,4.13,1.06A31.68,31.68,0,0,1,191.38,55c1.59,1.61,8.29,2.22,9.74,1.47.76-.3,1.72-.48,2.13-.16a1.4,1.4,0,0,1,.34,2.07,4.32,4.32,0,0,1-1.14.4c-2.34.1-4.69,0-7,.26a8.68,8.68,0,0,1-5.13-.8,2.72,2.72,0,0,1-.8-.53,7.33,7.33,0,0,0-5.33-2.23,1.8,1.8,0,0,1-.39-.08c-1.76-.5-5.21,3.35-6.59,2.92-.68-.22-.59-.76-.48-1.27a11.75,11.75,0,0,1,.4-1.55,3.24,3.24,0,0,1,.68-1.27c.85-.78,1.85-1.41,2.69-2.2a10.78,10.78,0,0,0,2.2-2.54c1.49-2.84,2.84-5.75,4.19-8.65a73.27,73.27,0,0,0,3.18-7.22c.79-2.33,1.13-4.81,1.7-7.22a7,7,0,0,1,.6-1.58A19.44,19.44,0,0,0,194,18.19a55.11,55.11,0,0,0,.08-7.27,9.21,9.21,0,0,0-2.3-5.67,3.46,3.46,0,0,0-3.65-1.09,23.61,23.61,0,0,0-3.61.78A9.76,9.76,0,0,0,182,6.81c-1,.91-2.07,1.69-3.55,1.4a1.13,1.13,0,0,1-.73-1.85A16.6,16.6,0,0,1,181,3.17c1.79-1.58,3.92-1.79,6.05-2.2,2.62-.51,6.59,1,8,3.2a5.73,5.73,0,0,1,.68,1.41,21.58,21.58,0,0,1,1,9.8c-.33,2.33-.48,4.68-.95,7a69.93,69.93,0,0,1-2.06,7.8c-.79,2.39-1.89,4.67-2.81,7-.41,1-.6,2.19-1.1,3.18-.9,1.8-1.06,3.8-1.65,5.67a30.53,30.53,0,0,1-2.12,4.39C185.92,50.74,184.58,52,184.44,52.29Z"/><path class="cls-1" d="M257,10a9.25,9.25,0,0,1-2.1.46,1.38,1.38,0,0,1-1.21-2.1,6,6,0,0,1,4-3.16,9,9,0,0,1,2.3-.29c.6,0,.94.32.9,1.09-.14,2.4-.13,4.82-.23,7.23a21.88,21.88,0,0,0-.27,4.24c.9,5.52-.26,11-.06,16.49.07,1.69-.13,3.39-.07,5.09.05,1.52.34,3,.43,4.55.16,2.5.24,5,.37,7.51.09,1.49.21,3,.33,4.47.06.62-.06,1.47.29,1.78s1.18,0,1.79.07c1.2.06,2,.65,1.68,1.52-.18.58-.87,1-1.4,1.46a5.3,5.3,0,0,1-1.18.62,1.72,1.72,0,0,1-.73.25c-1.48,0-3-.13-4.44-.2-.07,0-.14,0-.19,0-1.53.8-3-.12-4.42-.26a.91.91,0,0,1-.58-1.59,2.32,2.32,0,0,1,2.06-1,9.53,9.53,0,0,0,3.26-.84c.24-.08.45-.55.49-.86a34.47,34.47,0,0,0,0-8.73c-.15-1-.73-5.06-.85-5.72a27.84,27.84,0,0,1-.35-3.88c-.09-2.08-.17-4.16-.12-6.24.05-2.38.26-4.75.38-7.12a20.28,20.28,0,0,1,.13-3.41c.71-3.17.06-6.35.17-9.53A7.71,7.71,0,0,0,257,10Z"/></g></g></svg>