<?xml version="1.0" encoding="UTF-8"?><svg id="Layer_2" xmlns="http://www.w3.org/2000/svg" viewBox="0 0 313.73 246.09"><defs><style>.cls-1{fill:#fff;}</style></defs><g id="Layer_1-2"><path d="M130.06,178.56c-.03-.13-.11-.28-.08-.4,.08-.31,.15-.67,.35-.9,.19-.21,.61,.17,.76,.75,.27,.99,.66,1.98,.22,2.92,.33,.51,.5,1.04,.87,1.29,.7,.47,.82,1.25,.8,1.83-.07,1.91,.47,3.65,1.04,5.41,.23,.71,.29,1.47,.43,2.22-1.28,.09-1.12-1.19-1.69-1.7-.51,.28-.33,.64-.27,.93,.11,.54,.49,1.1,.39,1.59-.27,1.38,.73,2.25,1.02,3.46,.53-.48,.26-1.44,1.22-1.34,.55,1.04,.71,2.1,.12,3.27l-.6-1.01q-.71,.9,0,2.26c.22-.14,.43-.31,.66-.4,.7-.27,1.06-.16,1.39,.4,.41,.71,.84,1.42,1.2,2.16,.14,.29,.12,.65,.18,.98,.1,.6,.1,1.25,.34,1.8,.2,.46,.68,.81,1.1,1.28l-.38,1.44c.69,1.01,1.28,2.16,1.56,3.46,.13,.59,.52,1.12,.81,1.67,.13,.24,.38,.43,.45,.68,.2,.72,.2,1.53,.52,2.18,.3,.61,.68,1.16,.89,1.84,.51,1.65,1.12,3.28,1.75,4.89,.78,2,1.62,3.98,2.46,5.96,.41,.95,.9,1.87,1.29,2.83,.36,.89,.71,1.8,.93,2.73,.08,.34-.1,.85-.33,1.13-.28,.32-.75,.47-1.17,.72l-1.05-.93-.99,.81c-.49-.3-.97-.8-1.5-.87-.67-.08-1.2-.26-1.65-.87-1.03,.43-2.02,.84-3.03,1.27-.5-.31-1.04-.88-1.42,.08-.97-.17-.89-1.1-1.41-1.53-.44-.14-.53,.35-.82,.46-.18,.07-.44,.13-.59,.05-.68-.38-1.22-.85-1.32-1.73-.09-.82-.24-1.65-.5-2.42-.78-2.29-1.65-4.55-2.44-6.84-1.03-3-2.02-6.03-3.03-9.04-.18-.52-.43-1.03-.6-1.55-.25-.79-.44-1.59-.69-2.38-.23-.72-.5-1.43-.75-2.15-.69-1.96-1.36-3.92-2.07-5.88-.14-.38-.37-.73-.61-1.2-.95-.02-1.93-.15-2.87-.03-3.65,.44-7.32,.48-10.99,.5-2.56,.01-5.12,0-7.67-.06-.96-.02-1.91-.18-2.94-.28-.05-.58,.01-1.07-.16-1.46-.15-.34-.56-.57-.98-.96-.75,1.62-1.48,3.08-2.09,4.58-1.02,2.5-2.22,4.91-3.38,7.34-1.27,2.64-2.89,5.01-4.55,7.38-.24,.34-.43,.72-.58,1.1-.25,.67-.58,1.25-1.2,1.64-.22,.14-.45,.36-.55,.6-.48,1.18-1.36,2.09-2.04,3.12-1.87,2.83-3.67,5.69-5.53,8.53-.26,.4-.64,.71-.97,1.06-.72-.37-1.39-.68-2.02-1.05-.28-.17-.49-.46-.73-.69-.19-.17-.39-.47-.59-.47-1.38,0-2.28-.82-3.16-1.72-.19-.2-.43-.34-.61-.48l-.37-1.94-1.68-.43,.75-1.96c-.96,.54-1.65,.97-2.38,1.33-1.06,.53-2.13,.98-3.38,.81-.46-.06-.95,.12-1.42,.2-.95,.16-1.95,.2-2.84,.54-.81,.31-1.49,.97-2.24,1.44-.99,.62-1.99,1.21-3.19,1.93-1.1,.02-2.48-.14-3.8,.42-.63,.26-1.35,.32-2.02,.48-.33,.08-.78,.09-.97,.3-.93,1.02-1.95,1.13-3.21,.68-.46-.17-1.09,0-1.61,.14-1.59,.46-3.16,1-4.74,1.48-1.74,.53-3.49,.8-5.28,.2-.3-.1-.71-.12-1,0-.63,.25-1.25,.18-1.84,0-.8-.24-1.52-.52-2.33,.1-.39,.3-.93,.02-1.32-.32-.34-.3-.77-.43-1.15-.16-.53,.37-1.09,.25-1.6,.15-.68-.12-1.34-.25-2.03-.22-.4,.01-.77-.12-1.06-.51-.78-1.06-1.09-1.06-2-.16-.14,.14-.27,.3-.47,.53-.84-.35-1.91-.26-2.39-1.33-.6-.09-1.03,.43-1.77,.22-1.16-.32-2.47-.02-3.67-.47-.19-.07-.51,.11-.72,.25-.81,.52-1.55,.43-2.28-.17-.31-.25-.64-.56-1.01-.63-.97-.18-1.8-.63-2.65-1.2l-.37-2.28-1.19,.55c-.63-.39-1.03-.93-.98-1.69,.05-.83-.02-1.71,.24-2.47,.51-1.47,.71-2.94,.58-4.48-.07-.88,.02-.97,.56-2.09,.72-.11,.4,.8,1.04,.94-.03-.64-.06-1.25-.09-1.85-.04-.72,.07-1.39,.72-1.84,.57-.39,.81-.9,.66-1.61-.07-.32-.02-.69,.08-1.01,.16-.47,.18-.91,.13-1.42-.07-.67-.07-1.4,.13-2.03,.15-.49,.25-.82-.05-1.3-.2-.31-.28-.84-.16-1.19,.53-1.66,.02-3.27-.1-4.9-.05-.69-.17-1.4-.08-2.07,.18-1.36-.06-2.75,.34-4.1,.13-.44,.09-1-.05-1.44-.44-1.38-.23-2.76-.11-4.13,.18-2.08,.2-4.15,.13-6.23-.05-1.51,.16-3.04,.32-4.55,.08-.7,.06-1.36,0-2.06-.2-2-.17-4,.25-5.98,.09-.4,.21-.83,.15-1.22-.46-3.18-.12-6.37-.13-9.55-.01-2.14,.22-4.28,.39-6.42,.06-.76,.26-1.5,.43-2.24,.16-.66,.37-1.3,.61-2.11,.46-.13,1.04-.29,1.7-.48q.86-1.4,3.47-1.95c.53-.46-.09-1.36,.72-1.81,.6-.33,1.12-.46,1.81-.23,.6,1.12,.31,2.42,.6,3.7,.56-.15,1.13-.31,1.85-.5,.49,.45,1.05,.95,1.67,1.52,.2-.1,.49-.17,.66-.35,1.11-1.14,2.53-1.71,4.01-2.1,1.87-.49,3.79-.83,5.67-1.29,1.17-.29,2.28-.26,3.45,.06,1.26,.34,2.57,.53,3.88,.71,1.79,.25,3.57,.48,5.23,1.24,1.7,.78,3.42,1.5,5.11,2.31,1.28,.61,2.23,1.64,3.07,2.75,.47,.62,.98,1.15,1.68,1.52,.29,.15,.53,.42,.72,.69,.26,.38,.56,.52,1.02,.55,1.03,.08,1.86,.5,2.11,1.64,.04,.19,.11,.44,.25,.54,1.54,1.07,1.7,2.91,2.48,4.4,.37,.71,.44,1.44,0,2.16,1.7,.6,1.1,2.08,1.51,3.17-.39,.22-.69,.38-.98,.54,0-.15-.02-.29-.03-.42l.05,.39,.84,.88c-.97,2.23-.12,4.59-.83,6.93-1.33,.6-2.19,1.82-2.89,3.16l-.92-.08c-.31,.51-.63,1.04-.95,1.57,.61,.55-.04,1.15,.08,1.83,.65,.39,1.36,.81,2.07,1.24,1.48,.9,2.98,1.77,4.44,2.7,.52,.33,1.01,.75,1.44,1.2,1.64,1.7,3.14,3.51,4.52,5.42,.57,.78,1.18,1.56,1.89,2.21,1.18,1.06,1.73,2.5,2.44,3.83,.07,.13-.18,.43-.41,.92,.19,.54,.89,1.21,.8,2.15-.02,.17,.13,.43,.28,.54,1.18,.81,1.11,2.17,1.51,3.32,.39,1.12,.54,2.21,.32,3.45-.18,1.03,.18,2.16,.31,3.3-.25,.32-.53,.7-.83,1.07-.39,.5-.61,1.04-.6,1.71,.01,1.17-.08,2.33-.14,3.69,.29-.24,.53-.36,.65-.56,1.29-2.22,2.67-4.38,4.24-6.41,.29-.38,.6-.8,.71-1.24,.19-.75,.57-1.35,.98-2,.37-.58,.68-1.15,1.17-1.67,.35-.37,.52-.97,.62-1.5,.18-.89,.5-1.67,.95-2.48,.81-1.44,1.39-3.01,2.05-4.53,1.39-3.18,2.46-6.48,3.68-9.72,1.31-3.5,2.71-6.97,4.37-10.33,2.09-4.22,3.92-8.56,5.78-12.88,.88-2.04,1.83-4.04,2.73-6.07,.59-1.33,1.08-2.7,1.71-4.01,1.33-2.74,2.84-5.39,3.82-8.29,.13-.38,.41-.72,.67-1.04,.44-.52,.92-1.01,1.41-1.54,2.81-.22,5.37,.77,7.82,2.07,.38,.2,.66,.24,1.05,.29,1.01,.14,2,.45,2.96,.8,.34,.12,.66,.54,.8,.9,1,2.47,2.67,4.53,4.01,6.8,.74,1.25,1.45,2.52,1.84,3.95,.14,.51,.54,.95,.67,1.46,.12,.45-.02,.97,.06,1.44,.1,.57,.18,1.17,1.05,1.19,.36,0,.32,.59-.15,1.16,.57,1.42,1.11,2.92,1.78,4.35,.46,.98,.38,2.02,.57,3.02,.06,.31-.38,.7-.53,1.08-.22,.53,0,.95,.43,1.27,.1,.07,.24,.11,.36,.12,.9,.12,.9,.11,1.17,1.02l-1.24,.4c.11,.52,.2,1.06,.36,1.57,.04,.14,.31,.22,.47,.34,0,.46,0,.92,0,1.37h.17l-.17-1.34Zm-8.41,9.37c-.07-.1-.14-.21-.22-.3-.01-.01-.07,.02-.11,.03l.4,.22c-.18,.43-.3,.85,.11,1.28q.46-.73-.17-1.22Zm14.24,13.91l-.05,.35,.06-.33c-.07-.4-.07-.83-.23-1.19-.14-.33,.4-.77-.21-1.02-.47,.88-.34,1.6,.42,2.2Zm-117.94,18.12c.44,0,.78-.05,1.1,0,1.63,.3,3.26,.56,4.88-.06,2.79-.06,5.47-.75,8.13-1.51,.32-.09,.72-.17,.91-.4,.45-.56,1.06-.68,1.67-.67,2.44,.02,4.82-.42,7.23-.72,2.34-.29,4.65-.71,6.93-1.31,.53-.14,1.08-.23,1.63-.29,1.85-.2,3.71-.38,5.56-.58,.27-.03,.54-.11,.81-.18,.52-.13,.88-.44,.95-.98,.18-1.3,.48-2.61,.47-3.91-.02-3.18-.93-6.12-2.54-8.88-1.93-3.29-4.63-5.46-8.39-6.26-.95-.2-1.89-.46-2.82-.73-1.23-.35-2.34-1.18-3.74-.73-.28,.09-.67-.14-1.01-.21-.34-.06-.69-.19-1.01-.14-1.99,.26-3.96,.62-5.96,.84-2.27,.25-4.26,1.74-6.64,1.45-.12-.01-.27,.07-.38,.15-.74,.51-1.41,.47-2.03-.21-.12-.14-.45-.3-.51-.25-.68,.62-1.54-.15-2.15,.23-.75,.47-1.46,.24-2.2,.18-.39-.03-.79,0-1.31,0-.11,1.44-.23,2.73-.29,4.04-.06,1.38-.07,2.77-.06,4.15,0,.76,.08,1.52,.11,2.28,0,.27,.06,.65-.09,.79-.67,.63-.57,1.1,.07,1.7,.24,.22,.2,.79,.21,1.2,.02,1.73,.07,3.47,0,5.2-.07,1.94,.12,3.84,.47,5.81Zm.17-39.97c1.98,.25,3.66-.31,5.35-.57,3.02-.47,6.03-.95,9.09-.51,.14,.02,.28,.01,.41,.04,1.09,.17,2.04-.16,2.96-.73,.88-.55,1.79-1.04,2.69-1.56,1.14-.66,2.3-1.3,3.43-1.97,1.66-.99,2.56-2.45,2.82-4.37,.25-1.84-.26-3.57-.58-5.34-.21-1.15-.89-1.82-1.9-2.26-1.66-.71-3.38-1.27-5.16-1.51-2.19-.3-4.4-.69-6.6-.7-2.05-.01-4.13,.25-6.13,.72-1.14,.27-2.4,.61-3.31,1.58-.28,.3-.87,.47-1.27,.09l-.72-3.29c-.53,3.79-1.03,7.1-.99,10.49,.03,2.84-.06,5.69-.09,8.53,0,.41,0,.81,0,1.38Zm99.58-8.98c-.52-.41-.94-.59-1.1-.9-.24-.48-.31-1.05-.46-1.58-.2-.72-.34-1.48-.64-2.16-.47-1.07-1.08-2.09-1.22-3.29-.02-.17-.25-.31-.38-.46-.08,.04-.18,.05-.2,.1-4.42,9.74-8.81,19.5-13.57,29.09-.09,.17-.08,.39-.15,.72,.5,.06,.95,.16,1.4,.16,2.15,0,4.29-.01,6.44-.04,3.88-.05,7.76,0,11.61-.49,.65-.08,1.4,.06,1.94-.57-.24-2.15-.87-4.19-1.5-6.22-.65-2.1-.84-4.31-1.56-6.42l.85-2.5c-.18-.1-.37-.18-.51-.3-.2-.17-.51-.36-.53-.57-.19-1.55-1.04-3.04-.42-4.56ZM5.32,199.36c.1-.29,.13-.36,.14-.42,.07-.63-.07-.93-.47-.99-.06,0-.16,0-.19,.05-.29,.38,.05,.63,.2,.91,.07,.12,.15,.22,.32,.45Zm121.93-13.55c.03-.06,.09-.11,.09-.17,.03-.32,.09-.66-.33-.8-.05-.01-.14,.02-.16,.05-.24,.36,.06,.59,.22,.85,.03,.04,.11,.05,.17,.07Zm.35,2.73c-.02,.12-.04,.23-.04,.35,0,0,.13,.02,.2,.03,0-.12-.01-.24-.03-.35,0-.02-.09-.02-.14-.03Zm4.24-1.61l-.07-.18c-.02,.06-.06,.12-.06,.18,0,.06,.04,.12,.07,.18l.07-.18Zm-11.1-2.56l-.13-.15c-.06,.1-.13,.2-.16,.31-.01,.03,.08,.1,.12,.15,.06-.11,.12-.21,.17-.32Zm6.99-13.29l-.2-.26s-.14,.08-.13,.11c.01,.11,.06,.21,.09,.32,.08-.05,.16-.11,.24-.17Zm-6.41,13.36s-.14,.09-.13,.12c.02,.11,.08,.21,.12,.31,.05-.04,.14-.09,.13-.11-.03-.11-.08-.21-.12-.31Zm2.52-10.49l.07-.14-.12-.02,.04,.15Zm4.23-1.17l-.08,.13,.13,.02-.05-.15Z"/><path d="M223.15,123.57c-.24,.67,.06,.85,.69,.87,.15,0,.4,.39,.39,.59-.02,.2-.29,.4-.48,.55-.08,.06-.26-.03-.39-.05-.2-.03-.41-.05-.66-.08-.92,.8-1.77,1.74-2.81,2.38-.72,.45-1.52,1.2-2.61,.6-.27-.15-.78,.12-1.26,.22-.72-.81-1.34-1.66-1.26-2.89,.02-.39-.11-.9-.37-1.17-.54-.55-.62-1.25-.75-1.9-.24-1.26-.57-2.42-2.12-3.36l-1.79-.53-.2,1.14c-.09-.03-.24-.05-.26-.11-.46-1.32-.57-2.68-.45-4.07,.03-.34,.09-.73-.03-1.03-.5-1.35-.06-2.72-.12-4.07,0-.08,.17-.16,.37-.34,.3,.51,.12,1.07,.2,1.58,.06,.4,.18,.8,.35,1.17,.05,.12,.35,.16,.54,.17,.08,0,.27-.22,.24-.27-.33-.74-.04-1.44,.11-2.14,.18-.81-.27-1.49-.37-2.23-.23-1.64-.43-3.29-.63-4.94-.03-.27-.06-.57,0-.82,.25-.91,.1-1.73-.19-2.63-.24-.75-.05-1.64-.06-2.47,0-.41,.16-.95-.05-1.21-.76-.95-.54-1.94-.3-2.91-.28-.54-.56-1.02-.78-1.52-.32-.71-.54-1.42,.02-2.16,.15-.19,.23-.6,.13-.78-.56-.96-.36-2-.4-3.01,0-.14,.01-.32-.06-.41-1.02-1.12-.65-2.48-.68-3.77-.02-.83,0-1.66,0-2.56l.88-1.19-1.12-.99c0-1.1-.27-2.26,.42-3.36,.2-.32,.24-.82,.17-1.21-.15-.98-.12-2.01-.77-3.11-.54,1.24-1.06,2.28-1.47,3.36-2.04,5.37-4.07,10.76-6.07,16.15-.48,1.29-.76,2.67-1.28,3.94-.52,1.29-1,2.57-1.17,3.96-.03,.25-.14,.56-.33,.71-.49,.43-.49,.99-.49,1.53,0,.91-.1,1.77-.43,2.64-.27,.7-.3,1.49-.44,2.24-.09,.47-.13,.97-.31,1.41-.33,.79-.46,1.59-.46,2.43,0,.41-.03,.85-.16,1.23-.67,1.99-.36,4-.06,5.97,.14,.96,.12,1.76-.41,2.57l-1.01,.08-.22,1.84c-.21,.14-.37,.26-.55,.36-1.43,.8-1.46,.86-2.98,.2-.85-.37-1.44,.09-2.2,.44l-.73-1.45c-.35,.1-.8,.12-1.08,.35-.26,.21-.35,.64-.51,.96-1.29-.04-.81-1.46-1.56-2l-1.16,.76-1.4-.61c-.05-.17-.13-.36-.15-.56-.13-1.33-.64-2.52-1.26-3.67-.16-.3-.39-.64-.37-.94,.06-.82-.3-1.46-.62-2.15-.35-.75-.06-1.15,1.14-1.55-.26-.55-.51-1.07-.85-1.76l-.89,.89c-.54-.18-.64-.58-.32-.95,.41-.46,.94-.81,1.42-1.21,.22-.85,.02-1.64-.18-2.56q-.48,.93-1.07,1.41-.34-.09-.56-1.89c.31-.35,.65-.68,.93-1.07,.35-.49,.3-.88-.3-1.34-.31-.24-.4-.52-.54-.83-.43-.93-.87-1.86-1.3-2.79-.06-.12-.11-.28-.08-.4,.35-1.14,.02-2.17-.45-3.2-.13-.27-.04-.7,.07-1.01,.5-1.39,.22-2.77-.2-4.07-.29-.89-.38-1.78-.34-2.65,.06-1.45,.07-2.89-.08-4.33-.04-.41,.04-.92-.17-1.22-.66-.9-.53-1.81-.32-2.78,.07-.33,.07-.71-.04-1.03-.55-1.67-.47-3.42-.54-5.12-.07-1.81-.41-3.57-.63-5.36-.03-.25-.17-.49-.29-.83-.65,.26-.62,.79-.75,1.2-1.05,3.3-1.74,6.7-2.55,10.06-.26,1.07-.59,2.13-.89,3.19-.11,.4-.33,.8-.33,1.2,.02,1.78-.74,3.38-1.08,5.07-.66,3.26-1.58,6.46-2.28,9.71-.89,4.14-2.03,8.2-3.55,12.15-.97,2.52-2,5.02-2.94,7.55-.65,1.75-1.16,3.54-1.76,5.31-.2,.58-.44,1.17-.75,1.69-.27,.45-1.14,.54-1.46,.12-.76-.98-1.79-1.48-2.88-1.96-.55-.24-1-.73-1.5-1.09-.38-.28-.78-.53-1.17-.79-.23-.15-.57-.27-.65-.48-.44-1.25-1.53-1.5-2.61-1.8-.25-.07-.47-.26-.77-.43,.11-.77,.06-1.59,.36-2.25,1.12-2.39,1.34-5.08,2.65-7.41,.5-.88,.64-1.96,.96-2.95,.17-.51,.42-1,.59-1.52,.13-.38,.24-.79,.28-1.19,.14-1.58,.04-3.21,1.01-4.61,.02-1.15,.57-2.12,.99-3.15,.18-.43,.23-.96,.16-1.43-.15-1.08,.16-2.06,.5-3.04,.18-.52,.27-1.07,.46-1.58,.11-.31,.33-.59,.51-.88-.02,.31-.04,.62-.06,.94h.13l-.06-.93c.05-.91,.1-1.82,.16-2.72,.03-.44,.21-.77,.71-.82v-.02l.47,.2c.07-.26,.24-.53,.21-.77-.08-.61-.26-1.21-.37-1.82-.06-.33-.13-.7-.04-1.01,.32-1.13,.72-2.23,1.07-3.35,.16-.52,.33-1.06,.39-1.6,.1-.81,.4-1.46,1.16-1.97-.6-1.68-.23-3.34,.36-4.98,.18-.52,.25-1.07,.39-1.6,.34-1.34,.7-2.67,1.05-4.01,.11-.42,.32-.67,.8-.79,.55-.14,.59-.72,.64-1.2,.12-1.31,.2-2.62,.31-3.92,.04-.41,.06-.84,.2-1.22,.55-1.41,1.06-2.84,1.38-4.32,.19-.86,.67-1.46,1.45-1.75v-2.32c.71-.54,1.05-1.29,1.13-2.37,.14-1.75,.51-3.53,1.63-5.03,.27-.36,.4-.87,.49-1.33,.28-1.5,.54-3,.74-4.51,.15-1.13,.66-1.61,1.84-1.8,.76-.12,1.44-.25,2.2-.07,1.01,.24,2.05,.31,3.07,.51,.61,.12,1.19,.34,1.78,.52,.37,1,1.29,.35,1.9,.63,1.16-.66,1.85,.26,2.58,.84,.48,.38,.83,.88,.81,1.59-.02,.75,.08,1.51,.13,2.39l1.9,.26c.04,.68,.15,1.3,.1,1.91-.19,2.35,.46,4.55,1.27,6.67,1.26,3.28,1.75,6.67,2.04,10.13,.25,2.96,.41,5.93,.73,8.89,.25,2.26,.13,4.57,.16,6.86,.01,.76-.07,1.51,.43,2.19,.16,.22,.05,.64,.04,.97-.03,.76-.1,1.52-.12,2.28,0,.27,.01,.58,.14,.81,.18,.33,.75,.4,.65,.94-.06,.31-.11,.62-.22,1.3,.77-1,1.14-1.74,1.17-2.66,.02-.45,.25-.8,.9-.64l.47,1.6c.24-.18,.47-.26,.51-.4,.17-.61,.58-.7,1.18-.58,.19-.4,.3-.88,.59-1.19,.31-.33,.79-.48,1.32-.79-.66-.7-1-1.63-1.96-2l.02,.03c.28-.59,.22-1.19,.07-1.8l-1.51-.28c.19-1.59,.91-2.83,1.54-4.1,.06-.12,.14-.31,.24-.32,1.23-.22,1.33-1.42,1.63-1.82,.6-.73,1.13,0,1.38-.57,.14-.31,.25-.63,.38-.95,0-.14-.03-.27-.02-.4,0-.06,.04-.13,.07-.19-.02,.07-.06,.13-.06,.2,0,.13,0,.27,0,.41-1.51-1.17-1.23-.94-1.04-2.39,.24-1.85,.61-3.68,.95-5.51,.04-.22,.3-.41,.46-.61l-.05-.04c.08,.33,.1,.7,.27,.97,.1,.16,.45,.17,.79,.29,.04-.48,.2-.89,.07-1.14-.52-.92-.16-1.78,.16-2.56,.79-1.91,1.22-3.81,.55-5.84-.1-.3-.04-.69,.05-1.01,.31-1.13,.65-2.25,1-3.42,.42,0,.76,.05,1.07-.01,.61-.11,.9-.38,.86-.97-.08-1.22,.08-2.35,.82-3.36,.69-3.25,1.86-6.38,2.39-9.67,.03-.2,.03-.4,.04-.63,1.11-.44,1.61,.44,2.18,1.08,.42-.17,.73-.33,1.05-.41,1.81-.47,3.11,.25,3.65,2.06,.2,.66,.27,1.36,.45,2.03,.15,.53,.33,1.06,.57,1.55,.22,.44,.95,.49,1.25,.1,.3-.38,.51-.82,.79-1.29,.37,.06,.75,.2,1.12,.16,.29-.03,.56-.28,.88-.46,.4,2.24,.36,4.42,1.43,6.35,.52,2.65,1.05,5.3,1,8.03-.02,1.38,.09,2.76,.2,4.14,.18,2.26,.06,4.55,.03,6.83-.05,3.67-.13,7.35-.21,11.02-.02,.97-.06,1.94-.08,2.91-.02,.7,.02,1.35,.57,1.92,.3,.32,.61,.94,.51,1.29-.36,1.18,.45,2.19,.32,3.35-.13,1.15,.18,2.35,.1,3.51-.1,1.4,.23,2.59,1.24,3.64-.24,.53-.46,1.03-.67,1.53-.54,.13-.77,.53-.79,1.03,0,.15,.16,.4,.3,.45,.28,.1,.56-.06,.57-.36,.01-.39-.09-.78-.15-1.17,.22,.17,.48,.3,.64,.52,.24,.33,.42,3.35,.15,3.56-.85,.68-.56,1.46-.33,2.26,.02,.06-.02,.13-.06,.33l-.97,.31c.11,.71,.22,1.44,.34,2.3l1.11-.18q-.35,1.98,.28,3.1c-.17,.17-.34,.38-.55,.53-.37,.27-.55,.62-.49,1.07,.22,1.7-.05,3.46,.67,5.12,.21,.47,.07,1.09,.11,1.64,.07,1.17,.17,2.34,.21,3.51,.11,2.83,.19,5.67,.29,8.5,.03,.8-.19,1.38-1.27,1.26l.46,1.59,1.39,.37-.03-.04Zm-57.65-50.6c-.06,.03-.13,.05-.17,.09-.03,.03-.01,.09-.02,.14,.04-.09,.08-.19,.13-.28,.11-.05,.22-.09,.32-.15,.02-.01-.02-.11-.03-.17l-.23,.37Zm-4.15-10.8c-.36,.25-.44,.54-.12,1.03,.03-.45,.05-.77,.06-1.09l.16-.34-.1,.39Zm1.03-4.55c1.34-1.07,1.61-1.74,1.21-3.03-.6,.31-.95,.76-.98,1.45-.02,.53,.17,1.11-.25,1.59l.08,.33-.06-.35Zm3.19-8.4c-1,.33-.79,.91-.96,1.31-.17,.39-.57,.67-.88,1.01l.34,1.2c1-.9,.79-2.2,1.49-3.52Zm.54,4.6q-1.13,.95-1.18,3.79c.97-1.18,.52-2.65,1.18-3.79Zm31.8,10.91l1.77-1.25c-.62-.17-.98-.33-1.35-.34-.22,0-.58,.18-.63,.35-.07,.26,.08,.58,.21,1.23Zm-39.03,6.12c1.21-.77,.63-1.54,.62-2.39-.9,.67-.67,1.4-.62,2.39Zm1.03-3.9l.3,.05c.19-.81,.38-1.61,.6-2.54-.19,.13-.25,.16-.3,.2-.05,.05-.1,.1-.11,.17-.17,.7-.33,1.41-.49,2.12Zm44.6-29.77c-.38,.24-.58,.32-.72,.46-.25,.24-.43,.54-.23,.9,.03,.05,.1,.11,.16,.12,.43,.05,.61-.25,.73-.58,.07-.18,.03-.4,.06-.9Zm-7.42,23.26c-.08-.15-.11-.32-.21-.37-.09-.04-.33,.02-.35,.08-.09,.24-.12,.49-.15,.75,0,.05,.08,.15,.12,.15,.12-.01,.29-.02,.35-.1,.12-.15,.17-.35,.24-.51Zm.53,7.4c-.25-.23-.37-.42-.54-.47-.28-.1-.54,.26-.48,.69,.02,.15,.22,.27,.33,.41l.68-.63Zm-1.66,4.13l.31,.14c.11-.23,.24-.45,.31-.69,.03-.09-.08-.23-.13-.35-.11,.05-.29,.07-.31,.15-.09,.24-.12,.49-.17,.74Zm4.07-26.89c-.07,.09-.2,.18-.21,.29-.01,.12,.08,.25,.13,.37,.11-.13,.25-.26,.33-.41,.02-.03-.16-.16-.25-.25Zm1.76,.41c.45-.3,.74-.57,.53-1.13-.56,.16-.71,.51-.53,1.13Zm-8.55,67.66h-.04l-.03,.5,.07-.5Zm11.81-78.24l-.17-.41c-.15,.11-.36,.2-.42,.34-.04,.08,.15,.27,.24,.41l.35-.35Zm-43.12,25.85c.22-.47,.35-.68,.41-.91,.02-.08-.14-.21-.22-.32-.12,.12-.31,.22-.35,.35-.04,.17,.06,.37,.15,.87Zm14.78,37.95l.24-.1c-.12-.15-.23-.3-.35-.45,0,0-.13,.08-.13,.09,.07,.16,.16,.31,.24,.46Zm24.13-48.04l-.11-.17s-.14,.1-.13,.14c.04,.14,.1,.28,.16,.42,.03-.13,.06-.26,.09-.39Zm4.02-8.77l.22-.93-.3-.04,.07,.97Zm-13.94,39.55l-.17-.45c-.14,.13-.31,.24-.41,.4-.03,.05,.11,.22,.17,.33l.41-.28Zm29.4,4.38c.08-.21,.19-.38,.21-.56,0-.09-.15-.19-.24-.28-.08,.17-.2,.33-.23,.5-.01,.08,.14,.2,.26,.35Zm-53.7-40.5c-.16,.11-.34,.18-.34,.26-.01,.17,.06,.35,.1,.53,.1-.07,.27-.12,.28-.2,.03-.18-.02-.37-.04-.59Zm54.68,45.4l-.19-.31s-.14,.09-.14,.14c0,.12,.05,.25,.07,.37,.08-.07,.17-.13,.25-.2Zm-28.97-11.06l-.05,.17,.23,.03c0-.06,0-.13-.03-.17-.02-.03-.1-.02-.15-.03Zm-32.42-3.11l-.02,.33c.04-.05,.1-.1,.1-.15,0-.06-.05-.12-.08-.17Zm-1.3-4.32l-.07,.15,.24,.04c0-.05,0-.12-.02-.16-.02-.03-.1-.02-.15-.03Zm34.5-1.91l.15-.1s-.09-.1-.14-.1c-.05,0-.1,.06-.15,.09l.15,.11Zm7.29-11.61c.01-.05,.04-.12,.02-.16-.02-.04-.09-.05-.14-.07l-.02,.26,.14-.04Zm11.23,52.74l-.07-.17s-.11,.08-.12,.13c-.01,.05,.04,.12,.06,.17l.13-.13Z"/><path d="M3.9,25.86c.31-.15,.67-.24,.92-.46,1.15-.97,2.5-1.05,3.91-1.02,1.52,.03,3.05-.18,4.49,.56,.22,.11,.54,.02,.81,0,.28-.01,.55-.06,.83-.07,2.79-.03,4.26,.96,4.6,4.16,.14,1.24,.36,2.47,.44,3.72,.06,.89,.16,1.86-.12,2.68-.66,1.92-.32,3.85-.29,5.77,.01,1.18,.13,2.35,.19,3.52,.05,.9,.1,1.8,.14,2.7,.08,1.8,.2,3.6,.21,5.4,.01,2.29,.21,4.55,.57,6.98,.33-.18,.6-.25,.76-.43,1.25-1.39,2.46-2.81,3.72-4.2,1.8-1.99,3.62-3.97,5.43-5.95,.14-.15,.32-.27,.41-.44,1.39-2.68,3.61-4.71,5.51-6.99,.84-1.01,1.64-2.06,2.49-3.06,.72-.84,1.41-1.74,2.25-2.44,1.07-.88,1.96-1.93,2.88-2.94,1.16-1.27,2.16-2.7,3.14-4.12,.75-1.09,1.39-2.24,2.54-2.99,.23-.15,.47-.35,.57-.59,.86-1.98,2.94-2.69,4.29-4.16,.17-.18,.5-.32,.74-.3,1.28,.1,2.58,.03,3.59,1.19,.69,.79,1.48,1.57,2.59,1.89,.36,.1,.71,.42,.96,.72,.2,.24,.15,.74,.37,.9,.22,.16,.68-.04,.97,.07,.3,.11,.61,.36,.79,.63,.27,.4,.42,.87,.62,1.29,.16,.03,.29,.08,.42,.08,.33-.01,.71-.17,.97-.05,.44,.21,.38,.72,.27,1.12-.14,.53-.34,1.06-.6,1.54-.47,.84-1.05,1.63-1.53,2.47-1.04,1.84-2.57,3.29-4.03,4.73-2.07,2.05-3.9,4.32-6,6.34-.4,.38-.77,.8-1.15,1.2-1.57,1.66-3.21,3.27-4.69,5.01-2.89,3.37-5.7,6.79-8.53,10.21-1.99,2.41-3.92,4.86-5.91,7.26-.92,1.11-1.92,2.15-2.94,3.3,1.26,1.15,2.43,2.22,3.6,3.3,1.17,1.08,2.3,2.21,3.49,3.27,3.55,3.14,6.43,6.89,9.5,10.47,1.62,1.89,3.22,3.81,4.8,5.75,1.93,2.36,4.01,4.56,6.19,6.69,1.78,1.74,3.47,3.58,4.7,5.8,.67,1.2,1.4,2.37,2.51,3.28,.52,.43,.87,1.07,1.28,1.63,.84,1.18,1.6,2.43,2.51,3.56,1.69,2.12,2.79,4.59,4.11,6.93,.4,.71,.33,1.32-.15,1.92-1.21,1.51-2.44,3-3.66,4.5-.31,.37-.78,.68-.93,1.1-.43,1.2-1.42,1.7-2.46,2.04-.6,.2-7.22,.65-7.47,1-1.18-.05,4.58-.59,3.76-1.43-2.18-2.23-4.67-4.13-7.05-6.14-2.59-2.19-5.39-4.14-7.74-6.62-.28-.3-.69-.46-1.01-.73-.58-.49-1.23-.94-1.69-1.53-1.38-1.73-2.97-3.29-4.11-5.21-.38-.64-1-1.14-1.48-1.74-1.47-1.84-2.9-3.72-4.38-5.55-.83-1.02-1.68-2.03-2.61-2.97-1.03-1.04-2.07-2.05-2.88-3.28-.22-.34-.59-.58-.86-.89-.81-.94-1.62-1.88-2.42-2.84-.49-.58-.86-1.28-1.42-1.78-1.63-1.43-2.97-3.09-4.2-4.86-.07-.1-.2-.17-.36-.3-.11,.16-.3,.32-.3,.47-.12,3.53-.7,7.04-.42,10.59,.11,1.45,.14,2.91,.14,4.36,0,.54-.12,1.11-.34,1.59-.26,.58-.46,1.15-.45,1.79,.04,2.14,0,4.25,.45,6.4,.47,2.21,.81,4.52,.2,6.8-.14,.52-.38,1.01-.53,1.4-1.93,.57-3.84,.15-5.47,.97-.22-.08-.39-.09-.46-.19-.51-.65-1.29-.76-1.84-.39-1.02,.68-1.76,.45-2.5-.42-.54,.81-1.1,1.28-2.06,.64-.19-.12-.7,.24-1.03,.37-.51-.48-.57-1.02-.59-1.57-.21-4.23-.52-8.45-.6-12.68-.06-3.6,.15-7.21,.24-10.82,0-.14-.03-.29,.03-.41,.7-1.62,.32-3.27,.19-4.93-.05-.54-.04-1.16,.19-1.62,.46-.92,.45-1.87,.46-2.84,.02-1.32,.1-2.63,.13-3.95,.01-.55-.08-1.11-.04-1.65,.11-1.52,.43-3.04,.37-4.55-.06-1.44-.39-2.86-.14-4.32,.09-.54,.02-1.08,.32-1.6,.18-.33,.14-.8,.15-1.21,0-1.04-.01-2.08-.04-3.12-.03-.98-.16-1.88-1.09-2.53-.31-.22-.42-.84-.48-1.3-.23-1.72-.33-3.45-.62-5.16-.31-1.79-.1-3.46,.79-5.02,.39-.68,.4-1.3,.08-1.97-.97-2.03-1.23-4.23-1.7-6.4-.73-3.35-.76-6.75-.81-10.15-.01-.83,0-1.66,0-2.5,0-.28-.05-.56,0-.83,.19-1.22,.4-2.44,.64-3.9ZM50.26,106.78c.09,.74,.38,1.13,1.06,1.41-.06-.77-.15-1.33-1.06-1.41Zm-13.32-17.11c-.05-.11-.08-.25-.17-.31-.07-.05-.21,.02-.32,.03l.19,.42c.1-.05,.19-.1,.29-.15ZM6.61,56.68c.31-.31,.2-.61-.04-.89-.21,.31-.28,.61,.04,.89Zm42,46.88c-.2-.03-.38-.07-.55-.06-.05,0-.09,.19-.13,.29,.15,.05,.31,.14,.46,.13,.07,0,.12-.2,.22-.37Z"/><path d="M233.94,180.78l-.74-.34c-.31,.47-.22,.99-.05,1.47,.12,.35,.29,.7,.49,.99,.65,.93,.91,1.99,.79,2.97,.33,.45,.8,.81,.76,1.07-.26,1.84,.63,3.42,.73,5.16,.05,.83,.17,1.66,.28,2.49,.07,.52,.19,1.03,.31,1.53,.05,.22,.26,.47,.21,.62-.42,1.33,.23,2.55,.24,3.83,.02,1.28,.08,2.63,.79,3.73,.04,.06,.08,.13,.09,.2,.2,2.5,.99,4.95,.54,7.51-.02,.12-.15,.22-.29,.42-.55-.67-.44-1.58-.65-2.35-.09-.35-.24-.69-.39-1.01-.02-.04-.31,.02-.31,.07-.04,.28-.09,.6-.03,.86,.16,.62-.1,1.03-.4,1.44,0-.3,.03-.61-.04-.89-.03-.11-.28-.13-.43-.2-.01,.14-.07,.32-.02,.4,.15,.23,.35,.42,.53,.63,.44,1.17,.52,2.36,.06,3.65l.96-.07c.25,.44,.53,.93,.91,1.58,0-.84-.02-1.51,.01-2.17,0-.19,.16-.46,.29-.51,.13-.05,.42,.09,.47,.24,.26,.7,.56,1.41,.67,2.15,.34,2.26,.48,4.58,.92,6.81,.44,2.24,.78,4.54,1.61,6.64,.55,1.4,.52,2.81,.3,4.39l-1.19-.17-.71,1.15c-.37-.17-.71-.42-1.06-.44-.26-.02-.54,.37-.81,.38-.2,0-.41-.29-.7-.52-1,.67-2.04,1.36-3.06,2.04-1.22-.47-2.01-1.23-2.08-2.79,0-.11-.27-.2-.42-.29-.05,.2-.13,.4-.13,.59,.01,.29,.09,.57,.13,.83-.5,.34-.84,.05-1.1-.26-.3-.36-.75-.64-.75-1.29,0-.3-.13-.6-.14-.91-.08-2.34-.78-4.53-1.11-6.8-.18-1.21-.31-2.44-.47-3.66-.02-.15,.01-.33-.04-.46-1.01-2.73-.73-5.76-1.42-8.59-.64-2.65-1.2-5.34-1.52-8.1-.3-2.58-.78-5.12-1.23-7.67-.2-1.13-.36-2.25-.41-3.42-.06-1.36,.04-2.77-.5-4.08-.16-.38-.09-.9-.11-1.35,0-.23,.11-.54,.02-.67-.91-1.28-.54-2.97-1.02-4.39-.23-.7-.34-1.52-.31-2.27,.08-1.71-.39-3.17-1.14-4.71-.74,.21-1.23,.68-1.42,1.59-.27,1.27-.6,2.5-1.09,3.7-.63,1.54-1.5,2.82-2.48,4.16,.03,.46,.15,1,.09,1.52-.06,.51-.2,1.3-.47,1.42-.79,.36-.72,1.14-.9,1.82-.18,.67-.59,.93-1.25,.97l.23,1.81,.9-.19c.23,.64,.38,1.27-.11,1.86-.87,1.03-.82,2.58-1.52,3.69,.39,1.2-.33,2.04-.68,2.99-.1,.28-.16,.58-.23,.88-.4,1.62-.76,3.24-1.2,4.84-.14,.5-.45,.94-.72,1.36-.1,.15-.34,.27-.49,.23-.14-.03-.34-.28-.35-.45-.03-.61,0-1.22,0-1.83,.36-.06,.77-.07,.68-.72,0-.06-.09-.14-.13-.14-.53,.02-.5,.48-.5,.92-.36-.29-.73-.32-1.03,.08-.25,.34-.44,.74-.71,1.2,.1,.75,.21,1.56,.32,2.45,.27,.07,.5,.18,.73,.18,.24,0,.48-.11,.7-.16,.22,.33,.26,.62-.04,.78-.23,.12-.51,.09-.73,.21-.89,.46-1.57,1.18-1.9,2.31,.03,.14,.06,.26,.08,.38,.01,.06,.01,.13,.02,.2,.03-.09,.09-.2,.07-.28-.03-.12-.12-.22-.18-.33,.69-.06,1.38-.12,2.13-.18-.18,1.94-2.08,1.68-2.59,3.15,.07,.74,.14,1.55,.22,2.37,.03,.3,.04,.61,.11,.89q.54,2.27-.2,5.04h-2.39c-.37,.47-.66,.86-1.04,1.34-.27-.13-.56-.27-.84-.41-.95,.54-1.3,1.57-1.48,2.75-1.35,.48-2.57,.17-3.77-.45-.29-.15-.53-.54-.82-.58-1.31-.21-1.69-1.33-1.8-2.62-.46-5.79-1.84-11.36-2.74-17.04-.55-3.51-1.63-6.83-2.75-10.11-1.38-4.01-2.63-8.04-3.24-12.33-.06-.45-.26-.87-.34-1.32-.32-1.87-.93-3.7-.64-5.68,.03-.23,.09-.49,.02-.68-.69-1.98-.81-4.16-1.43-6.19-.84,.09-.98,.84-1.17,1.44-.41,1.3-.74,2.63-1.12,3.94-1.32,4.5-2.72,8.98-3.97,13.51-.93,3.36-1.71,6.79-2.49,10.2-1.23,5.35-2.24,10.78-3.8,16.01-.65,2.16-1.07,4.38-1.45,6.63-.35,2.1-.81,4.19-1.52,6.2-.52,1.47-.7,3.11-1.04,4.67-.13,.59-.29,1.18-.47,1.92-.32-.12-.66-.13-.87-.33-.5-.47-1.09-.45-1.65-.51-1.55-.17-3.01-.64-4.3-1.65-.24-.65-.14-1.24,.06-1.84,.03-.23,.07-.46,.1-.68h-.14l.06,.73c-.53,.1-.4,.69-.58,1.05-.1,.21-.4,.41-.6,.39-.33-.02-.62-.29-.57-.76,.04-.38,.15-.74,.22-1.12,0-.25,0-.49,0-.74l-.12,.02,.15,.76c-.76,.7-1.55,1.32-2.51,1.64-.71-.16-.96-.77-.84-1.53,.23-1.51,.5-3.02,.83-4.51,.47-2.16,1-4.29,1.5-6.44,.84-3.63,1.67-7.27,2.5-10.9,.34-1.47,.5-3,1.24-4.34,.29-.53,.21-1.34,.32-2.01,.65-3.93,1.53-7.8,2.55-11.62,.92-3.45,1.7-6.95,2.7-10.37,.63-2.16,1.05-4.44,2.19-6.36,.11-.18,.14-.43,.17-.65,.19-1.77,.73-3.4,1.28-5.06,.74-2.21,1.17-4.57,1.76-6.85,.82-3.16,1.69-6.3,2.39-9.51,.2-.92,.68-1.38,1.51-1.5,1.31-.2,2.55,.11,3.79,.51,1.16,.38,2.29,.87,3.45,1.27,.3,.1,.64,.06,.96,.03,1.19-.13,1.98,.59,2.53,1.73,.35,.73,.6,1.54,.91,2.3,.62,1.51,1.15,3.01,2.23,4.26,.99,1.14,1.81,2.59,2.32,4.22,.47,1.5,1.09,2.93,1.65,4.4,.1,.26,.29,.52,.3,.79,.01,.74,.13,1.36,.74,1.74,.15,.09,.25,.35,.3,.56,.64,2.57,1.46,5.07,2.23,7.59,.57,1.88,1.05,3.81,1.64,5.68,.45,1.43,1.01,2.81,1.58,4.41,1.01-1.27,1.59-2.62,2.24-3.92,1.39-2.79,2.39-5.8,3.28-8.86,.43-1.47,1.05-2.81,1.75-4.07,.93-1.68,1.67-3.43,2.28-5.29,.52-1.57,1.24-3.05,1.85-4.57,.66-1.67,1.27-3.37,1.89-5.06,.75-2.04,1.78-3.93,2.71-5.87,.35-.73,.78-1.4,1.16-2.08,.34-.02,.61,.02,.85-.06,.9-.27,1.8-.72,2.7-.01,.88-.57,1.59,.41,2.4,.4,.4,.75,1.04,.35,1.58,.46l.39,1.04c.72-.34,1.39-.73,2.06,.16,.18,.24,.7,.13,1.15,.18,.6,1.02,1.07,2.16,1.25,3.5,.12,.91,.4,1.78,.57,2.68,.23,1.19,.54,2.35,.54,3.62,0,1.05,.35,2.11,.55,3.16,.32,1.73,.62,3.47,.95,5.19,.16,.82,.35,1.63,.57,2.43,.45,1.63,.61,3.3,.6,5.01,0,.61-.17,1.24,.26,1.76h0Zm5.01,39.96l-.03,.41,.03-.4-.18-.09c.06,.02,.12,.04,.18,.07Zm-68.71-41.8c.11-.07,.23-.14,.33-.23,.04-.04,.04-.13,.06-.2-.07,.02-.17,0-.21,.06-.08,.11-.13,.25-.2,.38l.05,.37-.03-.38Zm69.83,48.71c.06-.11-.1,.28,.02,.02-.09-.09-.17-.21-.27-.27-.08-.04-.19-.01-.28-.02,.06,.09,.1,.23,.17,.26,.1,.04,.23,0,.35,0Zm-5.85-26.97c.49,1.27,.84,2.25,1.24,3.19,.1,.23,.33,.51,.51,.52,.37,.03,.59-.35,.55-.76-.09-.9-.23-1.8-.39-2.69-.08-.44-.42-.89-.37-1.29,.17-1.5-.47-2.83-.53-4.28,0-.18-.18-.35-.37-.7-.18,.36-.39,.6-.38,.82,.03,.69,.06,1.4,.25,2.04,.22,.72,.16,1.33-.11,1.98-.17,.4-.28,.85-.38,1.16Zm-.31-11.65c.24-.55,.36-.73,.38-.92,.02-.18-.07-.38-.12-.58-.12,.12-.29,.21-.34,.36-.05,.17,.02,.39,.08,1.14Zm-63.04-12.49c.37-.36,.75-.71,.39-1.63l-.39,1.63Zm43.6,10.28l-.25,.21s.1,.11,.13,.1c.11-.03,.21-.08,.31-.13-.06-.06-.13-.12-.19-.18Zm24.83,36.34v1.11c.4-.36,.29-.66,0-1.11Zm-79.2,5.37c-.02,.06-.06,.12-.06,.18,0,.06,.04,.12,.06,.18,.02-.06,.06-.12,.06-.18,0-.06-.04-.12-.06-.18Zm45.67-10.17l-.08-.16-.15,.2s.09,.08,.13,.08c.03,0,.06-.07,.09-.11Zm-44.83-.2v-.37s-.13,0-.13,0c0,.12-.01,.25-.01,.37h.14Zm73.48-25.02c.01-.07,.05-.14,.03-.19-.01-.04-.09-.06-.14-.08l-.02,.32,.14-.05Zm-70.02,16.69l-.1,.17,.14,.04-.04-.21Z"/><path d="M83.84,119.2c-.1-.16-.18-.45-.31-.47-.73-.14-1.41-.45-2.22-.23-.76,.21-1.54,.18-2.31-.3-.72-.44-1.09-.64-.98-1.25,.38-1.97,.78-3.93,1.19-5.89,.08-.4,.12-.93,.38-1.17,.92-.82,.87-1.99,1.02-3,.31-2.07,1.01-3.99,1.71-5.93,.33-.91,.62-1.83,.88-2.76,.07-.25-.02-.54-.05-.81-.15-1.25-.11-2.47,.15-3.72,.25-1.21,.38-2.46,.42-3.7,.09-3,.89-5.88,1.49-8.79,.4-1.96,1.03-3.88,1.52-5.82,.55-2.22,1.05-4.45,1.58-6.68,1.2-5.13,2.07-10.32,3.07-15.49,.33-1.69,.93-3.33,1.33-5.02,.93-3.94,2.77-7.54,4.13-11.32,.94-2.6,1.82-5.23,2.81-7.82,.91-2.39,1.93-4.75,2.92-7.12,.16-.38,.43-.71,.65-1.06,.95-1.5,2.53-1.58,4.03-1.59,.56,0,1.11,.54,1.8,.53,.54,0,1.08,.2,1.62,.29,.27,.05,.58,0,.81,.11,.36,.18,.67,.46,1.06,.74l.23,1.33,.82-.08,.38,1.57,2.6-.58c.24,2.09,.49,4.2,.74,6.39,1.8,.88,1.93,2.84,2.69,4.42-.43,1.94,.7,3.61,.95,5.43,.17,1.23,.62,2.38,1.7,3.18,.45,.33,.45,.9,.26,1.33-.41,.9-.21,1.73,.01,2.63,.43,1.74,.75,3.5,1.13,5.33l1-.19c.35,.15,.29,.44,.21,.7-.13,.42-.17,.78,.16,1.16,.21,.25,.42,.59,.44,.9,.15,2.79,1.28,5.38,1.62,8.14,.2,1.57,.82,3.08,1.17,4.63,.38,1.69,.73,3.39,.95,5.11,.17,1.31,.28,2.61,.69,3.87,.21,.66,.31,1.35,.42,2.03,.13,.83,.34,1.58,.93,2.25,.9,1.02,1.1,2.37,1.27,3.64,.1,.71-.23,1.49-.46,2.22-.34,1.09-.3,2.14-.06,3.26,.62,2.89,1.47,5.73,2.04,8.64,.57,2.92,1.37,5.79,2.07,8.68,.05,.2,.15,.4,.16,.6,.19,2.8,1.23,5.39,2,8.05,.31,1.06,.6,2.13,.91,3.2,.39,1.36,.15,2.58-.74,3.75-.73-.33-1.25,.11-1.78,.44l-1.19-.63-1.11,.71c-.71-.21-1.35-.39-2-.58-.17-.05-.44-.16-.5-.1-.66,.76-1.37,.4-2.1,.16-.25-.08-.64-.16-.8-.03-.93,.79-1.8,.28-2.68-.07-.25-.1-.49-.25-.69-.35-.61-1.65-.72-3.3-.48-5.05-.69-.42-.98-1.04-1.22-1.8-.86-2.78-1.4-5.62-2.05-8.45-.09-.4-.08-.81-.12-1.21,.86-.51,1.24,.54,1.91,.47-.32,1.47-.13,2.64,.66,3.66,.05-.52,.2-.93,.11-1.28-.21-.8-.54-1.57-.81-2.35-.16-.38-.23-.84-.5-1.11-.41-.41-.4-.72-.12-1.19,.12-.2,.04-.55-.02-.81-.32-1.49-.65-2.97-.98-4.45-.06-.27-.24-.55-.19-.8,.25-1.35-.4-2.45-.9-3.61-.22-.52-.1-1.17-.15-1.87l-1.43,.77,.06,.06c.09-.39,.05-.94,.29-1.12,.49-.38,.51-.82,.43-1.29-.12-.75-.33-1.48-.5-2.2q-2.03-.96-4.27-.99c-2.36-.03-4.72-.1-7.08-.08-1.52,.01-3.03,.15-4.63,.23-.76,.93-.73,2.18-.98,3.28-1.16,5.13-2.2,10.29-3.28,15.45-.56,2.71-1.16,5.41-1.63,8.14-.4,2.32-.63,4.67-.94,7.01-.29,2.2-.58,4.4-.91,6.59-.05,.36-.34,.67-.57,1.1-1.63-1.06-3.16-1.98-4.09-3.62-.2-.35-.53-.63-.83-.9-.14-.13-.36-.17-.61-.27-.64,.44-.71,1.59-1.76,1.53-.06-.02-.16-.03-.18-.08-.27-.48-.53-.96-.82-1.49l.83-1.36,1.17,.85c.84-.81-.34-1.16-.32-2,.4-.59,.39-1.46,.15-2.36-.19-.69-.05-1.32,.11-2.02,.26-1.21,.24-2.47,.34-3.71,.88-.94,.96-1.96,.29-3.04,.49,.1,.81-.06,.85-.59,0-.12-.08-.25-.13-.37-.16,.07-.4,.1-.46,.22-.12,.24-.14,.53-.2,.79-.59,.97-.46,2-.29,3.04-.42,1.01-.87,2.01-1.26,3.03-.33,.85-.76,1.6-1.44,2.19l-.97-.53c-1.08,1.68-1.17,3.77-2.42,5.55-.56-1.96,1.01-3.32,1.02-5.09-.38,.05-.63,.09-.89,.13l.06,.05Zm9.01-28.21c.11,0,.23-.01,.34-.04,.02,0,.02-.1,.03-.15-.13,.07-.27,.14-.39,.21,.03,.05,.08,.09,.09,.15,.01,.04-.02,.09-.03,.13l-.03-.29Zm34.92-20.24c.04-.11,.09-.23,.1-.34,0-.06-.07-.12-.11-.18,.01,.06,.04,.12,.03,.18,0,.12-.02,.23-.04,.35l.14,.12s-.09-.07-.13-.11Zm-33.58,12.58c-.08,.19-.17,.37-.25,.57-.02,.06,.02,.13,.03,.2,.08-.07,.22-.14,.23-.21,0-.2-.04-.41-.06-.61,.18-.06,.37-.09,.53-.18,.04-.02-.03-.23-.04-.35-.1,.07-.22,.11-.29,.2-.08,.11-.1,.25-.15,.38Zm-2.25,22.4q-.74,.19-.36,.78c.14-.27,.28-.54,.41-.8l-.04-.27v.3Zm.68-11.47c-.25-.02-.63-.15-.72-.04-.34,.43-.05,.71,.41,.92,.08-.31,.17-.62,.25-.93,.12-.05,.27-.07,.35-.16,.08-.09,.12-.25,.11-.37,0-.06-.23-.16-.27-.13-.09,.07-.16,.2-.18,.31-.02,.13,.03,.26,.05,.4Zm31.8,4.63c.17-.2,.49-.4,.49-.6,0-.94-.08-1.88-.16-2.81,0-.1-.28-.18-.41-.25-.12,1.06-.27,2.06-.34,3.07-.01,.19,.26,.4,.4,.61,.03,.05,.08,.09,.09,.15,.02,.05,0,.11,.01,.16l-.09-.32Zm-35.73-1.19c.38,.09,.53-.18,.52-.46,0-.31-.15-.61-.25-.98,.44-.18,.92-.29,1.29-.56,.37-.27,.79-.64,.92-1.05,.36-1.09,.6-2.23,.83-3.36,.12-.58-.49-1-1.08-.76-.27,.11-.49,.36-.76,.56q1.36,1.16,.21,2.43l-.87-.8c-.49,.49-.89,.98-1.64,.77-.24-.07-.54,.03-.79,.11-.29,.09-.51,.8-.35,1.07l.97,.17c.7,.84,.89,1.83,.99,2.88,.01,.09,.03,.19,.03,.18l-.02-.22Zm2.83,2.58c-.66,.69-1.5,2.23-1.34,2.86,.2,.75-.02,1.33-.25,1.99-.53,1.56-1.05,3.14-1.43,4.74-.24,1-.37,2.01-.82,2.96-.38,.8-.54,1.71-.76,2.58-.17,.65-.43,1.3-.1,2.16,.61-.79,.9-1.55,1.08-2.35,.18-.81,.29-1.63,.85-2.31,.17-.2,.24-.5,.3-.77,.45-1.8,.92-3.6,1.31-5.42,.46-2.15,1.25-4.23,1.12-6.5,.02-.19,.04-.38,0-.08-.05-.26-.01-.06,.03,.14Zm-.4-24.95l.05-.32-.09,.31c.66,.87,1.8,.69,2.71,1.27l.35-1.36-.9-.04c.02-.46,.22-.99,.03-1.22-.47-.57-.49-.85,.18-1.26,1.2-.74,1.28-1.08,.67-2.31-.23-.46-.35-.86-.21-1.37,.08-.3,.05-.66-.02-.97-.25-.96,.16-1.76,.57-2.55,.15-.3,.43-.54,.59-.84,.42-.77,.33-1-.51-1.74l-.95,.86c-.4,1.09-.85,2.24-1.25,3.41-.2,.58-.38,1.19-.44,1.8-.04,.49,.13,.97,.84,.83,.45-.09,.59,.24,.68,.59,.12,.51-.07,.93-.36,1.35-.31,.44-.71,.9-.82,1.4-.18,.86-.67,1.49-1.13,2.17Zm10.78-25.88c-.17,.36-.49,.74,.31,1.04l-.34-1.01-.59-3.49c.79,.33,1.08,.28,1.14-.18,.07-.47,.06-.95,.09-1.43-.38-.05-.72,.06-.89-.36-.29-.69-.21-1.34,.02-2.02,.19-.57,.26-1.18-.41-1.78-.26,.48-.45,.83-.63,1.18-.32,.62-.49,1.37-.96,1.82-.84,.8-1.14,1.86-1.73,2.78-.46,.71-.71,1.47-.69,2.35,.02,.9-.3,1.71-.72,2.54-.52,1.03-.74,2.21-1.05,3.34-.07,.25-.02,.55,.04,.8,.33,1.42,.32,2.82-.17,4.22-.15,.44-.17,.93-.24,1.37,.28,.24,.48,.42,.69,.59,1.11,.86,1.79,.75,2.47-.41,.2-.34,.4-.68,.61-1.01l.27,.1-.63,2.66c1.23,.3,1.65,.2,1.9-.62,.19-.62,.43-1.14,.9-1.59,.23-.22,.36-.58,.42-.9,.12-.6,.15-1.22,.22-1.79-.28-.29-.71-.54-.7-.77,.03-1.22-.36-2.45,.13-3.68,.27-.69,.47-1.44,.11-2.22-.27-.58,.18-1.05,.45-1.51Zm12.92,13.65l.03,.03c.37-.75,.07-1.46-.09-2.21-.39-1.86-1.26-3.67-.76-5.66,.01-.05-.27-.16-.55-.33l-.14,2.02c-.59-.04-1.05,.07-1.29,.58-.2,.44-.49,.85-.61,1.3-1.68,6.05-3.34,12.11-4.98,18.17-.09,.35,.04,.75,.07,1.17,3.86,.18,7.59,.35,11.31,.51,.34,.01,.69-.05,1.03-.09,.06,0,.12-.04,.16-.09,.04-.05,.06-.12,.09-.2-1.04-.87-1.06-2.09-1-3.28l-.96-.23c.7-1.12,.94-2.25,.74-3.45q-.35-2.06,.21-3.47l-.65,.1c-.51-.82-.89-1.63-1.45-2.29-.65-.77-.37-1.92-1.16-2.59Zm-21.54,20.11c.72-1.34,.38-2.83,.75-4.08l-.9-1.16c-.36,.39-.61,.96-1.29,.86,0,.14-.02,.22,0,.28,.32,.6,.53,1.31,1,1.76,.76,.72-.18,1.46,.2,2.13,.03,.06,.1,.09,.24,.21Zm4.78-18.18c-1.09,.9-1.05,1.97-1.31,2.87l1.46,1.39,.61-.89c-.25-1.11-.47-2.09-.76-3.36Zm21.92,4.16c-.59,.66,.11,1.78-1.05,1.93,.02,.54,.04,1.08,.06,1.62,0,.03,.12,.04,.19,.07,.44-.02,.47-.94,1.3-.39-.38-1.1,.3-2.16-.5-3.23Zm-30.73,14.1c-.12-1.26,.11-1.97,1.06-2.29,.52-.17,.54-.77,.48-1.24-.03-.2-.28-.45-.49-.53-.21-.08-.55-.07-.73,.05-.54,.38,.37,.64,.13,1.03-.36,.82-1.4,1.45-.45,2.98Zm.7,16.24c-.57,.62-1.11,1.11-.87,2.01,.09,.34-.17,.77-.22,1.16-.03,.28,.03,.56,.05,.85,.64-1.24,.98-2.52,1.32-3.79,0-.02-.1-.08-.29-.23Zm8.56-26.74c-.17-.74-.3-1.17-.94-1.31-.5,.79-.81,1.63-1.03,2.69,1.11-.06,1.24-1.09,1.97-1.38Zm-11.45,39.21c-.24,.09-.38,.11-.47,.18-.1,.08-.21,.21-.22,.33-.08,.83-.49,1.61-.31,2.48,.47-.94,.98-1.85,1.01-2.99Zm10.34-34.96c.29-.5,.68-.92,.28-1.58l-1.63-.23c.46,.52,.68,.73,.85,.98,.18,.25,.32,.53,.5,.83Zm27.91,36.5q-.43,1,.2,1.84,.72-1.12-.2-1.84Zm-37.65-4.92c-.56,.81-.51,1.31-.35,1.95l.35-1.95Zm4.31-37.35c-.08-.1-.16-.27-.23-.26-.11,0-.22,.12-.31,.21-.05,.04-.09,.13-.08,.19,.03,.19,.07,.37,.13,.55,0,.02,.17,.04,.19,0,.11-.15,.21-.32,.3-.49,.03-.05,0-.14,0-.2Zm34.86,33.66c-.33-.82-.52-1.29-.86-2.13,.09,.95-.26,1.62,.86,2.13Zm-3.55-10.73c-.35,.58-.39,1.02,.07,1.45l-.07-1.45Zm-39.87,22.14c-.23-.96-.58-.94-1.12-.62l1.12,.62Zm12.81-38.32l-.21-.46c-.16,.11-.34,.2-.47,.34-.05,.06,.02,.23,.04,.35l.64-.22Zm-1.84-17.74h.14v-.83h-.14v.83Zm-7.18,44.31l-.37-.02-.04,.87,.24,.03,.17-.88Zm38.44-3.53c.01,.26,0,.13,0,0,0,.13,0,.26,0,0Zm4.23,10.07c.12-.41,.2-.59,.21-.77,0-.11-.12-.23-.19-.34-.07,.11-.21,.21-.21,.32,0,.18,.08,.37,.19,.79Zm-38.05-28.32l.29,.19c.05-.11,.16-.25,.12-.33-.04-.1-.19-.15-.3-.23-.04,.12-.08,.25-.12,.37Zm-5.99,26.42l.22-.27s-.12-.08-.13-.07c-.08,.08-.15,.17-.22,.25l.13,.08Zm43.16-3.24c-.02,.06-.07,.13-.05,.16,.02,.05,.1,.06,.16,.09,0-.06,0-.12-.01-.18-.01-.03-.06-.05-.1-.08Zm-36.46-20.48l-.16-.32c-.06,.1-.17,.2-.17,.3,0,.1,.09,.21,.15,.32,.06-.1,.12-.2,.19-.31Zm30.69,3.49s.15-.09,.15-.13c-.01-.25-.04-.49-.08-.73,0-.01-.14-.01-.14,0-.03,.24-.06,.49-.07,.73,0,.05,.09,.1,.14,.14Zm-22.9-12.5l-.05-.16s-.09,.08-.09,.13c0,.05,.03,.1,.05,.15l.09-.13Zm-8.69,3.92l-.1-.17s-.13,.12-.12,.14c.03,.08,.11,.14,.16,.21l.06-.18Zm3.76-8.63l-.13-.3s-.11,.1-.1,.13c.02,.1,.07,.2,.11,.29,.04-.04,.08-.09,.12-.13Zm3.61-8.01l.1-.15-.14-.03,.04,.18Zm23.34,25.04s.1-.03,.1-.04c0-.05-.02-.1-.03-.14-.04,.01-.1,.03-.1,.04,0,.05,.02,.1,.04,.15Zm-2.79-37.2l-.08-.14s-.12,.07-.11,.08c.04,.07,.09,.14,.13,.21l.06-.15Z"/><path d="M291.95,37.25c-.37-.43-.74-.87-1.21-1.42l-.92,1.09c-.75-.04-1.1-.87-1.01-2.52-.41-.19-.89-.36-1.31-.63-.38-.25-.67-.62-1.04-.9-1.98-1.51-4.06-2.88-6.31-3.96-.69-.34-1.48-.5-2.24-.68-.73-.17-1.44,.02-2.08,.39-.84,.49-1.67,1.01-2.51,1.51-1.75,1.05-2.95,2.54-3.67,4.45-.25,.67-.64,1.3-.85,1.99-.64,2.12-1.4,4.2-1.67,6.42-.06,.52-.16,1.04-.21,1.56-.14,1.3-.31,2.6-.37,3.91-.15,3.28-.02,6.55,.42,9.81,.27,2.02,.87,3.97,1.62,5.86,.92,2.31,1.87,4.62,3.1,6.79,.19,.34,.35,.69,.51,1.02-.23,.63-.73,.78-1.26,.85-.65,.08-1.3,.13-1.95,.21-.32,.04-.69,.05-.94,.22-1.18,.79-2.59,.84-3.86,1.32-.86,.32-1.79-.02-2.6,.54-.7,.47-1.5,.79-2.31,1.21-.21-.2-.46-.33-.56-.54-1.03-2.27-2.08-4.53-3.04-6.82-.4-.96-.61-2-.9-3.01-.07-.25-.11-.52-.22-.75-1.11-2.31-1.15-4.83-1.29-7.3-.1-1.8-.14-3.64,.16-5.46,.16-.95,.06-1.95,.09-3.01,1.78-.23,1.97-2.2,3.52-2.67-.17-1.05-.32-1.94-.47-2.82q.92-1.44,.6-3.92l-1.52-.42c-.09-1.38,.24-2.63,.78-3.81,.68-1.48,1.46-2.92,2.2-4.38,.18-.35,.37-.7,.6-1.01,.81-1.11,1.06-1.26,2.47-1.69,.92-2.64,2.74-4.36,5.34-5.31,2.98-1.09,6.03-1.71,9.21-1.88,1.63-.08,3.26-.05,4.89-.08,.32,0,.66,.03,.97,.11,2.15,.56,4.29,1.13,6.43,1.73,.49,.14,.98,.39,1.38,.7,1.76,1.35,3.63,2.58,5.18,4.2,.25,.26,.65,.44,1.02,.5,.7,.13,1.21-.12,1.38-.8,.29-1.14,.56-2.3,.64-3.46,.22-3.08,.54-6.13,.97-9.19,.26-1.81,.35-3.65,.55-5.47,.09-.78,.29-1.54,.4-2.31,.19-1.42,1.17-2,2.41-2.21,1.29-.21,2.59-.31,3.89-.45,.19-.02,.4,0,.58,.05,1.1,.39,2.13,.31,3.21-.18,.9-.41,1.75-.28,2.32,.77,.22,.41,.78,.63,1.02,1.14,.38,.8,.35,1.4-.26,2.13-.94,1.14-1.86,2.28-2.95,3.29-.61,.57-.75,1.36-.92,2.13-.21,.94-.2,.94,.47,2.2-.49,1.13-.97,2.25-1.5,3.47l-1.16,.38c-.17,1.35-.34,2.63-.51,4.03,.33,.5,.93-.22,1.41,.15,.74,1.45,.74,2.95,.03,4.47-.15,.33-.14,.74-.17,1.12-.02,.19,.14,.48,.05,.57-1.22,1.23,0,2.8-.57,4.13-.1,.24,.11,.62,.18,.93,.07,.38,.28,.79,.19,1.13-.28,1,.19,1.63,.88,2.21,.3,.25,.58,.52,.94,.85-.46,.87-.27,1.73-.12,2.64,.17,1.02,.26,2.04,.47,3.07,.32,1.58,.26,3.25,.29,4.89,.01,.66-.5,1.03-1.2,1.01-.32,0-.65-.08-.97-.12-.32-.05-.65-.1-1.04-.17-.47,.25-.96,.57-1.5,.78-.34,.13-.77,.18-1.12,.09-.71-.17-1.34-.39-2.01,.18-.18,.15-.72-.21-1.07-.15-.96,.17-1.92,.41-2.86,.66-1.22,.33-1.84,.07-2.32-1.12-.86-2.12-1.72-4.24-2.53-6.38-.21-.54-.27-1.15-.37-1.73-.12-.66-.39-1.22-.85-1.73-.68-.74-.65-.82,.1-1.57,.18-.18,.38-.34,.54-.49,.18,.08,.37,.11,.39,.18,.32,1.1,1.3,1.74,1.84,2.69,.05,.09,.4,.14,.49,.06,.11-.1,.2-.38,.14-.51-.44-.95-.89-1.9-1.41-2.8-.18-.32-.54-.72-.85-.75-.87-.08-1.17-.77-1.66-1.27-.02-.06-.03-.12-.05-.17-.01-.04-.04-.07-.06-.1l.12,.31Zm-30.77-5.05c1.14-1.14,1.66-2.25,2.31-3.26,.01-.02-.14-.15-.3-.32-.61,1.1-2.02,1.63-2.01,3.57Zm39.22-2.38c.31-.46,.54-.67,.6-.92,.07-.34-.16-.63-.52-.61-.16,.01-.41,.31-.42,.48-.01,.26,.16,.52,.34,1.05Zm6.6-1.72q-.54,.93,0,1.6v-1.6Zm-48.71,8.41l-.38-.13c-.1,.27-.22,.54-.29,.82-.02,.08,.1,.25,.19,.28,.09,.03,.3-.04,.32-.11,.08-.28,.11-.57,.16-.85Zm47.57-8.21c-.14-.22-.18-.37-.27-.43-.21-.12-.45,.15-.41,.51,.01,.11,.12,.22,.18,.32l.51-.4Zm1.21-9.77l.19-.25c-.09-.04-.17-.08-.26-.1-.03,0-.11,.1-.1,.12,.04,.08,.11,.15,.17,.23Z"/><path d="M258.97,127.32c-1.51-.31-1.77-1.48-1.68-2.56,.11-1.37-.2-2.6-.58-3.87-.18-.59-.26-1.21-.36-1.83-.22-1.43-.26-2.88-.77-4.29-.27-.73-.17-1.62-.12-2.43,.07-1.03,.3-2.06,.39-3.09,.38-4.43,1.72-8.54,4.13-12.28,1.12-1.73,2.62-3.02,4.59-3.74,.45-.16,.9-.37,1.3-.62,.84-.52,1.74-.8,2.71-.98,1.36-.24,2.71-.58,4.04-.98,2.43-.73,4.93-.63,7.42-.72,.41-.01,.85,.09,1.24,0,1.81-.41,3.59-.06,5.38,.12,1.47,.14,2.87,.54,4.1,1.39,1,.69,2.1,1.01,3.35,1.31,.15-.33,.38-.62,.39-.93,.13-2.77,.23-5.54,.33-8.3,.01-.35-.04-.7,0-1.04,.24-1.78,.53-3.55,.75-5.33,.14-1.17,.19-2.35,.31-3.52,.17-1.79,.39-3.57,.54-5.37,.16-1.9,1.56-2.72,2.82-2.78,.84-.04,1.61-.29,2.42-.36,.69-.06,1.37-.15,2.06-.15,.69,0,1.38,.08,2.06,.13,.48-.27,.94-.65,1.45-.78,.58-.14,1.3-.25,1.81-.02,.56,.25,1,.85,1.37,1.39,.33,.49,.5,1.11,.78,1.79-.41,.9-.92,1.89-.89,3.03,0,.33-.11,.71-.3,.98-1.01,1.5-1.01,3.27-1.3,4.95-.13,.73,.02,1.52,.12,2.28,.12,.86-.06,1.5-.96,1.82-.16,.06-.27,.28-.4,.43,1.58,1.5,1.58,1.58-.15,2.86-.05,.04-.08,.11-.18,.26-.08,2.96-.17,6.02-.26,9.17h-1.51l.21,2.89c.46,.07,.94,.05,1.36,.22,1.28,.51,1.34,.69,.98,2.15-.21,.86-.19,.95,.65,2.4-.32,1.2-.34,2.5-.1,3.81,.07,.4,.11,.84,.04,1.23-.17,.99-.17,1.93,.41,2.81,.07,.11,.1,.26,.11,.39,.16,1.86,.32,3.71,.47,5.57,.1,1.24,.17,2.49,.27,3.73,.05,.62,.13,1.23,.19,1.79-.57,.43-1.04,.8-1.53,1.15-.16,.11-.37,.27-.52,.24-1.99-.39-3.16,.89-4.44,2.05-.13,.12-.63-.14-1.07-.26-.11,.22-.24,.44-.35,.67-.28,.64-.78,.92-1.47,.97-.8,.05-1.69-.27-2.29,.62-.1,.14-.53,.03-.79,.1-1.99,.54-2.05,.54-2.26-1.42-.22-2.07-.41-4.14-.49-6.22-.05-1.35-.5-2.59-.92-3.81-.59-1.69-1.43-3.3-2.17-4.94-.78-1.72-1.82-3.28-3.19-4.58-1.21-1.14-2.49-2.21-3.77-3.28-1.52-1.27-3.31-2.01-5.17-2.59-.86-.27-1.76-.41-2.6-.73-1.69-.64-3.01-.04-4.08,1.19-.59,.67-1.12,1.45-1.44,2.27-.78,2.06-1.61,4.11-1.97,6.33-.38,2.38-.14,4.7,.22,7.03,.37,2.4,1.07,4.71,2.06,6.93,.22,.49,.28,1.04,.4,1.48-.18,.22-.26,.39-.36,.41-.93,.23-2.02,.2-2.77,.7-.82,.55-1.69,.91-2.55,1.33-.59,.28-1.17,.43-1.8,.34-1.08-.16-2.17,.22-3.28-.14-.45-.15-1.09,.04-1.53,.48-.28,.28-.64,.49-.92,.7Zm46.52-37.67c.86-.74,.97-1,.69-1.83-.11-.34-.25-.84-.93-.53-.05,.69-.1,1.42,.24,2.36Zm1.94,14.91c.35-1.11,.25-1.55-.3-1.51-.45,.49-.22,.92,.3,1.51Zm-50.05,4.44c-.25,.1-.45,.14-.45,.19,0,.24,.04,.48,.07,.72,.11-.05,.31-.08,.33-.15,.06-.22,.04-.46,.06-.76Zm40.72-19.77c-.06,.02-.14,.03-.17,.07-.03,.05-.01,.12-.02,.19l.27-.09-.09-.17Zm-.08-6.04l-.21,.11s.1,.06,.13,.05c.04-.02,.05-.08,.08-.15Zm-39.41,32.54s-.12,.08-.12,.12c0,.11,.05,.21,.07,.32,.04-.04,.12-.07,.12-.11,0-.11-.05-.22-.07-.33Zm48.88-15.57l-.1-.13c-.06,.08-.13,.15-.17,.23-.01,.02,.06,.09,.1,.13,.06-.08,.12-.15,.17-.23Z"/><path d="M269.43,233.52c.38,.94,.8,1.68,.97,2.47,.29,1.38,.67,2.66,2.11,3.49-.58,.63-1.15,1.01-1.83,1.12-2.55,.39-4.88,1.43-7.3,2.22-.78,.26-1.2,.91-1.82,1.33-.62,.41-1.05,1.08-1.94,1.1-.34,0-.67,.42-1.01,.65-.47,.32-.93,.23-1.35-.1-.82-.64-1.1-1.63-.62-2.57,.24-.47,.29-.87,.28-1.37-.03-1.82-.52-3.55-.86-5.32-.25-1.29-.47-2.6-.54-3.91-.21-3.82-.13-7.62,.57-11.41,.26-1.38,.68-2.68,1.2-3.97,.16-.38,.46-.73,.53-1.13,.39-2.13,1.97-3.29,3.56-4.41,2.58-1.82,5.46-3,8.46-3.91,2.19-.66,4.38-1.3,6.59-1.91,1.27-.35,2.54-.7,3.84-.88,.95-.13,1.95-.11,2.89,.04,2.59,.43,5.17,.97,7.57,2.13,.75,.36,1.53,.68,2.23,1.13,.63,.4,1.17,.94,1.71,1.38,.61,0,.78-.4,.89-.79,.14-.53,.24-1.09,.28-1.64,.17-2.56,.32-5.12,.47-7.68,.12-2.08,.2-4.16,.35-6.23,.03-.37,.24-.84,.53-1.05,.67-.48,1.39-1.02,2.16-1.2,1.22-.28,2.38-.7,3.58-.99,.99-.24,2.04-.19,3.31-.28,1.76-1.17,2.84-1.13,4.23,.37,.19,1.53-.01,3.1-.38,4.65-.07,.3-.39,.53-.72,.96,.13,.36,.85,.7,.73,1.5-.27,1.78-.41,3.57-.6,5.36-.06,.59-.32,1.04-.95,1.2,.33,.77,.67,1.53,.49,2.35-.24,1.12-.11,2.36-1.14,3.23-.52,.45-.41,1.14-.37,1.77,.09,1.48,0,2.92-.95,4.19,.6,.98,.85,1.95,.19,2.93-.5,.74-.42,1.36,.14,2.06,.8,.99,.75,1.06-.04,2.1-.86,1.13-.85,1.77,.07,2.92,.13,.16,.25,.32,.4,.52-.05,.93-.35,1.89,.17,2.83,.18,.32,.08,.81,.09,1.23,.05,1.87,.09,3.74,.13,5.61,.03,1.31-.1,2.07-.51,3.11-1.12,.56-2.17,1.04-3.18,1.59-1.76,.95-3.69,1.55-5.28,2.85-.56,.46-1.36,.68-2.09,.89-.78,.23-1.42-.2-1.51-1-.08-.75-.11-1.54,0-2.28,.36-2.46,0-4.86-.71-7.19-.84-2.79-1.87-5.53-3.32-8.07-.61-1.07-1.36-2.09-2.15-3.05-1.18-1.45-2.38-2.9-3.7-4.22-3.08-3.06-6.95-4.47-11.16-5.07-.2-.03-.42,0-.62-.01-1.28-.15-2.11,.4-2.64,1.56-.78,1.69-1.61,3.34-1.61,5.29,0,1.02-.33,2.04-.44,3.06-.11,1.1,.24,2.22-.14,3.31-.04,.12-.01,.29,.04,.41,.63,1.51,.36,3.15,.71,4.7,.14,.64,.02,1.34,.02,2Zm39.53-34.15h.11v-.78h-.11v.78Z"/><path d="M308.9,169.31c1.03-.88,1-2.14,1.71-3.03,.3,.75,.16,1.52-.15,2.12-.79,1.58-.92,3.48-2.35,4.75-.34,.3-.68,.81-.7,1.24-.08,1.44-1.72,2.27-1.44,3.8,.17,.95-.35,1.49-1.07,1.81-.75,.34-1.25,.77-1.53,1.57-.15,.43-.6,.75-.89,1.13-.24,.33-.53,.66-.63,1.04-.12,.45-.37,.72-.74,.94-.54,.31-1.06,.67-1.63,.92-2.15,.94-4.22,2.08-6.6,2.44-.79,.12-1.52,.64-2.28,.98-2.68,1.21-5.41,1.63-8.25,.6-.13-.05-.3-.03-.4-.11-.8-.6-1.81-.09-2.61-.51-.72-.38-1.33-.97-2.05-1.36-.47-.25-1.05-.33-1.6-.43-1.94-.35-3.64-1.29-5.35-2.18-1.04-.54-1.93-1.4-3.01-1.81-1.02-.39-1.75-1.09-2.61-1.65-2.04-1.33-3.54-3.22-4.54-5.32-1.51-3.16-2.92-6.4-3.5-9.91-.17-1.02-.44-2.03-.54-3.06-.25-2.64,.5-5.08,1.73-7.38,.16-.3,.42-.57,.53-.89,.63-1.91,1.42-3.79,1.78-5.75,.33-1.79,1.18-3.28,2.1-4.71,.93-1.44,2.18-2.69,3.43-3.88,1.23-1.17,2.86-1.65,4.5-1.96,2.11-.39,4.23-.71,6.35-1.08,3.43-.6,6.89-.8,10.36-.49,1.24,.11,2.49,.22,3.65,.77,.06,.03,.13,.07,.19,.08,1.58,.24,3,.92,4.47,1.5,.64,.25,1.27,.51,1.87,.82,1.89,.98,3.74,2.04,5.83,2.6,.37,.1,.75,.39,1,.7,.69,.86,1.33,1.77,1.95,2.69,.13,.19,.06,.52,.09,.78,.12,.88,.2,1.76,.9,2.45,.27,.27,.55,.72,.54,1.08-.03,1.15,.4,2.18,.69,3.24,.78,2.77,.77,5.62,.88,8.46,.03,.82-.26,1.64-.34,2.47-.11,1.1-.19,2.21-.2,3.31,0,.36,.25,.72,.44,1.23Zm-39.78-10.88c-.45,.31-.29,1.08-1.02,1.38-.9,.38-1.03,.94-.66,1.84,.63,1.51,1.22,3.02,1.68,4.61,.59,2.05,1.53,3.99,2.67,5.83,.97,1.56,2.04,3.02,3.54,4.03,1.53,1.03,2.78,2.42,4.52,3.17,.75,.32,1.45,.73,2.26,.96,1.32,.38,2.68,.78,3.43,1.83,1.06,.15,1.98,.16,2.81,.41,1.18,.36,2.18,.18,3.1-.59,.58-.48,1.21-.93,1.71-1.49,.83-.93,1.61-1.91,2.34-2.92,1.47-2.02,2.84-4.12,3.44-6.59,.29-1.21,.47-2.45,.58-3.69,.38-4.17,.24-8.3-1.11-12.33-.84-2.51-2.11-4.66-4.5-5.98-.61-.33-1.17-.73-1.77-1.1-3.53-2.16-7.44-3.35-11.42-4.29-.86-.2-1.8-.2-2.69-.15-1.86,.11-3.72,.27-5.57,.52-2.6,.35-2.59,.4-3.78,2.83-.12,.25-.29,.48-.37,.74-.23,.77-.66,1.5-.62,2.33,.72,.42,1.55,.52,1.98,1.4-.11,.28-.23,.67-.41,1.02-.77,1.48-1,2.99-.26,4.55,.04,.08,.23,.09,.45,.16,.1-.37,.21-.73,.31-1.09,.4,.5,.8-.04,1.33,0,.03,.83,.41,1.67-.05,2.59h-1.93Zm-3.37,1.7c-.13,.36-.26,.53-.25,.7,.15,2.77,.65,5.46,1.65,8.07,.96,2.49,2.29,4.7,4.15,6.6,.14,.15,.29,.3,.46,.42,.1,.07,.23,.09,.33,.13-.57-1.11-1.09-2.16-1.63-3.19-.52-.97-1.14-1.89-1.6-2.89-.49-1.06-.85-2.18-1.22-3.3-.35-1.05-.61-2.12-.97-3.17-.36-1.05-.01-2.31-.91-3.39Zm40.03-6.2c-.49,1.2-.3,1.91,.42,2.62-.15-.95-.29-1.78-.42-2.62Zm2.57,16.41c.03-.07-.11-.19-.16-.21-.41-.1-.59,.19-.73,.49-.04,.08,.03,.28,.11,.33,.08,.05,.28,.03,.35-.04,.18-.17,.34-.37,.43-.57Z"/><path d="M190.49,74.65l-1.08,.65c-.68-.91,.54-1.78,.11-2.67-.67-.41-.7,.35-.99,.73-.96-1.28,.21-1.99,.38-2.96l1.65,1.25c-.27,.97-.42,2.02-.12,3.07l.05-.07Z"/><path d="M80.7,120.5c-.17,.77-.27,1.37-.44,1.95-.11,.39-.27,.8-.81,.74-.36-.04-.57-.47-.46-.98,.08-.4,.22-.78,.31-1.12l1.39-.6Z"/><path d="M223.81,113.74c.18-.34,.35-.69,.54-1.02,.17-.28,.37-.53,.56-.79v.03c.1,.09,.24,.17,.29,.28,.21,.49,.38,.99,.6,1.56l-1.29,.8-.76-.91,.05,.05Z"/><path d="M86.54,120.31c.11,.38,.25,.59,.19,.73-.39,1-.9,1.95-1.11,3.02-.02,.09-.33,.15-.51,.16-.06,0-.21-.22-.19-.31,.21-1.28,.67-2.44,1.61-3.59Z"/><path d="M82.41,121.54c.55-.39,.61-.92,.55-1.55-.05-.57,.34-.79,.88-.79l-.06-.06c.04,.27,.19,.57,.11,.8-.35,1.1-.72,2.2-1.33,3.3-.76-.59,0-1.21-.2-1.73l.05,.02Z"/><path d="M253.74,46.76c.06-.3,.08-.49,.14-.67,.11-.32,.3-.62,.68-.45,.19,.08,.33,.35,.4,.56,.05,.16-.03,.37-.07,.56-.13,.51-.5,.87-.71,.68-.21-.18-.32-.49-.43-.68Z"/><path d="M190.44,74.72c.15-.36,.25-.76,.48-1.06,.16-.21,.5-.29,.91-.5,.15,.88-.04,1.52-.24,2.14-.06,.2-.38,.42-.59,.43-.41,.03-.55-.3-.53-.68,0-.13,.02-.27,.03-.4l-.06,.07Z"/><path d="M298.19,33.03c.52,.79,1.06,1.39,.73,2.5-.29-.24-.52-.35-.61-.53-.37-.76-.36-.77-.12-1.97Z"/><path d="M191.97,63.94q.05,1.05-.58,2.2-.41-.82,.58-2.2Z"/><path d="M222.77,94.84c.05,.6,.09,1.21,.14,1.77-.11,.07-.17,.14-.19,.13-.05-.03-.12-.09-.13-.14-.06-.59-.11-1.18-.17-1.78l.35,.02Z"/><path d="M254.51,49.48l-.53,.59c-.13-.19-.37-.38-.36-.57,0-.19,.25-.38,.38-.57l.51,.54Z"/><path d="M291.35,39.05c-.06,0-.13,.02-.18,0-.35-.2-.54-.68-.36-.92,.03-.04,.1-.08,.15-.07,.28,.02,.57,.49,.51,.85,0,.05-.08,.09-.12,.14Z"/><path d="M192.72,74.28c.15,.59,.37,1.17,.44,1.77,.03,.27-.29,.4-.73,.18,.11-.6,.22-1.25,.32-1.9,0-.01-.03-.04-.03-.04Z"/><path d="M254.81,43.82c.05-.36,.09-.72,.18-1.45,.38,.78-.05,1.13-.18,1.45Z"/><path d="M297.5,223.96l-.24,.37c-.13-.1-.28-.19-.39-.32-.02-.03,.14-.28,.19-.27,.15,.03,.29,.14,.45,.22Z"/><path d="M55.31,179.67c.25-.39,.32-.61,.47-.69,.12-.07,.33,.03,.5,.06-.03,.12-.02,.32-.09,.36-.2,.1-.43,.14-.87,.27Z"/><path d="M195.51,56.65c-.13-.12-.29-.23-.28-.26,.07-.17,.19-.33,.29-.49,.08,.07,.24,.17,.23,.22-.04,.18-.15,.34-.24,.53Z"/><path d="M222.2,102.55l.09-.58h.14l-.03,.6-.2-.02Z"/><path d="M297.76,210.73c.35-.15,.52-.29,.67-.27,.11,.01,.24,.22,.29,.37,.02,.07-.14,.29-.19,.28-.15-.03-.3-.13-.77-.38Z"/><path d="M298.59,213.86c-.05,.11-.09,.22-.14,.33l-.39-.23c.08-.09,.14-.25,.23-.27,.08-.02,.2,.11,.3,.17Z"/><path d="M119.71,93.04l-.16,1.13c-.24-.4-.38-.54-.41-.71-.03-.17,.05-.35,.08-.53,.18,.05,.36,.11,.55,.17l-.05-.06Z"/><path d="M196.85,55.96c-.05-.26-.13-.53-.14-.79,0-.26,.06-.53,.11-.97,.66,.72,.43,1.22-.02,1.72l.05,.04Z"/><path d="M297.75,90.28s-.08-.09-.09-.14c-.01-.06,0-.12,.01-.18,.05,.06,.12,.1,.14,.17,.01,.04-.04,.1-.07,.15Z"/><path d="M124.54,49.97v.81h-.17v-.8h.17Z"/><path d="M223.75,113.68c0,.13,.03,.29-.03,.37-.1,.12-.27,.19-.41,.27-.03-.05-.09-.12-.08-.14,.06-.11,.12-.22,.22-.3,.1-.08,.24-.1,.36-.15l-.05-.06Z"/><path d="M298.02,85.01l-.14,.32-.22-.2,.23-.25,.12,.13Z"/><path d="M132.06,.16c-.07,.05-.14,.1-.21,.15-.02-.05-.07-.1-.06-.16,0-.05,.05-.1,.07-.16,.07,.05,.14,.1,.21,.16Z"/><path d="M294.08,182.04c-.07,.09-.15,.18-.22,.27l-.18-.22,.29-.21,.1,.15Z"/><path d="M118.62,88.9l.15,1.01h-.28l.13-1.01Z"/><path d="M224.94,125.61l-.1,.14c-.03-.06-.07-.11-.07-.17,0-.05,.06-.1,.1-.15l.07,.17Z"/><path d="M223.18,123.61c-.05-.19-.12-.37-.13-.56-.01-.28,.08-.5,.51-.32-.14,.28-.28,.54-.41,.82l.04,.05Z"/><path d="M194.61,118.08c-.06,.1-.13,.19-.19,.29-.05-.1-.15-.21-.15-.31,0-.1,.12-.2,.18-.3,.05,.11,.11,.21,.16,.32Z"/><path d="M224.91,111.92c0-.13,0-.26-.01-.38,0-.06-.04-.12-.06-.19,.04,.07,.1,.13,.11,.2,0,.13-.02,.26-.03,.4,0,0,0-.03,0-.03Z"/><path d="M120.04,95.7c-.08,.04-.17,.09-.25,.13-.02-.12-.04-.23-.04-.35,0-.03,.09-.06,.14-.1,.05,.11,.1,.21,.16,.32Z"/><path d="M153.64,82.83c-.04-.13-.09-.26-.13-.4-.02-.06-.04-.17,0-.2,.17-.14,.21-.08,.15,.15-.04,.13-.02,.27-.02,.41,0,.01,.01,.03,.01,.03Z"/><path d="M194.41,61.56s.12,0,.13,.01c.03,.05,.03,.12,.04,.18l-.22-.02,.06-.17Z"/><path d="M82.36,121.52l.13-.26s-.1,.07-.11,.11c-.01,.05,.02,.12,.04,.18,0,0-.06-.02-.06-.02Z"/><path d="M223.28,98.85l-.1,.12c-.02-.05-.06-.1-.05-.15,0-.04,.06-.08,.1-.12l.06,.15Z"/><polygon points="120.99 100.59 121.07 100.43 121.14 100.59 120.99 100.59"/><path class="cls-1" d="M135.9,201.84c-.76-.59-.89-1.31-.42-2.19,.61,.25,.06,.7,.21,1.02,.16,.36,.16,.79,.23,1.19l-.02-.02Z"/><path class="cls-1" d="M121.66,187.93q.63,.49,.17,1.23c-.4-.43-.28-.85-.11-1.28l-.06,.05Z"/><path class="cls-1" d="M127.25,185.81c-.06-.02-.14-.03-.17-.07-.16-.26-.47-.48-.22-.85,.03-.04,.12-.07,.16-.05,.42,.14,.36,.48,.33,.8,0,.06-.06,.11-.09,.17Z"/><path class="cls-1" d="M130.06,178.56l.17,1.33h-.17c0-.45,0-.9,0-1.36,0,0,0,.03,0,.03Z"/><path class="cls-1" d="M127.6,188.54s.13,0,.13,.03c.02,.12,.02,.23,.03,.35-.07-.01-.2-.02-.2-.03,0-.12,.02-.23,.04-.35Z"/><path class="cls-1" d="M131.85,186.94l-.07,.18c-.02-.06-.07-.12-.07-.18,0-.06,.04-.12,.06-.18l.07,.18Z"/><path class="cls-1" d="M120.75,184.38c-.06,.11-.12,.21-.18,.32-.04-.05-.13-.12-.12-.15,.03-.11,.1-.21,.16-.31l.13,.15Z"/><path class="cls-1" d="M127.74,171.09c-.08,.06-.16,.11-.24,.16-.03-.11-.08-.21-.09-.32,0-.03,.09-.07,.13-.11,.07,.09,.13,.18,.2,.26Z"/><path class="cls-1" d="M135.91,201.85l-.06,.33c.02-.12,.03-.23,.05-.35h.01Z"/><path class="cls-1" d="M121.72,187.88l-.4-.22s.1-.04,.11-.03c.08,.1,.15,.2,.22,.3l.06-.05Z"/><path class="cls-1" d="M121.33,184.46c.04,.1,.1,.2,.12,.31,0,.03-.09,.07-.13,.11-.04-.1-.1-.2-.12-.31,0-.03,.08-.08,.13-.12Z"/><polygon class="cls-1" points="123.85 173.97 123.81 173.81 123.92 173.83 123.85 173.97"/><polygon class="cls-1" points="128.08 172.79 128.13 172.95 128 172.93 128.08 172.79"/><path class="cls-1" d="M57.67,168.53l-.05-.39c.01,.14,.02,.28,.03,.42,0,0,.03-.03,.03-.03Z"/><path class="cls-1" d="M165.58,49.23c-.7,1.32-.49,2.62-1.49,3.52l-.34-1.2c.3-.33,.71-.62,.88-1.01,.17-.41-.04-.98,.96-1.31Z"/><path class="cls-1" d="M166.12,53.82c-.66,1.14-.2,2.6-1.18,3.79q.05-2.84,1.18-3.79Z"/><path class="cls-1" d="M162.37,57.64c.42-.47,.22-1.05,.25-1.59,.03-.7,.38-1.15,.98-1.45,.41,1.29,.13,1.96-1.21,3.03h-.02Z"/><path class="cls-1" d="M197.92,64.73c-.13-.65-.28-.97-.21-1.23,.04-.17,.41-.36,.63-.35,.37,.01,.73,.17,1.35,.34l-1.77,1.25Z"/><path class="cls-1" d="M158.88,70.85c-.05-1-.28-1.72,.62-2.39,0,.86,.59,1.62-.62,2.39Z"/><path class="cls-1" d="M159.92,66.96c.16-.71,.32-1.41,.49-2.12,.01-.06,.06-.12,.11-.17,.05-.05,.11-.08,.3-.2-.22,.92-.41,1.73-.6,2.54l-.3-.05Z"/><path class="cls-1" d="M204.51,37.18c-.03,.5,0,.72-.06,.9-.12,.32-.3,.63-.73,.58-.06,0-.13-.07-.16-.12-.2-.37-.02-.66,.23-.9,.14-.14,.33-.22,.72-.46Z"/><path class="cls-1" d="M221.21,87.83c.05,.39,.16,.78,.15,1.17,0,.3-.29,.47-.57,.36-.14-.05-.31-.3-.3-.45,.02-.51,.25-.9,.79-1.03l-.06-.06Z"/><path class="cls-1" d="M197.09,60.44c-.07,.16-.12,.36-.24,.51-.06,.08-.23,.09-.35,.1-.04,0-.13-.1-.12-.15,.03-.25,.06-.51,.15-.75,.03-.07,.26-.13,.35-.08,.09,.04,.13,.21,.21,.37Z"/><path class="cls-1" d="M197.63,67.84l-.68,.63c-.12-.14-.31-.26-.33-.41-.06-.43,.2-.79,.48-.69,.17,.06,.29,.24,.54,.47Z"/><path class="cls-1" d="M195.96,71.97c.05-.25,.08-.51,.17-.74,.03-.08,.21-.1,.31-.15,.05,.12,.16,.25,.13,.35-.07,.24-.2,.46-.31,.69l-.31-.14Z"/><path class="cls-1" d="M200.03,45.08c.09,.09,.26,.22,.25,.25-.08,.15-.21,.28-.33,.41-.05-.12-.14-.25-.13-.37,.01-.1,.14-.19,.21-.29Z"/><path class="cls-1" d="M201.79,45.49c-.18-.61-.03-.96,.53-1.13,.21,.55-.08,.83-.53,1.13Z"/><path class="cls-1" d="M193.23,113.15l-.07,.5,.03-.51h.04Z"/><path class="cls-1" d="M205.05,34.91l-.35,.35c-.09-.14-.28-.33-.24-.41,.07-.15,.27-.23,.42-.34l.17,.41Z"/><path class="cls-1" d="M161.93,60.76c-.1-.5-.19-.7-.15-.87,.03-.14,.22-.24,.35-.35,.08,.11,.24,.23,.22,.32-.06,.23-.19,.43-.41,.91Z"/><path class="cls-1" d="M176.72,98.71c-.08-.15-.16-.3-.24-.46,0,0,.12-.09,.13-.09,.12,.15,.24,.3,.35,.45l-.24,.1Z"/><path class="cls-1" d="M200.85,50.67c-.03,.13-.06,.26-.09,.39-.05-.14-.12-.28-.16-.42,0-.03,.09-.09,.13-.14l.11,.17Z"/><path class="cls-1" d="M161.3,62.12l-.06,1.09c-.33-.49-.24-.79,.12-1.03l-.05-.05Z"/><path class="cls-1" d="M204.87,41.89l-.07-.97,.3,.04-.22,.93Z"/><path class="cls-1" d="M190.92,81.45l-.41,.28c-.06-.11-.21-.28-.17-.33,.1-.16,.27-.27,.41-.4l.17,.45Z"/><path class="cls-1" d="M220.32,85.83c-.12-.15-.28-.26-.26-.35,.03-.17,.15-.33,.23-.5,.08,.1,.25,.2,.24,.28-.02,.18-.12,.35-.21,.56Z"/><path class="cls-1" d="M166.62,45.33c.02,.22,.07,.41,.04,.59-.01,.08-.18,.13-.28,.2-.04-.18-.12-.36-.1-.53,0-.08,.19-.15,.34-.26Z"/><path class="cls-1" d="M152.78,86.38l.06,.94h-.13c.02-.32,.04-.63,.06-.95h.02Z"/><path class="cls-1" d="M196.47,64.48c0-.14,0-.27,0-.41,0-.07,.04-.13,.06-.2-.02,.06-.07,.13-.07,.19,0,.13,.01,.27,.02,.4h-.01Z"/><path class="cls-1" d="M221.3,90.73c-.08,.07-.17,.13-.25,.2-.03-.12-.07-.25-.07-.37,0-.04,.09-.09,.14-.14,.06,.1,.13,.21,.19,.31Z"/><path class="cls-1" d="M192.33,79.67c.05,0,.13,0,.15,.03,.03,.04,.02,.11,.03,.17l-.23-.03,.05-.17Z"/><path class="cls-1" d="M159.91,76.56c.03,.06,.08,.12,.08,.17,0,.05-.07,.1-.1,.15,0-.11,.02-.22,.02-.33Z"/><path class="cls-1" d="M165.45,72.91l-.13,.28s0-.11,.02-.14c.04-.04,.11-.06,.17-.09l-.06-.06Z"/><path class="cls-1" d="M165.5,72.97l.23-.37c.01,.06,.05,.16,.03,.17-.1,.06-.21,.1-.32,.15l.06,.06Z"/><path class="cls-1" d="M158.61,72.24c.05,0,.12,0,.15,.03,.03,.04,.02,.1,.02,.16l-.24-.04,.07-.15Z"/><path class="cls-1" d="M193.11,70.33l-.15-.11c.05-.03,.1-.09,.15-.09,.05,0,.09,.07,.14,.1l-.15,.1Z"/><path class="cls-1" d="M161.35,62.17l.1-.39c-.05,.11-.1,.23-.16,.34l.05,.05Z"/><path class="cls-1" d="M200.41,58.71l-.14,.04,.02-.26s.12,.03,.14,.07c.02,.04-.01,.11-.02,.16Z"/><path class="cls-1" d="M162.39,57.63l.06,.35c-.03-.11-.05-.22-.08-.33h.02Z"/><path class="cls-1" d="M211.63,111.46l-.13,.13c-.02-.06-.07-.12-.06-.17,0-.05,.08-.09,.12-.13l.07,.17Z"/><path class="cls-1" d="M50.26,106.78c.92,.09,1,.64,1.06,1.41-.68-.28-.97-.67-1.06-1.41Z"/><path class="cls-1" d="M36.95,89.67c-.1,.05-.19,.1-.29,.15l-.19-.42c.11-.01,.25-.07,.32-.03,.09,.06,.11,.2,.17,.31Z"/><path class="cls-1" d="M167.58,79.1c-.43-.39-.34-.79-.05-1.21,.33,.39,.47,.79,.05,1.21Z"/><path class="cls-1" d="M48.6,103.56c-.09,.17-.15,.36-.22,.37-.15,0-.3-.08-.46-.13,.04-.1,.08-.29,.13-.29,.17-.02,.35,.03,.55,.06Z"/><path class="cls-1" d="M114.83,63.09c.8,.67,.52,1.82,1.16,2.59,.56,.67,.94,1.47,1.45,2.29,.13-.02,.39-.06,.65-.1q-.56,1.41-.21,3.47c.2,1.2-.04,2.33-.74,3.45l.96,.23c-.07,1.18-.04,2.41,1,3.28-.04,.08-.05,.15-.09,.2-.04,.04-.1,.08-.16,.09-.34,.04-.69,.11-1.03,.09-3.73-.16-7.45-.33-11.31-.51-.03-.42-.16-.83-.07-1.17,1.64-6.06,3.3-12.12,4.98-18.17,.13-.46,.41-.87,.61-1.3,.24-.51,.7-.62,1.29-.58l.14-2.02c.28,.17,.56,.29,.55,.33-.5,1.99,.37,3.8,.76,5.66,.16,.75,.46,1.45,.1,2.22q-.12,.63,.34,1.14l-.39-1.19Zm1.69,11.92c-.04,.47-.07,.67-.07,.86,0,.06,.06,.11,.09,.17,.07-.08,.2-.16,.2-.24-.01-.18-.09-.35-.22-.79Z"/><path class="cls-1" d="M101.93,49.43c-.28,.47-.73,.94-.46,1.52,.36,.79,.16,1.53-.11,2.22-.48,1.23-.09,2.46-.13,3.68,0,.23,.42,.48,.7,.77-.06,.56-.1,1.18-.22,1.79-.06,.32-.2,.69-.42,.9-.47,.45-.71,.97-.9,1.59-.25,.81-.67,.92-1.9,.62l.63-2.66-.27-.1c-.2,.34-.41,.67-.61,1.01-.68,1.16-1.36,1.28-2.47,.41-.21-.17-.41-.35-.69-.59,.07-.44,.09-.93,.24-1.37,.49-1.4,.5-2.79,.17-4.22-.06-.26-.11-.56-.04-.8,.31-1.13,.53-2.31,1.05-3.34,.42-.83,.74-1.64,.72-2.54-.02-.88,.23-1.64,.69-2.35,.59-.91,.89-1.98,1.73-2.78,.47-.45,.65-1.21,.96-1.82,.18-.35,.37-.7,.63-1.18,.66,.6,.59,1.21,.41,1.78-.22,.69-.3,1.33-.02,2.02,.17,.42,.51,.31,.89,.36-.03,.48-.02,.96-.09,1.43-.07,.46-.35,.51-1.14,.18l.59,3.49,.05-.04Zm-4.72,8.18l.23,.04c.05-.19,.13-.37,.13-.56,0-.11-.11-.23-.17-.34-.08,.09-.22,.18-.23,.28-.03,.19,.02,.39,.04,.58Zm2.96,1.92c-.09-.07-.17-.14-.25-.18-.01,0-.11,.09-.11,.12,.02,.1,.07,.19,.11,.29l.24-.22Zm-3.55-5.94l-.07-.14s-.07,.09-.07,.14c0,.05,.04,.09,.07,.14l.07-.14Z"/><path class="cls-1" d="M91.13,75.33c.46-.68,.95-1.32,1.13-2.17,.1-.5,.51-.96,.82-1.4,.29-.42,.48-.84,.36-1.35-.08-.35-.23-.68-.68-.59-.71,.14-.88-.33-.84-.83,.06-.61,.24-1.21,.44-1.8,.4-1.17,.85-2.32,1.25-3.41l.95-.86c.85,.74,.94,.97,.51,1.74-.16,.3-.44,.54-.59,.84-.41,.8-.82,1.59-.57,2.55,.08,.31,.11,.67,.02,.97-.14,.51-.02,.91,.21,1.37,.61,1.24,.53,1.58-.67,2.31-.67,.41-.64,.69-.18,1.26,.19,.23,0,.77-.03,1.22l.9,.04-.35,1.36c-.91-.57-2.05-.4-2.71-1.27h.03Z"/><path class="cls-1" d="M91.52,100.24c.11,2.25-.68,4.34-1.14,6.48-.39,1.82-.86,3.62-1.31,5.42-.07,.27-.13,.56-.3,.77-.56,.68-.67,1.5-.85,2.31-.18,.8-.47,1.56-1.08,2.35-.33-.86-.06-1.51,.1-2.16,.22-.87,.38-1.78,.76-2.58,.45-.96,.58-1.96,.82-2.96,.39-1.6,.9-3.18,1.43-4.74,.22-.66,.44-1.25,.25-1.99-.17-.63,.68-2.16,1.34-2.86l-.02-.03Z"/><path class="cls-1" d="M88.69,97.72c-.09-1.03-.29-2.02-.98-2.86l-.97-.17c-.16-.28,.06-.98,.35-1.07,.25-.08,.55-.17,.79-.11,.75,.21,1.15-.28,1.64-.77l.87,.8q1.15-1.27-.21-2.43c.27-.21,.49-.45,.76-.56,.59-.24,1.2,.18,1.08,.76-.23,1.13-.48,2.26-.83,3.36-.13,.41-.55,.78-.92,1.05-.37,.26-.85,.37-1.29,.56,.1,.37,.24,.67,.25,.98,0,.27-.13,.54-.52,.46v.03Z"/><path class="cls-1" d="M93.3,83.2c-.14-.12-.21-.16-.24-.21-.38-.67,.56-1.41-.2-2.13-.47-.44-.68-1.16-1-1.76-.03-.05,0-.13,0-.28,.68,.1,.93-.47,1.29-.86l.9,1.16c-.37,1.25-.02,2.74-.75,4.08Z"/><path class="cls-1" d="M98.07,65.01c.29,1.28,.51,2.25,.76,3.36l-.61,.89-1.46-1.39c.26-.9,.22-1.97,1.31-2.87Z"/><path class="cls-1" d="M119.99,69.17c.8,1.07,.11,2.13,.5,3.23-.83-.56-.85,.37-1.3,.39-.06-.02-.19-.04-.19-.07-.03-.54-.05-1.08-.06-1.62,1.16-.15,.46-1.26,1.05-1.93Z"/><path class="cls-1" d="M89.26,83.28c-.94-1.53,.09-2.16,.45-2.98,.24-.39-.68-.65-.13-1.03,.18-.12,.52-.14,.73-.05,.21,.08,.46,.33,.49,.53,.06,.47,.04,1.07-.48,1.24-.94,.31-1.18,1.03-1.06,2.29Z"/><path class="cls-1" d="M89.97,99.52c.2,.15,.3,.2,.29,.23-.34,1.28-.68,2.55-1.32,3.79-.02-.28-.09-.57-.05-.85,.05-.39,.31-.82,.22-1.16-.24-.9,.29-1.39,.87-2.01Z"/><path class="cls-1" d="M98.53,72.78c-.72,.28-.86,1.32-1.97,1.38,.22-1.06,.53-1.9,1.03-2.69,.64,.14,.77,.57,.94,1.31Z"/><path class="cls-1" d="M124.41,98.89c-.14-.2-.42-.41-.4-.61,.07-1.01,.21-2.01,.34-3.07,.13,.08,.4,.15,.41,.25,.09,.93,.16,1.87,.16,2.81,0,.2-.32,.4-.49,.6h-.02Z"/><path class="cls-1" d="M87.08,111.99c-.03,1.14-.54,2.05-1.01,2.99-.17-.87,.24-1.65,.31-2.48,.01-.12,.12-.24,.22-.33,.09-.07,.22-.09,.47-.18Z"/><path class="cls-1" d="M124,106.11c.28,.78,.61,1.55,.81,2.35,.09,.35-.06,.76-.11,1.28-.8-1.02-.98-2.2-.66-3.66,0,0-.04,.03-.04,.03Z"/><path class="cls-1" d="M97.42,77.03c-.18-.3-.32-.58-.5-.83-.18-.25-.4-.46-.85-.98l1.63,.23c.4,.66,.02,1.08-.28,1.58Z"/><path class="cls-1" d="M89.98,110.77c.67,1.09,.59,2.1-.29,3.04l.06,.05c-.17-1.04-.29-2.07,.29-3.04l-.06-.06Z"/><path class="cls-1" d="M125.33,113.53q.91,.72,.2,1.84-.62-.84-.2-1.84Z"/><path class="cls-1" d="M87.68,108.62l-.35,1.95c-.17-.63-.21-1.13,.35-1.95Z"/><path class="cls-1" d="M91.99,71.27c0,.07,.02,.15,0,.2-.09,.17-.18,.34-.3,.49-.02,.03-.18,.02-.19,0-.06-.18-.1-.36-.13-.55,0-.06,.03-.14,.08-.19,.09-.09,.2-.2,.31-.21,.07,0,.15,.17,.23,.26Z"/><path class="cls-1" d="M92.58,94.19l-.25,.92c-.46-.2-.75-.48-.41-.92,.08-.11,.47,.02,.72,.04l-.06-.05Z"/><path class="cls-1" d="M126.85,104.93c-1.12-.51-.77-1.18-.86-2.13,.34,.84,.53,1.31,.86,2.13Z"/><path class="cls-1" d="M90.04,110.83c.06-.27,.08-.56,.2-.79,.06-.12,.3-.15,.46-.22,.04,.12,.14,.25,.13,.37-.04,.53-.36,.69-.85,.59l.06,.06Z"/><path class="cls-1" d="M123.3,94.2l.07,1.45c-.46-.44-.42-.87-.07-1.45Z"/><path class="cls-1" d="M83.43,116.35l-1.12-.62c.54-.32,.89-.34,1.12,.62Z"/><path class="cls-1" d="M96.24,78.03l-.64,.22c-.02-.12-.09-.29-.04-.35,.12-.14,.31-.23,.47-.34l.21,.46Z"/><path class="cls-1" d="M94.4,60.29v-.83h.14v.83h-.14Z"/><path class="cls-1" d="M87.22,104.6l-.17,.88-.24-.03,.04-.87,.37,.02Z"/><path class="cls-1" d="M125.66,101.07c0,.26,0,.13,0,0,0,.13,.01,.26,0,0Z"/><path class="cls-1" d="M129.88,111.14c-.11-.43-.19-.61-.19-.79,0-.11,.13-.21,.21-.32,.07,.11,.19,.23,.19,.34,0,.18-.09,.35-.21,.77Z"/><path class="cls-1" d="M91.83,82.82c.04-.12,.08-.25,.12-.37,.1,.07,.26,.13,.3,.23,.03,.08-.08,.22-.12,.33-.1-.06-.19-.12-.29-.19Z"/><path class="cls-1" d="M85.84,109.24l-.13-.08c.07-.09,.14-.18,.22-.25,.01-.01,.08,.04,.13,.07-.07,.09-.15,.18-.22,.27Z"/><path class="cls-1" d="M92,105.69l-.42,.81q-.38-.59,.36-.78l.06-.03Z"/><path class="cls-1" d="M129.01,106.01s.08,.04,.1,.08c.02,.05,.01,.12,.01,.18-.05-.03-.13-.05-.16-.09-.02-.04,.03-.11,.05-.16Z"/><path class="cls-1" d="M92.55,85.53c-.06,.1-.12,.2-.19,.31-.05-.11-.15-.21-.15-.32,0-.1,.11-.2,.17-.3,.05,.11,.11,.21,.16,.32Z"/><path class="cls-1" d="M91.54,100.27c-.04-.2-.08-.4-.03-.14,.03-.3,.01-.11,0,.09,0,0,.03,.04,.03,.04Z"/><path class="cls-1" d="M123.24,89.02c-.05-.05-.14-.1-.14-.14,0-.24,.04-.49,.07-.73,0,0,.14,0,.14,0,.03,.24,.07,.49,.08,.73,0,.04-.1,.09-.15,.13Z"/><path class="cls-1" d="M94.13,83.26c.03,.21,.08,.41,.07,.62,0,.07-.15,.14-.23,.21-.01-.07-.05-.15-.03-.2,.07-.19,.16-.38,.25-.57l-.06-.06Z"/><path class="cls-1" d="M92.64,94.25c-.02-.13-.07-.27-.05-.4,.02-.12,.09-.25,.18-.31,.04-.03,.26,.07,.27,.13,.02,.12-.03,.28-.11,.37-.08,.09-.23,.11-.35,.16l.06,.05Z"/><path class="cls-1" d="M94.19,83.32c.05-.13,.07-.28,.15-.38,.06-.09,.19-.14,.29-.2,.02,.12,.08,.33,.04,.35-.16,.09-.35,.13-.54,.18l.06,.06Z"/><path class="cls-1" d="M100.33,76.52l-.09,.13c-.02-.05-.05-.11-.05-.15,0-.05,.06-.09,.09-.13l.05,.16Z"/><path class="cls-1" d="M101.88,49.47l.34,1.01c-.8-.3-.47-.68-.3-1.05,0,0-.04,.03-.04,.03Z"/><path class="cls-1" d="M91.64,80.44l-.06,.18c-.06-.07-.13-.13-.16-.21-.01-.02,.08-.09,.12-.14l.1,.17Z"/><path class="cls-1" d="M91.1,75.31l.09-.31c-.02,.11-.04,.21-.06,.32h-.03Z"/><path class="cls-1" d="M95.4,71.82l-.12,.13c-.04-.1-.09-.19-.11-.29,0-.04,.07-.09,.1-.13,.04,.1,.08,.2,.13,.3Z"/><path class="cls-1" d="M127.77,70.75l.13,.1-.14-.12h0Z"/><path class="cls-1" d="M127.77,70.74c.01-.12,.03-.23,.04-.35,0-.06-.02-.12-.03-.18,.04,.06,.11,.13,.11,.18-.01,.12-.07,.23-.1,.35h0Z"/><polygon class="cls-1" points="99.02 63.8 98.98 63.62 99.12 63.65 99.02 63.8"/><path class="cls-1" d="M122.35,88.84s-.04-.1-.04-.15c0-.02,.07-.03,.1-.04,.01,.05,.04,.1,.03,.14,0,.02-.07,.03-.1,.04Z"/><path class="cls-1" d="M92.82,91l.4-.21c0,.05,0,.15-.03,.15-.11,.02-.22,.03-.34,.04h-.04Z"/><path class="cls-1" d="M92.85,90.99l.03,.29s.04-.09,.03-.13c-.02-.05-.06-.1-.09-.15,0,0,.03-.02,.03-.02Z"/><path class="cls-1" d="M119.56,51.64l-.06,.15c-.05-.07-.09-.13-.13-.21,0,0,.07-.05,.11-.08l.08,.14Z"/><path class="cls-1" d="M88.7,97.69l.02,.22s-.01-.09-.03-.19c0,0,0-.03,0-.03Z"/><path class="cls-1" d="M124.43,98.88l.09,.32c0-.05,0-.11-.01-.16-.02-.05-.06-.1-.1-.15h.02Z"/><path class="cls-1" d="M91.94,105.72v-.3c.02,.09,.03,.18,.05,.27,0,0-.05,.03-.05,.03Z"/><path class="cls-1" d="M261.18,32.2c-.01-1.95,1.4-2.47,2.01-3.57,.16,.17,.32,.3,.3,.32-.65,1.01-1.17,2.12-2.31,3.26Z"/><path class="cls-1" d="M300.4,29.83c-.19-.52-.36-.79-.34-1.05,0-.18,.26-.47,.42-.48,.35-.02,.59,.26,.52,.61-.05,.25-.29,.46-.6,.92Z"/><path class="cls-1" d="M297,28.1v1.6q-.54-.67,0-1.6Z"/><path class="cls-1" d="M258.29,36.52c-.05,.29-.08,.58-.16,.85-.02,.07-.23,.14-.32,.11-.09-.03-.21-.2-.19-.28,.07-.28,.19-.54,.29-.82l.38,.13Z"/><path class="cls-1" d="M295.86,28.31l-.51,.4c-.06-.11-.17-.21-.18-.32-.03-.35,.21-.63,.41-.51,.09,.06,.14,.2,.27,.43Z"/><path class="cls-1" d="M297.08,18.54c-.06-.07-.13-.14-.17-.23-.01-.02,.07-.13,.1-.12,.09,.02,.17,.06,.26,.1-.06,.08-.13,.17-.19,.25Z"/><path class="cls-1" d="M291.95,37.25l-.12-.31s.04,.07,.06,.1c.02,.05,.03,.11,.05,.17,0,0,.02,.04,.02,.04Z"/><path class="cls-1" d="M295.49,89.66c-.33-.94-.28-1.66-.24-2.36,.68-.32,.82,.19,.93,.53,.28,.84,.17,1.09-.69,1.83Z"/><path class="cls-1" d="M297.43,104.57c-.52-.59-.74-1.02-.3-1.51,.54-.04,.64,.41,.3,1.51Z"/><path class="cls-1" d="M257.38,109.01c-.02,.3,0,.54-.06,.76-.02,.07-.21,.1-.33,.15-.03-.24-.07-.48-.07-.72,0-.05,.21-.09,.45-.19Z"/><path class="cls-1" d="M298.1,89.24l.09,.17-.27,.09c0-.06-.02-.14,.02-.19,.03-.04,.11-.05,.17-.07Z"/><path class="cls-1" d="M298.02,83.2c-.04,.07-.05,.14-.08,.15-.03,.01-.08-.03-.13-.05l.21-.11Z"/><path class="cls-1" d="M258.61,115.74c.03,.11,.06,.22,.07,.33,0,.03-.08,.07-.12,.11-.03-.11-.06-.21-.07-.32,0-.04,.08-.08,.12-.12Z"/><path class="cls-1" d="M297.49,100.16c-.06,.08-.12,.15-.17,.23-.03-.04-.11-.11-.1-.13,.04-.08,.11-.15,.17-.23l.1,.13Z"/><path class="cls-1" d="M298.96,199.37v-.78h.11v.78h-.11Z"/><path class="cls-1" d="M269.12,158.43h1.93c.46-.91,.08-1.75,.05-2.59-.54-.03-.93,.51-1.33,0-.1,.36-.21,.72-.31,1.09-.22-.08-.41-.08-.45-.16-.74-1.56-.51-3.07,.26-4.55,.18-.35,.3-.74,.41-1.02-.44-.88-1.26-.98-1.98-1.4-.04-.83,.39-1.56,.62-2.33,.08-.26,.25-.49,.37-.74,1.19-2.44,1.19-2.48,3.78-2.83,1.85-.25,3.71-.4,5.57-.52,.89-.06,1.83-.05,2.69,.15,3.99,.94,7.89,2.13,11.42,4.29,.59,.36,1.16,.76,1.77,1.1,2.4,1.32,3.67,3.47,4.5,5.98,1.34,4.03,1.49,8.15,1.11,12.33-.11,1.24-.3,2.48-.58,3.69-.59,2.47-1.96,4.57-3.44,6.59-.73,1.01-1.51,1.99-2.34,2.92-.5,.56-1.13,1.01-1.71,1.49-.92,.77-1.92,.95-3.1,.59-.84-.26-1.75-.27-2.81-.41-.75-1.05-2.11-1.46-3.43-1.83-.81-.23-1.51-.64-2.26-.96-1.74-.75-3-2.14-4.52-3.17-1.5-1.01-2.57-2.46-3.54-4.03-1.14-1.85-2.08-3.78-2.67-5.83-.46-1.59-1.05-3.1-1.68-4.61-.38-.9-.24-1.47,.66-1.84,.73-.3,.57-1.07,1.02-1.38Zm1.94-6.32l-.4-.05v1.02l.19,.03,.21-.99Zm-2.69,9.38c-.05,.01-.15,.02-.16,.03-.01,.1,0,.21,0,.32,.06-.01,.16-.02,.16-.04,.01-.1,0-.2,0-.31Z"/><path class="cls-1" d="M265.75,160.14c.9,1.09,.56,2.34,.91,3.39,.35,1.05,.62,2.12,.97,3.17,.37,1.11,.74,2.23,1.22,3.3,.46,1,1.08,1.92,1.6,2.89,.55,1.03,1.06,2.07,1.63,3.19-.1-.04-.24-.06-.33-.13-.17-.12-.31-.27-.46-.42-1.86-1.9-3.19-4.11-4.15-6.6-1-2.61-1.5-5.3-1.65-8.07,0-.17,.12-.35,.25-.7Z"/><path class="cls-1" d="M295.78,153.94c.13,.83,.27,1.67,.42,2.62-.72-.71-.91-1.42-.42-2.62Z"/><path class="cls-1" d="M298.35,170.35c-.09,.2-.25,.4-.43,.57-.07,.07-.27,.09-.35,.04-.08-.05-.15-.25-.11-.33,.14-.29,.32-.59,.73-.49,.05,.01,.18,.14,.16,.21Z"/><path d="M116.52,75.01c.13,.44,.21,.62,.22,.79,0,.08-.13,.16-.2,.24-.03-.06-.09-.11-.09-.17,0-.19,.03-.39,.07-.86Z"/><path d="M114.83,63.09l.39,1.19q-.46-.52-.34-1.14s-.04-.04-.04-.04Z"/><path d="M97.21,57.62c-.02-.19-.06-.39-.04-.58,.01-.1,.15-.19,.23-.28,.06,.11,.17,.23,.17,.34,0,.19-.08,.38-.13,.56l-.23-.04Z"/><path d="M100.17,59.53l-.24,.22c-.04-.1-.09-.19-.11-.29,0-.03,.09-.13,.11-.12,.08,.05,.16,.11,.25,.18Z"/><path d="M96.63,53.59l-.07,.14s-.07-.09-.07-.14c0-.05,.04-.09,.07-.14l.07,.14Z"/><path d="M271.06,152.11l-.21,.99-.19-.03v-1.02l.4,.05Z"/><path d="M268.37,161.49c0,.1,.02,.21,0,.31,0,.02-.1,.03-.16,.04,0-.11-.01-.21,0-.32,0-.02,.1-.02,.16-.03Z"/><path class="cls-1" d="M225.01,108.51c-.1,.09-.16,.19-.21,.19-.11-.02-.22-.09-.33-.13,.04-.03,.07-.09,.11-.09,.13,0,.25,.02,.43,.03Z"/></g></svg>