<svg xmlns="http://www.w3.org/2000/svg" viewBox="0 0 976.17 195.12"><defs><style>.cls-1{fill:#1c3664;}</style></defs><g id="Layer_2" data-name="Layer 2"><g id="Layer_1-2" data-name="Layer 1"><path class="cls-1" d="M229.25,179.48a6.17,6.17,0,0,1-.67,1.39c-2.32,2.8-4.52,3.32-7.27.92s-1.13-4.28-.93-6.69a116.51,116.51,0,0,0-1.74-34.26c-1.42-6.63-3.42-13.19-4.22-19.9-1.08-9.13-4.87-17.23-9-25C202.72,91,198,87.18,194.15,82.85c-5.11-5.82-11.8-5.58-18.31-4-4.74,1.12-9.08,3.81-13.73,5.42-2.43.84-3,2-2.87,4.45.83,19.71,1.44,39.42,2.25,59.12.37,9.1,1.08,18.19,1.53,27.29.12,2.38-6.05,5.07-6.05,5.07-3.78-.24-3.48-4.05-3.6-6.14-.4-6.5.18-13.06.15-19.59q-.06-14.62-.46-29.25c-.2-7.33-.72-14.65-1-22-.48-14.24-.84-28.49-1.3-42.74-.23-6.8-2-32-1.91-33,.4-5.87,1-11.73,1.33-17.6.18-3.06,2-4.72,4.92-4,2,.49,3.83,1.26,6,2-.55,4.35-1.27,8.52-1.56,12.71-.36,5.26-.49,10.54-.52,15.82,0,8.84.07,17.68.09,26.51,0,3.45-.09,6.89-.1,10.33,0,2.52,1.49,3,3.47,2.2,6.44-2.64,11.69-6.94,16.34-12,5.5-6,8.2-13.39,10.68-21,3.16-9.69,6-19.41,7-29.58.24-2.26.21-4.65,1-6.71a6.17,6.17,0,0,1,3.57-3.43c.87-.22,2.43,1.69,3.45,2.84a15,15,0,0,1,1.69,3,8.7,8.7,0,0,0-1,2.71c-.38,7.28,0,14.68-1.15,21.83-.81,5-3.39,9.87-5.6,14.6a132,132,0,0,1-7.63,14.09c-1.67,2.7-4.1,4.93-6.26,7.84,3.15-1.47,4.67.64,6.62,2.2,2.91,2.32,6.16,4.21,9.14,6.45,5.89,4.46,9.81,10.46,12.88,17.08,3.62,7.82,7.4,15.56,8.13,24.37.18,2.14,1.34,4.18,1.81,6.32,1.68,7.54,3.54,15.06,4.77,22.67.75,4.62.44,9.41.65,14.12.23,5,.53,9.9.8,14.83Zm74.37,6.05a4.39,4.39,0,0,1-4.44,4.21c-2.55,0-3.23-2.22-3.69-4.48-.43-2.06-.32-21.92-.31-30.08,0-6.84.94-13.68,1.11-20.53.21-8.71.78-17.42-1-26.1-.7-3.46-.31-7.14-.53-10.71-.12-1.81-.56-3.6-.76-5.41-.49-4.43-1-8.86-1.35-13.31-.13-1.82-.94-2.64-2.59-2.67s-3.23.09-4.84.2c-6.13.43-12.3.62-18.39,1.41A96.15,96.15,0,0,0,254,81.12a3.17,3.17,0,0,0-1.57,2.16c-1.27,6-2.7,12.09-3.52,18.21s-.83,12.14-1.39,18.2c-.41,4.31-1.21,8.58-1.7,12.89-.19,1.69.07,3.43,0,5.14-.12,2.75-.29,5.5-.54,8.24-.89,9.77-1.77,19.54-2.78,29.3-.27,2.65-.29,6.33-.61,6.9-2,3.59-5.33,4.1-8.34,1-.35-.77,1.81-9.83,1.81-9.83.42-7.08.43-14.19.94-21.26.38-5.37,1.3-10.69,1.92-16,1.18-10.08,2.11-20.21,3.54-30.26C243,97.15,245,88.62,246.23,80c1.77-12.83,4-25.5,8.12-37.82,1.31-3.94,1.53-8.24,2.91-12.14a159.18,159.18,0,0,1,6.65-15.5c1-2.07,1.17-4.37,3.62-6a21,21,0,0,1,13.21-3.82,12.49,12.49,0,0,1,7.15,3.22c4.08,3.71,6,8.82,7.37,14.11a139.2,139.2,0,0,1,4.12,35.39,52.22,52.22,0,0,0,2.22,16.5c1.38,4.33,1,9.24,1.26,13.9.36,6.46.69,12.92.82,19.39.17,9,1.61,18,.67,27.06-.57,5.63,0,11.37,0,17.06,0,7.79.12,15.59.07,23.38C304.42,174.65,303.84,183.73,303.62,185.53ZM313,161.16c.26-5.79.4-11.58.62-17.38.24-6.5.39-13,.8-19.51.56-8.7,1.34-17.38,2-26.07.09-1.11.33-2.21.48-3.32,1.2-8.77,2.32-17.55,3.61-26.3s2.68-17.45,4.16-26.15,3.46-17,7.14-25c.74-1.62,6.77-11.14,12.73-13.95,1.9-1.23,3.17-1.88,5.39-.89,3.33,1.48,6.59,3,8.83,5.95a14.93,14.93,0,0,1,2.58,5c1.41,5.15,2.54,10.39,3.84,15.84a48.06,48.06,0,0,0,1.53-6.15c.38-3.17.72-6.21,2.95-8.8.72-.83,5.54-6.85,8.14-8.07a66.53,66.53,0,0,1,8.95-3c1.62-.49,3.46-1.46,4.89-1.07a16.91,16.91,0,0,1,5.57,3.36c3.12,2.47,9.28,6.52,8.79,6.84,1.86,3.75,3.92,7.35,5.47,11.16,3.85,9.42,3.81,19.52,4.63,29.43a101.83,101.83,0,0,1,0,11.85c-.19,6.13-1.3,12.35-.66,18.38,1.05,9.79-1.08,19.26-2.24,28.72-1.42,11.63-2.61,23.19-2.3,34.87.21,7.58,1.2,15.14,1.47,22.73.1,2.62-.92,5.29-1.37,7.65.81.87.54,3.6-.25,4.28s-1.3,1.49-2.07,2.09c-1.26,1-2.59,2.54-4,2.61-2.19.13-3.28-1.68-3.34-3.93a70.32,70.32,0,0,0-1.61-7.62c-.26-.71.67-10.32,1-14.45.35-4.91,1.34-9.78,2.08-14.66,1-6.89,3-28.4,2.92-30.79-.1-5.22-.27-10.43-.37-15.65q-.13-6.81-.16-13.63c0-6.2.32-12.42-.11-18.59-.49-7.16-1.67-14.27-2.49-21.41-.42-3.69-.58-7.4-1.06-11.08-.5-3.89-1.28-7.73-1.88-11.61-.4-2.55,0-5.29-2.19-7.36-5.35-5-13.61-7-18.18.65-2.82,4.7-6.83,8.77-8.13,14.33a37.76,37.76,0,0,0-1.39,6.81c-.49,11.56-.91,23.12-1.13,34.69-.17,8.32,0,16.64.06,25,.05,10.78.33,21.56.12,32.33-.21,10.44-1,20.87-1.37,31.3-.11,3.14.52,6.31.35,9.44-.13,2.54-.94,5.05-1.5,7.85-1.11,3.83-7,2.32-8.47-1,.57-3.2.87-6.44,1.33-9.65,2.26-15.69,1.72-31.48,1.83-47.25,0-3.13.78-6.25.75-9.37,0-4.25-.44-8.51-.76-12.76-.63-8.4-1-16.84-2.06-25.19-.79-6.14-2.68-12.11-2.24-18.42.51-7.27.67-14.57,1.36-21.82s-.84-13.93-5.52-19.7c-1.79-2.21-5.34-2.43-6.83,0a68,68,0,0,0-6.11,12.18c-1.82,5-2.88,10.33-4.18,15.53-2.31,9.22-4.63,18.44-6.79,27.69a246.58,246.58,0,0,0-6.25,39.71c-.4,6.07-1.81,12.08-2.09,18.14-.38,8.1-.17,16.23-.07,24.34.07,6,.33,11.94.61,17.91.14,3,1.46,11-1.87,13.71-3,2.4-7.48.39-8.5-1.45S312.77,166.15,313,161.16ZM254.33,72.67c4.09-.38,7.94-1.07,11.78-1a22.45,22.45,0,0,0,10.77-2.58,5.28,5.28,0,0,1,2-.27c3.49-.13,7,0,10.43-.49.93-.12,2-1.78,2.34-2.93s-.07-2.6-.22-3.9c-.7-5.88-2.17-11.78-2-17.62.26-7.44-1.17-14.54-2.71-21.62-.7-3.22-2.83-6.18-4.66-9-.44-.69-2.75-1.15-3.31-.67-4.17,3.59-9.17,6.47-11.27,12-.78,2.06-1.16,4.3-2.15,6.23-3.82,7.39-5.77,15.35-7.45,23.4C256.69,60.21,255.58,66.27,254.33,72.67Z"/><path class="cls-1" d="M674.44,186.24c.37,1,.89,2.56,1.68,2.81,1,.31,2.38-.32,3.51-.77s2.33-1.39,3.58-1.86c1.76-.67,4-4,3.86-5.58-.28-4.1-.45-8.22-.48-12.33,0-4.84.16-9.68.24-14.52,0-2,0-4.08.06-6.11.39-7.72,1-15.42,1.19-23.14.24-11,.19-21.95.19-32.92,0-3.44-.11-6.89-.45-10.3-.32-3.13-1.16-6.21-1.5-9.34-.71-6.38-.92-12.82-1.92-19.14q-2.11-13.4-5.15-26.62c-1.58-6.86-2.38-14.1-7.29-19.76C669.7,4,667.62.9,663.62,1.25,655.29,2,649.7,7.08,645.89,13.9c-3.9,7-7,14.43-10.4,21.67-.17.36-.28.75-.42,1.13-2.8-5.76-4.77-11.17-6.78-16.57-1.4-3.77-1.86-8-5.07-10.92-2.67-2.47-5.35-4.93-7.8-7.6C613.75-.21,612-.3,609.91.42c-6.3,2.21-9.65,7.2-11.69,13.11a76.79,76.79,0,0,0-4.43,20.38c-.18,2.94.06,5.94-.4,8.83-1.07,6.71-2.83,13.32-3.62,20-1,8.71-1.28,17.51-2.1,26.25-.48,5.13-1.39,10.22-2.12,15.32-.58,4.09-1.52,8.15-1.7,12.25-.27,5.94,0,11.91,0,17.87,0,5.38-.29,10.75-.33,16.13,0,6.3.29,12.62,0,18.91-.22,4-.88,13.91.5,14.74,2.48,1.5,8-.72,7.86-3.42-.37-5.14-.45-16.6-.41-17.19.54-7.19,1.27-14.36,1.57-21.55.19-4.55-.51-9.14-.36-13.7.33-9.56,1-19.11,1.46-28.66.25-5,.15-9.94.65-14.87.81-8,2-15.91,3-23.87.46-3.62.9-7.24,1.42-10.86,1-6.61,2.29-13.19,2.86-19.83.6-6.93,2-13.22,7.76-17.87,2.32-1.87,4-2.26,5.86-.06,2.74,3.27,6.38,6,6.8,10.83a6.64,6.64,0,0,0,.86,2.27c5.11,10,5.79,21.15,7.12,31.93.88,7.21-.32,14.75-1.2,22.07-.91,7.49-.45,14.89.08,22.34.41,5.78.8,11.57,1,17.35.12,3.61-.14,7.23-.27,10.84-.33,9-.47,18-1.11,26.94-.55,7.68-1.69,15.33-2.57,23h0c0,3.22.1,6.44,0,9.66-.06,2.57,2,3.29,3.69,3.8.94.28,2.71-.59,3.39-1.49a8.47,8.47,0,0,0,1.55-4.4c.22-3.49,0-7,.12-10.52q.86-21.39,1.86-42.77c.28-6,1-12,1.13-18,.16-5.68-.16-11.37-.18-17.06,0-4.83.08-9.65.1-14.47,0-2.64-.23-5.3,0-7.92.23-2.92,1.67-6,1.11-8.69-1.65-8,.2-15.59,2.42-23.1,1.64-5.53,4.11-10.83,5.64-16.39,2.06-7.5,5.95-13.58,12.46-17.78,1.74-1.13,4-2.78,6.15-.93a9,9,0,0,1,2.5,4.42c1.66,6.6,3.29,13.22,4.5,19.91.93,5.16,1.2,10.45,1.82,15.67s1.43,10.13,1,15.38c-.47,5.69,0,11.47.11,17.21.14,6.08.42,12.16.54,18.24.06,3.41-.12,6.83-.12,10.25,0,2.22.15,4.44.15,6.67,0,1.61-.17,3.23-.21,4.85-.15,4.75,0,9.54-.46,14.25-.85,8.18-2.41,16.29-3.1,24.48-.47,5.5.05,11.08.14,16.62A52.29,52.29,0,0,0,674.44,186.24Z"/><path class="cls-1" d="M92.33,53c-.45,6.71-.87,13-1.28,19.29q-.73,11.43-1.44,22.85c-.09,1.53-.28,3.06-.25,4.58.12,5.14-1,5.53,5.23,6.06,7.67.64,15.3,1.82,22.93,2.86,2.68.37,5.21,1.27,6.4,4,.83,1.89.12,3.24-2,3.51-4.79.61-9.59,1.46-14.41,1.59-4.51.11-9-.62-13.58-.89s-4.7-.22-4.86,4.52c-.27,7.93-.42,15.87-.7,23.81-.13,3.75-.35,7.51-.69,11.26-.29,3.31-2.66,4.78-5.78,3.92-1.64-.46-3.37-.61-5-1-3.07-.68-3.53-1.77-3.22-4.77,1.27-12.23,2.33-24.48,3.54-36.72.22-2.25-.71-2.85-2.8-2.81-4.68.08-9.35-.07-14,0-6,.07-11.92.18-17.87.48a3,3,0,0,0-2,2.17c-.06,6,.27,12,.19,18-.09,6.18,0,28.43-2.3,31.35-.46.59-1.89,1.19-2.3.91-2.28-1.51-5.19-4.44-4.39-4.27-1.58-3.33-1-24.86-1.7-32.14-.44-4.2.26-8.52.36-12.79a9.53,9.53,0,0,0-.48-3.9,4,4,0,0,0-2.49-2c-5.6-.91-11.27-1.4-16.84-2.4a36.14,36.14,0,0,1-8.33-2.85c-1.9-.86-2.82-2.39-1.77-4.77s1.81-4,4.82-3.4c3.86.73,7.79,1.19,11.7,1.64,3.23.38,6.49.51,9.73.87,2.26.25,3-.53,3-2.87,0-7.93-.05-15.87.33-23.78.2-4.09,1.37-8.11,1.88-12.19.41-3.2.47-6.45.72-9.67.28-3.6-.76-4.66-4.49-4.82s-7.71-.34-11.52-.86a28.28,28.28,0,0,1-6.67-2c-2.09-.83-2.51-4.21-.62-5.27a11.38,11.38,0,0,1,5.11-1.6c5.4-.1,10.81.08,16.21.29,2.35.1,3-.44,2.94-3.07a68.07,68.07,0,0,1,1.15-14.55c.52-2.58,2.6-4.91,4.29-7.12a3.4,3.4,0,0,1,3.08-.87c.63.22,1.09,1.87,1.06,2.86-.14,4.77-.53,9.53-.72,14.3-.09,2.33.13,4.68.06,7-.06,1.9,1,2.14,2.53,2.18q13.14.39,26.28.83c1.62.06,3.25.2,4.87.41,2.34.3,3.59-.45,3.19-3-.32-2-.67-4-1-6-.59-3.81.27-6.92,3.68-9.3,1-.68,1-2.66,1.5-4s.86-3.11,1.75-3.42c1.14-.41,2.84.22,4.11.82,3.31,1.55,3.32,4.58,3.31,7.73,0,5.18.25,10.37.44,15.55a2.46,2.46,0,0,0,2.6,2.73c4.25.24,8.49.67,12.75.92,1.81.1,3.86-.4,4.53,2,.45,1.62-1.67,5.06-3.53,5.45-3.86.8-7.77,1.43-11.67,2C96.19,52.83,94.45,52.82,92.33,53ZM49.51,103.24l.05-.62c8.36.62,16.72,1.22,25.08,1.87,2.11.16,2.57-.77,2.48-2.74-.23-4.86-.47-9.73-.27-14.59.42-10,1.1-20.06,1.75-30.09.13-2-.33-3.11-2.5-3.27-4.06-.3-8.12-1-12.18-1C57.45,52.86,51,54.34,44.58,52c-1.7-.61-2.62.46-2.67,2.28-.31,10-.71,20-.94,30-.13,5.42.09,10.84,0,16.27,0,1.81.55,2.69,2.4,2.67C45.43,103.22,47.47,103.24,49.51,103.24Z"/><path class="cls-1" d="M844.05,26.08c1.07-2.4,2.19-4.16,2.62-6.08.64-2.81,2.93-3.7,5-4.85a2.88,2.88,0,0,1,2.73.42c.88,1.06,2,2.74,1.69,3.83-1,3.89-2,8-4.06,11.38-2.56,4.21-2.58,8-1,12.36a71.38,71.38,0,0,1,3.43,11c1,5.08,1.48,10.25,2,15.4a166.45,166.45,0,0,1,.3,32.65c-1.13,12.44-1.87,25-5.12,37.08-2.18,8.12-5.06,16-9.71,23.22-1.87,2.88-3,6.28-5.06,9-1.28,1.67-3.59,2.8-5.66,3.53s-4.41.65-6.64.91a46.38,46.38,0,0,1-13.21-2.72c-.58-.06-7.58-5.4-9.68-8.26-2.25-3.06-3.34-7.07-4.49-10.8-1.4-4.5-2.33-9.14-3.42-13.52-2.06,3.66-3.95,7.36-6.2,10.83-.8,1.22-2.68,2.81-3.75,2.6-3.57-.71-6-3.78-5.09-6.41,1.43-4.2,3.4-8.22,5.2-12.3a6.32,6.32,0,0,1,1.42-2c8.12-7.76,6.91-17.48,5.43-27.07-1.52-9.86-1.16-19.69-.51-29.56.48-7.3.57-14.64,1.45-21.89q1.95-16.05,4.83-32C798,15,802.91,9.25,809.39,4.78a2.56,2.56,0,0,1,1.43-.38c5.33.17,10.72-.06,15.28,3.58,3.55,2.84,7.57,5.15,10.79,8.3C839.59,18.92,841.44,22.42,844.05,26.08Zm1.39,22.86-1.73-.63a44.63,44.63,0,0,0-3.92,4.47c-1.81,2.68-3.35,5.54-5,8.32-3.89,6.55-7.94,13-11.6,19.68C819.27,88,815.88,95.4,812,102.56c-3.33,6.1-7.26,11.87-10.58,18-1.09,2-2,4.86-1.42,6.86a195.42,195.42,0,0,0,7.3,20.29,146.35,146.35,0,0,0,7.1,13.74c2.15,3.9,3.41,4.39,7.85,3.61,1.5-.26,3-.59,4.5-.89,3.68-.77,7-2.12,8.54-5.92,1.15-2.88,2.14-5.83,3.11-8.77.31-.95.24-2,.5-3,1.72-6.33,3.41-12.68,5.26-19,1.17-4,3.15-7.82,3.8-11.87A127.67,127.67,0,0,0,849.27,98a181.36,181.36,0,0,0-.47-19.51C847.94,68.62,846.59,58.79,845.44,48.94Zm-48.51,63.19,1.33.31c1.71-3,3.35-6,5.14-8.86,3.21-5.17,6.71-10.17,9.71-15.46C815.89,83.22,818,78,820.73,73c3-5.51,6.53-10.75,9.49-16.29,3.38-6.33,6.42-12.85,9.55-19.31,1.05-2.17,1.67-4.3-.61-6.33-1.23-1.09-1.92-2.75-3-4q-4.83-5.67-9.8-11.19c-.49-.54-5.21-2.88-8-2.82-2.43.5-3.55,2.17-4.52,3.74-2.46,4-3.85,8.79-6.8,12.31-3.93,4.7-2.53,11.15-6.29,15.65-1,9-2.41,17.89-3.08,26.88-.63,8.5-.58,17.06-.74,25.59C796.85,102.18,796.93,107.16,796.93,112.13Z"/><path class="cls-1" d="M426.56,180.32a41.13,41.13,0,0,1,0-4.58c.43-4.11.87-8.22,1.54-12.29,1.92-11.79,2.07-23.64,1.85-35.54-.13-7,.34-14,.66-21,.24-5.21.7-10.42,1-15.62.63-10.22,1.63-20.43,1.73-30.65.1-11-.87-22-.95-33,0-5.88.83-11.77,1.25-17.66.24-3.24,2.71-3.8,5-3.61s3,2.19,2.9,4.32c0,1.09-.15,2.18-.23,3.24,4.21-1.73,8.49-3.52,12.8-5.24,1.66-.66,3.37-1.18,5.07-1.71,3.3-1,6.55-2.44,9.94-3a21.94,21.94,0,0,1,19.63,6.38,33.77,33.77,0,0,1,7.05,10.16c2.17,4.94,1.79,10.52,0,15.48a190.68,190.68,0,0,1-10.1,23.5c-2.09,4-6,7-9.1,10.44-.66.73-1.26,1.52-1.69,2,4.57,3.73,9.52,6.81,13.2,11,5.9,6.72,11.2,14,12.49,23.38.54,3.95,2.55,7.68,3.41,11.61a62.38,62.38,0,0,1,1.07,10.23,75.84,75.84,0,0,1,0,10.87,58.53,58.53,0,0,1-2,8.76,30,30,0,0,1-1.56,5.23,100.93,100.93,0,0,1-6.1,12.44c-2.57,4.09-5.84,7.74-8.89,11.52-.63.78-9.89,6.71-12.65,8.63a54.5,54.5,0,0,1-19.31,8.4c-6.26,1.43-12.47,1-18.71.88-3.2-.05-8.07-5.69-8.34-8.78C427.44,184.28,426.42,180.4,426.56,180.32Zm14.12,7c.88.57,2.53-.2,3.66.16,6,1.93,11.13-.28,16.06-3.3,2.41-1.47,4.48-4,7-4.58,8.7-1.93,14-8.08,18.74-14.61,6.15-8.54,9.37-18.4,10.3-29,.23-2.59,1.37-5.2,1.16-7.72a101.75,101.75,0,0,0-2.43-16.22c-1.64-6.57-4-13-8.69-18.15-1.17-1.28-2.41-2.49-3.7-3.65-3.13-2.8-5.94-6.24-9.55-8.14-4.81-2.52-10.13-4.22-15.81-1.57a12.85,12.85,0,0,1-6.3.78,5.77,5.77,0,0,1-3.59-2.25c-.4-.56.19-2.63.92-3.1a48.66,48.66,0,0,1,7.26-3.62c2-.85,4.53-.91,6-2.23,6.54-5.81,12.94-11.79,19.05-18a22.92,22.92,0,0,0,5.1-8.21A63.3,63.3,0,0,0,489.16,30c.47-4.34.27-8.64-2.81-12.66C483,13,477.9,12.26,473.61,11.66c-5.09-.7-10.69.8-15.8,2.27-4.64,1.34-9,3.79-13.31,6-2.05,1.06-4.68,1.87-4.79,5s-.34,6.28-.41,9.42c-.36,14.14-.63,28.28-1,42.42-.12,4.31-.54,8.6-.78,12.91-.33,5.86-.69,11.72-.89,17.59-.22,6.59-.31,13.17-.37,19.76q-.08,8.94.08,17.87c.06,4.29.34,8.57.44,12.86.08,3.37-.11,6.75.09,10.11.15,2.48.89,4.93,1.05,7.42S437,186,440.68,187.28Z"/><path class="cls-1" d="M505.81,168.57c.57-8.16.94-16.35,1.65-24.5.55-6.34,1.52-12.64,2.26-19,.88-7.44,1.55-14.9,2.6-22.31.86-6.06,2.18-12.06,3.23-18.09,1.28-7.4,2.42-14.83,3.75-22.22,1.88-10.44,2.94-21.07,7.56-30.87,1.1-2.33,1.09-5.15,2.06-7.55,2.18-5.45,4.66-10.78,7-16.17,1.74-4,5.25-4.38,8.9-4.24,6.13.24,14.55,7,15.45,13.15,1.36,9.33,2.32,18.73,3,28.12.61,7.88.3,15.83,1,23.7.89,10.26,2.46,20.45,3.56,30.69,1.11,10.4,1.41,20.92,3.13,31.22,1.75,10.46.67,20.89,1.14,31.32.2,4.44-.12,8.9-.13,13.35a9.2,9.2,0,0,0,.46,2.68c.9,3.08,0,5-3,7.18-2.54,1.87-4.74.53-6.76-.67-.77-.45-1.16-2.16-1.11-3.27.32-6.18,1.33-12.36,1.16-18.52-.3-11-1.33-22-1.94-33.06-.33-6.08-.49-12.17-.62-18.26-.15-7.09-.12-14.18-.29-21.28-.08-3.54-.57-7.07-.56-10.6,0-1.79-.75-2.59-2.22-2.55-5.25.14-10.52.18-15.72.79s-10.55,2-15.84,2.8c-2.44.4-4,1.06-4.24,4-.64,9.1-1.29,18.22-2.34,27.28-1.1,9.59-2.75,19.11-4,28.68-.76,5.81-.7,11.78-2,17.43-1.53,6.49-.62,12.78-.07,19.14.21,2.32.78,4.39-.9,6.47-2.08,2.58-4.59,2.68-6.35-.11C504.65,181.79,505.56,172.16,505.81,168.57Zm17.92-96.2c3.84-.31,7.33,0,10.46-1,7.25-2.15,14.43-4.24,22.09-4.07.61,0,1.79-1.25,1.77-1.88-.2-5.27-.62-10.54-1-15.8-.15-2.23-.44-4.47-.39-6.7.2-9.48-1.79-18.23-8.16-25.62-2.88-3.34-6.08-2.92-8.38.72-2.92,4.64-5.7,9.22-7,14.68-1.6,6.68-3.89,13.18-5.6,19.84-1.48,5.78-2.58,11.66-3.8,17.51A12.09,12.09,0,0,0,523.73,72.37Z"/><path class="cls-1" d="M908.2,187.53c-9.06-.37-15.34-2.19-21.33-6-3.45-2.19-8-2.87-12.09-3.75-1.13-.24-2.7,1.17-4,2-3,2-5.84,4.09-8.81,6.05s-6.12,1.51-7.92-1.06a2.77,2.77,0,0,1-.53-1.91c.69-3.44,1.67-6.89,5.45-8.12,6.75-2.2,10.71-7.59,14.55-12.87s6.87-11,10.34-16.5c3.86-6.09,8.16-11.93,11.64-18.23,2.91-5.25,4.69-11.13,7.39-16.51,4.5-9,4.93-18.92,7.31-28.39a107.07,107.07,0,0,0,2.48-18.32c.62-8.55.87-17.12,1-25.68a111.34,111.34,0,0,0-.69-13.41c-.49-4.75-3.41-7.24-7.69-9.59-6.22-3.4-12.57-3.91-19.13-3.43-4.86.35-9,3-12.48,6.44-1.38,1.33-2.61,2.84-4.1,4-.65.51-2.32.83-2.61.48a4.14,4.14,0,0,1-1-3.13,41,41,0,0,1,2.68-6.36c2.12-4.45,6.55-5.6,10.65-6.9,7.38-2.36,14.71-.63,22.11.52,6.51,1,11.68,3.75,15.57,8.89,2.64,3.48,4.82,7.15,5.09,11.8s2.9,8.74,2.6,13.5c-.23,3.59,0,7.21-.27,10.8-.54,8-1.21,15.91-1.88,23.86-.24,2.88-.62,5.75-1,8.62-.43,3.5-.56,7.08-1.44,10.46a174.64,174.64,0,0,1-5.45,17.36c-1,2.75-3.21,5.06-4.66,7.67-2.4,4.32-4.6,8.74-6.94,13.08q-4.49,8.3-9.06,16.53c-2.8,5.06-5.69,10.07-8.45,15.14-.76,1.39-.77,2.78,1.16,3.4s4,1.47,6.07,2c5.15,1.33,10.28,3,15.53,3.59,3.42.37,7-1.09,10.54-1.58,1.9-.26,4.07-.75,5.68-.08.93.39,1.19,2.85,1.36,4.42a9.66,9.66,0,0,1-.33,4.71c-.61,1.45-1.86,3.3-3.18,3.64C917.09,186.05,911.62,186.88,908.2,187.53Z"/><path class="cls-1" d="M724.18,163.11c4.83,1.45,8.4,1.91,12.9,3.29.66.2,8.27,4.8,8.75,5.27,5,5,25.86,6.94,30.37,4.58,2.37-.92,5.38-1.47,6.67-.49,2.47,1.89,2.52,5.05,1,6.45-1.19.43-2.35,1.19-3.55,1.24-7.28.32-14.62,0-21.83.82-5.72.63-10.94.12-16-2.48a8.77,8.77,0,0,1-2.5-1.65c-4.52-4.82-10.22-6.72-16.63-7a5.4,5.4,0,0,1-1.2-.22c-5.5-1.59-16.28,10.44-20.58,9.08-2.12-.66-1.82-2.36-1.49-4a31.92,31.92,0,0,1,1.26-4.82,10.11,10.11,0,0,1,2.1-4c2.66-2.44,5.78-4.4,8.39-6.88s5.28-4.9,6.87-7.92c4.65-8.84,8.85-17.92,13.08-27,3.46-7.43,7.28-14.77,9.9-22.5,2.47-7.27,3.52-15,5.3-22.52a24.09,24.09,0,0,1,1.87-5c3.22-6.56,4.21-13.63,5-20.78.8-7.57.44-15.1.26-22.69-.18-7.22-3.2-12.63-7.18-17.69-2.62-3.32-6.88-4.46-11.4-3.4-3.74.88-7.76,1-11.25,2.43-2.93,1.2-5.39,3.7-7.85,5.86-3.21,2.81-6.46,5.27-11.07,4.34-2.92-.58-3.9-3.26-2.28-5.77,2.7-4.18,6.82-6.76,10.45-9.95C719.12,5,725.77,4.31,732.43,3c8.15-1.57,20.53,3.24,25,10a18.06,18.06,0,0,1,2.11,4.38A67.14,67.14,0,0,1,762.66,48c-1,7.24-1.5,14.58-3,21.72a214.81,214.81,0,0,1-6.42,24.35c-2.46,7.44-5.9,14.55-8.77,21.86-1.28,3.25-1.86,6.81-3.41,9.9-2.83,5.64-3.32,11.85-5.15,17.7-1.49,4.78-4.37,9.13-6.62,13.67C728.79,158.28,724.63,162.17,724.18,163.11Z"/><path class="cls-1" d="M950.53,31.22c-2.64.62-4.6,1.49-6.53,1.43-3.56-.11-5.35-3.34-3.78-6.53,2.58-5.25,7-8.4,12.51-9.87a27.57,27.57,0,0,1,7.17-.89c1.88,0,2.93,1,2.8,3.39-.43,7.5-.41,15-.71,22.54-.18,4.43-1.52,9-.83,13.25,2.78,17.19-.84,34.28-.19,51.41.2,5.28-.42,10.59-.24,15.87.16,4.74,1.06,9.46,1.36,14.2.5,7.8.73,15.61,1.16,23.42.25,4.65.64,9.3,1,13.95.16,1.93-.19,4.58.9,5.56s3.67.12,5.59.21c3.73.19,6.09,2,5.24,4.73-.57,1.82-2.73,3.22-4.36,4.58a17.31,17.31,0,0,1-3.7,1.93,5.62,5.62,0,0,1-2.27.79c-4.62-.14-9.24-.41-13.86-.63-.2,0-.44-.08-.6,0-4.75,2.52-9.2-.36-13.77-.81-2.71-.27-3.58-2.9-1.82-5a7.29,7.29,0,0,1,6.44-3c3.36.12,6.83-1.47,10.15-2.61.75-.26,1.43-1.72,1.54-2.69,1-9.07,1.44-18.19.14-27.24-.45-3.12-2.26-15.76-2.64-17.82a87.21,87.21,0,0,1-1.1-12.1c-.25-6.49-.52-13-.37-19.48.17-7.41.82-14.8,1.19-22.21.18-3.54-.36-7.22.4-10.62,2.23-9.91.19-19.83.55-29.73C952,35.29,951,33.24,950.53,31.22Z"/></g></g></svg>